<svg width="183" height="279" viewBox="0 0 183 279" fill="none" xmlns="http://www.w3.org/2000/svg">
	<g opacity="0.6">
		<path d="M97.8544 57.9343V59.4343H98.4757L98.9151 58.9949L97.8544 57.9343ZM36.4023 57.9342C36.4023 62.3525 39.9841 65.9342 44.4023 65.9342C48.8206 65.9342 52.4023 62.3525 52.4023 57.9342C52.4023 53.5159 48.8206 49.9342 44.4023 49.9342C39.9841 49.9342 36.4023 53.5159 36.4023 57.9342ZM168.155 -14.4873L96.7937 56.8736L98.9151 58.9949L170.276 -12.366L168.155 -14.4873ZM97.8544 56.4343L44.4023 56.4342L44.4023 59.4342L97.8544 59.4343V56.4343Z" fill="#7B5C41" style="mix-blend-mode:plus-lighter" />
	</g>
	<g opacity="0.6">
		<path d="M97.8545 220.535V219.035H98.4758L98.9152 219.475L97.8545 220.535ZM7.05273 220.535C7.05273 216.117 10.6345 212.535 15.0527 212.535C19.471 212.535 23.0527 216.117 23.0527 220.535C23.0527 224.953 19.471 228.535 15.0527 228.535C10.6345 228.535 7.05273 224.953 7.05273 220.535ZM168.155 292.957L96.7938 221.596L98.9152 219.475L170.276 290.835L168.155 292.957ZM97.8545 222.035H15.0527V219.035H97.8545V222.035Z" fill="#7B5C41" style="mix-blend-mode:plus-lighter" />
	</g>
	<g opacity="0.6">
		<path d="M94.1446 24.4438V25.9438H94.7659L95.2053 25.5044L94.1446 24.4438ZM42.009 24.4438C42.009 28.8621 45.5908 32.4438 50.009 32.4438C54.4273 32.4438 58.009 28.8621 58.009 24.4438C58.009 20.0255 54.4273 16.4438 50.009 16.4438C45.5908 16.4438 42.009 20.0255 42.009 24.4438ZM164.445 -47.9778L93.084 23.3831L95.2053 25.5044L166.566 -45.8565L164.445 -47.9778ZM94.1446 22.9438L50.009 22.9438L50.009 25.9438L94.1446 25.9438V22.9438Z" fill="#7B5C41" style="mix-blend-mode:plus-lighter" />
	</g>
	<g opacity="0.6">
		<path d="M94.1448 253.026V251.526H94.7661L95.2055 251.965L94.1448 253.026ZM0.782737 253.026C0.782737 248.607 4.36446 245.026 8.78274 245.026C13.201 245.026 16.7827 248.607 16.7827 253.026C16.7827 257.444 13.201 261.026 8.78274 261.026C4.36446 261.026 0.782737 257.444 0.782737 253.026ZM164.445 325.447L93.0841 254.086L95.2055 251.965L166.566 323.326L164.445 325.447ZM94.1448 254.526H8.78274V251.526H94.1448V254.526Z" fill="#7B5C41" style="mix-blend-mode:plus-lighter" />
	</g>
	<g opacity="0.6">
		<path d="M102.472 91.6658V93.1658H103.093L103.532 92.7265L102.472 91.6658ZM30.1533 91.6658C30.1533 96.0841 33.735 99.6658 38.1533 99.6658C42.5716 99.6658 46.1533 96.0841 46.1533 91.6658C46.1533 87.2476 42.5716 83.6658 38.1533 83.6658C33.735 83.6658 30.1533 87.2476 30.1533 91.6658ZM182.605 9.41163L101.411 90.6052L103.532 92.7265L184.726 11.533L182.605 9.41163ZM102.472 90.1658H38.1533V93.1658H102.472V90.1658Z" fill="#7B5C41" style="mix-blend-mode:plus-lighter" />
	</g>
	<g opacity="0.6">
		<path d="M102.472 188.804V187.304H103.093L103.532 187.743L102.472 188.804ZM11.6128 188.804C11.6128 184.385 15.1945 180.804 19.6128 180.804C24.0311 180.804 27.6128 184.385 27.6128 188.804C27.6128 193.222 24.0311 196.804 19.6128 196.804C15.1945 196.804 11.6128 193.222 11.6128 188.804ZM182.605 271.058L101.411 189.864L103.532 187.743L184.726 268.937L182.605 271.058ZM102.472 190.304H19.6128V187.304H102.472V190.304Z" fill="#7B5C41" style="mix-blend-mode:plus-lighter" />
	</g>
	<g opacity="0.6">
		<path d="M107.228 124.375V125.875H107.85L108.289 125.435L107.228 124.375ZM23.4854 124.375C23.4854 128.793 27.0671 132.375 31.4854 132.375C35.9036 132.375 39.4854 128.793 39.4854 124.375C39.4854 119.956 35.9036 116.375 31.4854 116.375C27.0671 116.375 23.4854 119.956 23.4854 124.375ZM187.361 42.1204L106.168 123.314L108.289 125.435L189.483 44.2417L187.361 42.1204ZM107.228 122.875L31.4853 122.875L31.4854 125.875L107.228 125.875V122.875Z" fill="#7B5C41" style="mix-blend-mode:plus-lighter" />
	</g>
	<g opacity="0.6">
		<path d="M107.228 156.095V154.595H107.85L108.289 155.034L107.228 156.095ZM17.2405 156.095C17.2405 151.677 20.8222 148.095 25.2405 148.095C29.6588 148.095 33.2405 151.677 33.2405 156.095C33.2405 160.513 29.6588 164.095 25.2405 164.095C20.8222 164.095 17.2405 160.513 17.2405 156.095ZM187.361 238.349L106.168 157.156L108.289 155.034L189.482 236.228L187.361 238.349ZM107.228 157.595H25.2405V154.595H107.228V157.595Z" fill="#7B5C41" style="mix-blend-mode:plus-lighter" />
	</g>
</svg>
