<svg width="24" height="19" viewBox="0 0 24 19" fill="none" xmlns="http://www.w3.org/2000/svg">
<path d="M6.143 0.0562744C3.97199 0.0562744 1.71884 1.07109 0.741501 2.75119C0.604989 2.99257 0.581299 3.14675 0.581299 3.57065V17.2058C0.581299 17.773 0.924035 18.0991 1.50911 18.0991C1.81903 18.0991 2.05982 18.0067 2.33945 17.7979C3.52962 16.8297 5.07418 16.3279 6.617 16.3279C8.09319 16.3279 9.47656 16.8375 10.518 17.7175C10.637 17.8154 10.7772 17.8657 10.898 17.8657C11.1273 17.8657 11.3144 17.6999 11.3144 17.4369V2.91256C11.3144 2.64788 11.288 2.56516 11.0982 2.29078C10.1519 0.906031 8.24585 0.0562744 6.143 0.0562744ZM17.8555 0.0562744C15.7544 0.0562744 13.8483 0.906031 12.9021 2.29078C12.7123 2.56516 12.6859 2.64788 12.6859 2.91256V17.4369C12.6859 17.6999 12.8729 17.8657 13.1022 17.8657C13.223 17.8657 13.3712 17.8154 13.4822 17.7175C14.5237 16.8375 15.9071 16.3279 17.3833 16.3279C18.9261 16.3279 20.4707 16.8297 21.6608 17.7979C21.9404 18.0067 22.1812 18.0991 22.4894 18.0991C23.0762 18.0991 23.419 17.773 23.419 17.2058V3.57065C23.419 3.14675 23.3952 2.9846 23.2587 2.75119C22.2814 1.07109 20.0283 0.0562744 17.8555 0.0562744Z" fill="url(#paint0_linear_248_2779)"/>
<defs>
<linearGradient id="paint0_linear_248_2779" x1="12.0001" y1="0.0562744" x2="12.0001" y2="18.0991" gradientUnits="userSpaceOnUse">
<stop stop-color="#F1C4E2"/>
<stop offset="1" stop-color="#AF809F"/>
</linearGradient>
</defs>
</svg>
