<svg width="23" height="16" viewBox="0 0 23 16" fill="none" xmlns="http://www.w3.org/2000/svg">
<path d="M1.48435 2.97997H21.211C22.0704 2.97997 22.6954 2.43307 22.6954 1.59327C22.6954 0.772974 22.0704 0.226074 21.211 0.226074H1.48435C0.60547 0.226074 0 0.772974 0 1.59327C0 2.43307 0.60547 2.97997 1.48435 2.97997ZM1.48435 9.44487H21.211C22.0704 9.44487 22.6954 8.89797 22.6954 8.05807C22.6954 7.23777 22.0704 6.69097 21.211 6.69097H1.48435C0.60547 6.69097 0 7.23777 0 8.05807C0 8.89797 0.60547 9.44487 1.48435 9.44487ZM1.48435 15.9292H21.211C22.0704 15.9292 22.6954 15.3628 22.6954 14.5425C22.6954 13.7222 22.0704 13.1753 21.211 13.1753H1.48435C0.60547 13.1753 0 13.7222 0 14.5425C0 15.3628 0.60547 15.9292 1.48435 15.9292Z" fill="white" fill-opacity="0.85"/>
<path d="M1.48435 2.97997H21.211C22.0704 2.97997 22.6954 2.43307 22.6954 1.59327C22.6954 0.772974 22.0704 0.226074 21.211 0.226074H1.48435C0.60547 0.226074 0 0.772974 0 1.59327C0 2.43307 0.60547 2.97997 1.48435 2.97997ZM1.48435 9.44487H21.211C22.0704 9.44487 22.6954 8.89797 22.6954 8.05807C22.6954 7.23777 22.0704 6.69097 21.211 6.69097H1.48435C0.60547 6.69097 0 7.23777 0 8.05807C0 8.89797 0.60547 9.44487 1.48435 9.44487ZM1.48435 15.9292H21.211C22.0704 15.9292 22.6954 15.3628 22.6954 14.5425C22.6954 13.7222 22.0704 13.1753 21.211 13.1753H1.48435C0.60547 13.1753 0 13.7222 0 14.5425C0 15.3628 0.60547 15.9292 1.48435 15.9292Z" fill="url(#paint0_linear_242_1934)"/>
<defs>
<linearGradient id="paint0_linear_242_1934" x1="11.3477" y1="0.226074" x2="11.3477" y2="15.9292" gradientUnits="userSpaceOnUse">
<stop stop-color="#F1C4E2"/>
<stop offset="1" stop-color="#AF809F"/>
</linearGradient>
</defs>
</svg>
