<svg width="22" height="19" viewBox="0 0 22 19" fill="none" xmlns="http://www.w3.org/2000/svg">
<path d="M0.525635 9.15924C0.525635 10.0125 1.11718 10.5972 1.9961 10.5972H12.0478L14.4512 10.4651L11.3702 13.2407L9.19806 15.4438C8.92481 15.7171 8.75542 16.0638 8.75542 16.4838C8.75542 17.2699 9.33702 17.8541 10.1666 17.8541C10.5359 17.8541 10.8962 17.7062 11.1967 17.3984L18.2454 10.226C18.5239 9.94431 18.7022 9.56826 18.7022 9.15924C18.7022 8.7423 18.5239 8.37417 18.2454 8.08467L11.1967 0.908533C10.8962 0.597018 10.5359 0.44493 10.1666 0.44493C9.33702 0.44493 8.75542 1.03701 8.75542 1.81946C8.75542 2.23952 8.92847 2.59351 9.19806 2.8552L11.3702 5.06993L14.4433 7.85343L12.0478 7.7134H1.9961C1.11718 7.7134 0.525635 8.29813 0.525635 9.15924ZM18.6676 16.6658C18.6676 17.456 19.2744 18.0398 20.0768 18.0398C20.8676 18.0398 21.4744 17.456 21.4744 16.6658V1.66061C21.4744 0.86242 20.8676 0.270874 20.0768 0.270874C19.2744 0.270874 18.6676 0.86242 18.6676 1.66061V16.6658Z" fill="url(#paint0_linear_280_6097)"/>
<defs>
<linearGradient id="paint0_linear_280_6097" x1="11" y1="0.270874" x2="11" y2="18.0398" gradientUnits="userSpaceOnUse">
<stop stop-color="#F1C4E2"/>
<stop offset="1" stop-color="#AF809F"/>
</linearGradient>
</defs>
</svg>
