<svg width="20" height="24" viewBox="0 0 20 24" fill="none" xmlns="http://www.w3.org/2000/svg">
<path d="M2.99752 21.7648C4.01014 22.6131 5.20938 23.2094 6.49694 23.5047C6.62015 23.545 6.70306 23.3838 6.62015 23.3032C3.8623 20.672 5.37768 17.8244 6.49694 16.5404C7.29494 15.6238 8.43147 14.1142 8.34857 12.0899C8.34857 11.8872 8.55584 11.7248 8.71935 11.8469C10.2842 12.6564 11.354 14.4378 11.6419 15.8944C12.0956 15.4499 12.2602 14.7613 12.2602 14.1545C12.2602 13.9518 12.5067 13.7895 12.7128 13.9518C14.1948 15.2876 16.7465 19.8211 12.6299 23.3827C12.5481 23.4644 12.6299 23.6268 12.7128 23.5865C13.961 23.2593 15.1349 22.6956 16.1707 21.926C22.8806 16.7442 18.5164 7.55522 15.6756 4.51985C15.306 4.15482 14.6473 4.39779 14.6473 4.92403C14.6059 6.01796 14.2765 7.23165 13.4129 8.04116C12.7542 5.28905 10.5595 2.16271 7.43082 0.624301C7.01973 0.421636 6.52573 0.74521 6.56719 1.19084C6.64779 4.95627 4.19163 7.35371 2.05098 10.4708C0.156749 13.2632 -1.07767 18.4047 2.99752 21.7648Z" fill="url(#paint0_linear_260_3595)"/>
<defs>
<linearGradient id="paint0_linear_260_3595" x1="9.99994" y1="0.5625" x2="9.99994" y2="23.5928" gradientUnits="userSpaceOnUse">
<stop stop-color="#F1C4E2"/>
<stop offset="1" stop-color="#AF809F"/>
</linearGradient>
</defs>
</svg>
