<svg width="14" height="24" viewBox="0 0 14 24" fill="none" xmlns="http://www.w3.org/2000/svg">
<path d="M1.50003 20.4309C1.50487 21.2906 2.10616 21.8456 3.0366 21.8456H11.4655C12.3984 21.8456 12.9972 21.2906 13.0045 20.4309C13.0093 19.5677 12.408 19.003 11.4655 19.003H9.11624V9.38513C9.11624 8.46787 8.52461 7.88705 7.63183 7.88705H3.40824C2.47673 7.88705 1.86441 8.44075 1.86925 9.30396C1.87651 10.1747 2.48641 10.7321 3.40824 10.7321H6.02372V19.003H3.0366C2.09648 19.003 1.49519 19.5677 1.50003 20.4309ZM4.93623 2.74267C4.93623 3.94176 5.89115 4.8991 7.08781 4.8991C8.30035 4.8991 9.22839 3.94176 9.22839 2.74267C9.22839 1.53255 8.30035 0.577637 7.08781 0.577637C5.89115 0.577637 4.93623 1.53255 4.93623 2.74267Z" fill="white" fill-opacity="0.85"/>
<path d="M1.50003 20.4309C1.50487 21.2906 2.10616 21.8456 3.0366 21.8456H11.4655C12.3984 21.8456 12.9972 21.2906 13.0045 20.4309C13.0093 19.5677 12.408 19.003 11.4655 19.003H9.11624V9.38513C9.11624 8.46787 8.52461 7.88705 7.63183 7.88705H3.40824C2.47673 7.88705 1.86441 8.44075 1.86925 9.30396C1.87651 10.1747 2.48641 10.7321 3.40824 10.7321H6.02372V19.003H3.0366C2.09648 19.003 1.49519 19.5677 1.50003 20.4309ZM4.93623 2.74267C4.93623 3.94176 5.89115 4.8991 7.08781 4.8991C8.30035 4.8991 9.22839 3.94176 9.22839 2.74267C9.22839 1.53255 8.30035 0.577637 7.08781 0.577637C5.89115 0.577637 4.93623 1.53255 4.93623 2.74267Z" fill="url(#paint0_linear_242_1960)"/>
<defs>
<linearGradient id="paint0_linear_242_1960" x1="7.25225" y1="0.577637" x2="7.25225" y2="21.8456" gradientUnits="userSpaceOnUse">
<stop stop-color="#F1C4E2"/>
<stop offset="1" stop-color="#AF809F"/>
</linearGradient>
</defs>
</svg>
