<svg width="22" height="22" viewBox="0 0 22 22" fill="none" xmlns="http://www.w3.org/2000/svg">
<path d="M11.5225 6.81302L9.91269 8.42991C10.9837 8.53938 11.7973 8.90442 12.3554 9.46256C13.9655 11.0696 13.962 13.3275 12.3712 14.9182L9.11514 18.1647C7.5147 19.762 5.27308 19.7655 3.66915 18.1651C2.05906 16.5515 2.06258 14.3098 3.65992 12.7094L5.14091 11.2315C4.80231 10.465 4.67613 9.49327 4.89639 8.65827L2.16573 11.37C-0.254324 13.7813 -0.255216 17.2186 2.1754 19.6491C4.61569 22.0925 8.04371 22.0793 10.4545 19.6685L13.8619 16.2576C16.2793 13.8402 16.2894 10.4091 13.8491 7.97848C13.3165 7.44279 12.5579 7.01355 11.5225 6.81302ZM10.2038 15.1054L11.8137 13.4884C10.7427 13.3855 9.92908 13.017 9.37095 12.4588C7.76392 10.8488 7.76437 8.59393 9.35817 7.0032L12.6077 3.75679C14.2116 2.15638 16.4532 2.15286 18.0603 3.75987C19.6673 5.36688 19.6571 7.6182 18.0664 9.20893L16.5885 10.6869C16.924 11.463 17.0436 12.4251 16.833 13.2632L19.5637 10.5483C21.9807 8.13705 21.9846 4.70642 19.554 2.2692C17.1107 -0.17109 13.6826 -0.157894 11.2652 2.25953L7.8675 5.66074C5.4501 8.07815 5.44 11.5092 7.87721 13.9399C8.41291 14.4755 9.16844 14.9048 10.2038 15.1054Z" fill="white" fill-opacity="0.85"/>
<path d="M11.5225 6.81302L9.91269 8.42991C10.9837 8.53938 11.7973 8.90442 12.3554 9.46256C13.9655 11.0696 13.962 13.3275 12.3712 14.9182L9.11514 18.1647C7.5147 19.762 5.27308 19.7655 3.66915 18.1651C2.05906 16.5515 2.06258 14.3098 3.65992 12.7094L5.14091 11.2315C4.80231 10.465 4.67613 9.49327 4.89639 8.65827L2.16573 11.37C-0.254324 13.7813 -0.255216 17.2186 2.1754 19.6491C4.61569 22.0925 8.04371 22.0793 10.4545 19.6685L13.8619 16.2576C16.2793 13.8402 16.2894 10.4091 13.8491 7.97848C13.3165 7.44279 12.5579 7.01355 11.5225 6.81302ZM10.2038 15.1054L11.8137 13.4884C10.7427 13.3855 9.92908 13.017 9.37095 12.4588C7.76392 10.8488 7.76437 8.59393 9.35817 7.0032L12.6077 3.75679C14.2116 2.15638 16.4532 2.15286 18.0603 3.75987C19.6673 5.36688 19.6571 7.6182 18.0664 9.20893L16.5885 10.6869C16.924 11.463 17.0436 12.4251 16.833 13.2632L19.5637 10.5483C21.9807 8.13705 21.9846 4.70642 19.554 2.2692C17.1107 -0.17109 13.6826 -0.157894 11.2652 2.25953L7.8675 5.66074C5.4501 8.07815 5.44 11.5092 7.87721 13.9399C8.41291 14.4755 9.16844 14.9048 10.2038 15.1054Z" fill="url(#paint0_linear_816_1276)"/>
<defs>
<linearGradient id="paint0_linear_816_1276" x1="10.8641" y1="0.442722" x2="10.8641" y2="21.4792" gradientUnits="userSpaceOnUse">
<stop stop-color="#F1C4E2"/>
<stop offset="1" stop-color="#AF809F"/>
</linearGradient>
</defs>
</svg>
