<svg width="22" height="22" viewBox="0 0 22 22" fill="none" xmlns="http://www.w3.org/2000/svg">
<path d="M0.303223 11.0776C0.303223 11.9747 1.03875 12.7055 1.93114 12.7055H9.37612V20.1505C9.37612 21.0389 10.103 21.7744 11 21.7744C11.897 21.7744 12.6365 21.0389 12.6365 20.1505V12.7055H20.0729C20.9612 12.7055 21.6968 11.9747 21.6968 11.0776C21.6968 10.1806 20.9612 9.44107 20.0729 9.44107H12.6365V2.00878C12.6365 1.11639 11.897 0.380859 11 0.380859C10.103 0.380859 9.37612 1.11639 9.37612 2.00878V9.44107H1.93114C1.03875 9.44107 0.303223 10.1806 0.303223 11.0776Z" fill="url(#paint0_linear_273_6037)"/>
<defs>
<linearGradient id="paint0_linear_273_6037" x1="11" y1="0.380859" x2="11" y2="21.7744" gradientUnits="userSpaceOnUse">
<stop stop-color="#F1C4E2"/>
<stop offset="1" stop-color="#AF809F"/>
</linearGradient>
</defs>
</svg>
