<svg width="22" height="24" viewBox="0 0 22 24" fill="none" xmlns="http://www.w3.org/2000/svg">
<path d="M2.44075 23.4991H18.8626C20.3897 23.4991 21.2971 22.7606 21.2971 21.5339C21.2971 18.3297 17.1416 13.9489 10.6454 13.9489C4.1618 13.9489 0 18.3297 0 21.5339C0 22.7606 0.913717 23.4991 2.44075 23.4991ZM10.6517 11.7584C13.4679 11.7584 15.7773 9.29266 15.7773 6.14469C15.7773 3.09688 13.4492 0.656128 10.6517 0.656128C7.85424 0.656128 5.53237 3.12192 5.53237 6.16347C5.53237 9.29266 7.83547 11.7584 10.6517 11.7584Z" fill="#220F1C"/>
<path d="M2.44075 23.4991H18.8626C20.3897 23.4991 21.2971 22.7606 21.2971 21.5339C21.2971 18.3297 17.1416 13.9489 10.6454 13.9489C4.1618 13.9489 0 18.3297 0 21.5339C0 22.7606 0.913717 23.4991 2.44075 23.4991ZM10.6517 11.7584C13.4679 11.7584 15.7773 9.29266 15.7773 6.14469C15.7773 3.09688 13.4492 0.656128 10.6517 0.656128C7.85424 0.656128 5.53237 3.12192 5.53237 6.16347C5.53237 9.29266 7.83547 11.7584 10.6517 11.7584Z" fill="url(#paint0_linear_57_983)"/>
<defs>
<linearGradient id="paint0_linear_57_983" x1="10.6486" y1="0.656128" x2="10.6486" y2="23.4991" gradientUnits="userSpaceOnUse">
<stop stop-color="#F1C4E2"/>
<stop offset="1" stop-color="#AF809F"/>
</linearGradient>
</defs>
</svg>
