<svg width="26" height="27" viewBox="0 0 26 27" fill="none" xmlns="http://www.w3.org/2000/svg">
<path d="M2.44075 23.4991H18.8626C20.3897 23.4991 21.2971 22.7606 21.2971 21.5339C21.2971 18.3297 17.1416 13.9489 10.6454 13.9489C4.1618 13.9489 0 18.3297 0 21.5339C0 22.7606 0.913717 23.4991 2.44075 23.4991ZM10.6517 11.7584C13.4679 11.7584 15.7773 9.29266 15.7773 6.14469C15.7773 3.09688 13.4492 0.656128 10.6517 0.656128C7.85424 0.656128 5.53237 3.12192 5.53237 6.16347C5.53237 9.29266 7.83547 11.7584 10.6517 11.7584Z" fill="#220F1C"/>
<path d="M2.44075 23.4991H18.8626C20.3897 23.4991 21.2971 22.7606 21.2971 21.5339C21.2971 18.3297 17.1416 13.9489 10.6454 13.9489C4.1618 13.9489 0 18.3297 0 21.5339C0 22.7606 0.913717 23.4991 2.44075 23.4991ZM10.6517 11.7584C13.4679 11.7584 15.7773 9.29266 15.7773 6.14469C15.7773 3.09688 13.4492 0.656128 10.6517 0.656128C7.85424 0.656128 5.53237 3.12192 5.53237 6.16347C5.53237 9.29266 7.83547 11.7584 10.6517 11.7584Z" fill="url(#paint0_linear_268_3698)"/>
<path d="M19.1941 24.2051L19.1983 24.1987L19.2023 24.1924L23.7804 17.0329C23.7809 17.0322 23.7813 17.0316 23.7817 17.0309C23.9477 16.7737 24.1937 16.3257 24.1937 15.7998C24.1937 14.6052 23.1429 13.9545 22.2646 13.9545C21.5299 13.9545 20.9633 14.3806 20.6194 14.9469L17.3248 20.222L16.3065 18.9292C16.1206 18.6836 15.8919 18.4657 15.6017 18.3147C15.302 18.1586 14.9998 18.1068 14.7225 18.1068C13.6578 18.1068 12.8223 18.9656 12.8223 20.0183C12.8223 20.5347 13.0285 20.9743 13.2949 21.3203L13.3044 21.3327L13.3143 21.3447L15.7357 24.2953L15.7373 24.2973C16.1545 24.8031 16.708 25.1653 17.4548 25.1653C18.2034 25.1653 18.8126 24.7821 19.1941 24.2051Z" fill="url(#paint1_linear_268_3698)"/>
<path d="M19.1941 24.2051L19.1983 24.1987L19.2023 24.1924L23.7804 17.0329C23.7809 17.0322 23.7813 17.0316 23.7817 17.0309C23.9477 16.7737 24.1937 16.3257 24.1937 15.7998C24.1937 14.6052 23.1429 13.9545 22.2646 13.9545C21.5299 13.9545 20.9633 14.3806 20.6194 14.9469L17.3248 20.222L16.3065 18.9292C16.1206 18.6836 15.8919 18.4657 15.6017 18.3147C15.302 18.1586 14.9998 18.1068 14.7225 18.1068C13.6578 18.1068 12.8223 18.9656 12.8223 20.0183C12.8223 20.5347 13.0285 20.9743 13.2949 21.3203L13.3044 21.3327L13.3143 21.3447L15.7357 24.2953L15.7373 24.2973C16.1545 24.8031 16.708 25.1653 17.4548 25.1653C18.2034 25.1653 18.8126 24.7821 19.1941 24.2051Z" fill="url(#paint2_linear_268_3698)"/>
<path d="M19.1941 24.2051L19.1983 24.1987L19.2023 24.1924L23.7804 17.0329C23.7809 17.0322 23.7813 17.0316 23.7817 17.0309C23.9477 16.7737 24.1937 16.3257 24.1937 15.7998C24.1937 14.6052 23.1429 13.9545 22.2646 13.9545C21.5299 13.9545 20.9633 14.3806 20.6194 14.9469L17.3248 20.222L16.3065 18.9292C16.1206 18.6836 15.8919 18.4657 15.6017 18.3147C15.302 18.1586 14.9998 18.1068 14.7225 18.1068C13.6578 18.1068 12.8223 18.9656 12.8223 20.0183C12.8223 20.5347 13.0285 20.9743 13.2949 21.3203L13.3044 21.3327L13.3143 21.3447L15.7357 24.2953L15.7373 24.2973C16.1545 24.8031 16.708 25.1653 17.4548 25.1653C18.2034 25.1653 18.8126 24.7821 19.1941 24.2051Z" stroke="url(#paint3_linear_268_3698)" stroke-width="2"/>
<defs>
<linearGradient id="paint0_linear_268_3698" x1="10.6486" y1="0.656128" x2="10.6486" y2="23.4991" gradientUnits="userSpaceOnUse">
<stop stop-color="#F1C4E2"/>
<stop offset="1" stop-color="#AF809F"/>
</linearGradient>
<linearGradient id="paint1_linear_268_3698" x1="18.508" y1="14.9545" x2="18.508" y2="24.1653" gradientUnits="userSpaceOnUse">
<stop stop-color="#F1C4E2"/>
<stop offset="1" stop-color="#AF809F"/>
</linearGradient>
<linearGradient id="paint2_linear_268_3698" x1="18.508" y1="24.1653" x2="18.508" y2="14.9545" gradientUnits="userSpaceOnUse">
<stop stop-color="#93DBFF"/>
<stop offset="0.679984" stop-color="#5DC7FC"/>
</linearGradient>
<linearGradient id="paint3_linear_268_3698" x1="18.508" y1="14.9545" x2="18.508" y2="24.1653" gradientUnits="userSpaceOnUse">
<stop stop-color="#633C55"/>
<stop offset="1" stop-color="#56324A"/>
</linearGradient>
</defs>
</svg>
