<svg width="24" height="24" viewBox="0 0 24 24" fill="none" xmlns="http://www.w3.org/2000/svg">
<path d="M12 23.8889C12.513 23.8889 12.9304 23.5135 13.01 22.9648C14.0569 15.0687 15.1643 13.9472 22.8592 13.0919C23.4155 13.0339 23.8188 12.6101 23.8188 12.0776C23.8188 11.5429 23.4176 11.1235 22.8614 11.0515C15.1749 10.1717 14.0931 9.08228 13.01 1.17854C12.924 0.632036 12.5109 0.266357 12 0.266357C11.4847 0.266357 11.0696 0.632036 10.9857 1.18067C9.94311 9.08441 8.83564 10.2058 1.14287 11.0515C0.582379 11.1213 0.181152 11.5408 0.181152 12.0776C0.181152 12.6101 0.578113 13.0296 1.1386 13.0919C8.82714 14.1217 9.84859 15.0827 10.9857 22.967C11.0759 23.5156 11.4912 23.8889 12 23.8889Z" fill="white" fill-opacity="0.85"/>
<path d="M12 23.8889C12.513 23.8889 12.9304 23.5135 13.01 22.9648C14.0569 15.0687 15.1643 13.9472 22.8592 13.0919C23.4155 13.0339 23.8188 12.6101 23.8188 12.0776C23.8188 11.5429 23.4176 11.1235 22.8614 11.0515C15.1749 10.1717 14.0931 9.08228 13.01 1.17854C12.924 0.632036 12.5109 0.266357 12 0.266357C11.4847 0.266357 11.0696 0.632036 10.9857 1.18067C9.94311 9.08441 8.83564 10.2058 1.14287 11.0515C0.582379 11.1213 0.181152 11.5408 0.181152 12.0776C0.181152 12.6101 0.578113 13.0296 1.1386 13.0919C8.82714 14.1217 9.84859 15.0827 10.9857 22.967C11.0759 23.5156 11.4912 23.8889 12 23.8889Z" fill="url(#paint0_linear_248_2750)"/>
<defs>
<linearGradient id="paint0_linear_248_2750" x1="12" y1="0.266357" x2="12" y2="23.8888" gradientUnits="userSpaceOnUse">
<stop stop-color="#F1C4E2"/>
<stop offset="1" stop-color="#AF809F"/>
</linearGradient>
</defs>
</svg>
