<svg width="25" height="24" viewBox="0 0 25 24" fill="none" xmlns="http://www.w3.org/2000/svg">
<path fill-rule="evenodd" clip-rule="evenodd" d="M1.91484 11.5184C8.46454 8.67399 12.8248 6.78393 15.0142 5.86697C21.2458 3.26581 22.5557 2.81669 23.3979 2.79797C23.585 2.79797 23.9967 2.8354 24.2774 3.05996C24.5019 3.2471 24.5581 3.49037 24.5955 3.67751C24.6329 3.86464 24.6704 4.25762 24.6329 4.55704C24.2961 8.11259 22.8364 16.7395 22.0879 20.7067C21.7698 22.3909 21.1522 22.9523 20.5534 23.0085C19.2435 23.1207 18.2517 22.1476 16.9979 21.3243C15.0142 20.033 13.9101 19.2284 11.9827 17.9558C9.75577 16.4962 11.1967 15.6915 12.4692 14.3816C12.8061 14.0447 18.5511 8.80498 18.6634 8.33715C18.6821 8.28101 18.6821 8.05644 18.5511 7.94416C18.4201 7.83188 18.2329 7.86931 18.0832 7.90674C17.8774 7.94416 14.7335 10.0401 8.61425 14.1757C7.716 14.7933 6.91133 15.0927 6.1815 15.074C5.37683 15.0553 3.84233 14.6249 2.68209 14.2506C1.27859 13.8015 0.155782 13.5582 0.249349 12.7722C0.305489 12.3605 0.866892 11.9488 1.91484 11.5184Z" fill="#563A4A"/>
<path fill-rule="evenodd" clip-rule="evenodd" d="M1.91484 11.5184C8.46454 8.67399 12.8248 6.78393 15.0142 5.86697C21.2458 3.26581 22.5557 2.81669 23.3979 2.79797C23.585 2.79797 23.9967 2.8354 24.2774 3.05996C24.5019 3.2471 24.5581 3.49037 24.5955 3.67751C24.6329 3.86464 24.6704 4.25762 24.6329 4.55704C24.2961 8.11259 22.8364 16.7395 22.0879 20.7067C21.7698 22.3909 21.1522 22.9523 20.5534 23.0085C19.2435 23.1207 18.2517 22.1476 16.9979 21.3243C15.0142 20.033 13.9101 19.2284 11.9827 17.9558C9.75577 16.4962 11.1967 15.6915 12.4692 14.3816C12.8061 14.0447 18.5511 8.80498 18.6634 8.33715C18.6821 8.28101 18.6821 8.05644 18.5511 7.94416C18.4201 7.83188 18.2329 7.86931 18.0832 7.90674C17.8774 7.94416 14.7335 10.0401 8.61425 14.1757C7.716 14.7933 6.91133 15.0927 6.1815 15.074C5.37683 15.0553 3.84233 14.6249 2.68209 14.2506C1.27859 13.8015 0.155782 13.5582 0.249349 12.7722C0.305489 12.3605 0.866892 11.9488 1.91484 11.5184Z" fill="url(#paint0_linear_57_980)"/>
<path fill-rule="evenodd" clip-rule="evenodd" d="M1.91484 11.5184C8.46454 8.67399 12.8248 6.78393 15.0142 5.86697C21.2458 3.26581 22.5557 2.81669 23.3979 2.79797C23.585 2.79797 23.9967 2.8354 24.2774 3.05996C24.5019 3.2471 24.5581 3.49037 24.5955 3.67751C24.6329 3.86464 24.6704 4.25762 24.6329 4.55704C24.2961 8.11259 22.8364 16.7395 22.0879 20.7067C21.7698 22.3909 21.1522 22.9523 20.5534 23.0085C19.2435 23.1207 18.2517 22.1476 16.9979 21.3243C15.0142 20.033 13.9101 19.2284 11.9827 17.9558C9.75577 16.4962 11.1967 15.6915 12.4692 14.3816C12.8061 14.0447 18.5511 8.80498 18.6634 8.33715C18.6821 8.28101 18.6821 8.05644 18.5511 7.94416C18.4201 7.83188 18.2329 7.86931 18.0832 7.90674C17.8774 7.94416 14.7335 10.0401 8.61425 14.1757C7.716 14.7933 6.91133 15.0927 6.1815 15.074C5.37683 15.0553 3.84233 14.6249 2.68209 14.2506C1.27859 13.8015 0.155782 13.5582 0.249349 12.7722C0.305489 12.3605 0.866892 11.9488 1.91484 11.5184Z" fill="url(#paint1_linear_57_980)"/>
<defs>
<linearGradient id="paint0_linear_57_980" x1="13.1121" y1="3.75719" x2="18.1739" y2="23.6305" gradientUnits="userSpaceOnUse">
<stop stop-color="#BFADB9"/>
<stop offset="0.604224" stop-color="white"/>
<stop offset="1" stop-color="#BFADB9"/>
</linearGradient>
<linearGradient id="paint1_linear_57_980" x1="12.4462" y1="2.79797" x2="12.4462" y2="23.0174" gradientUnits="userSpaceOnUse">
<stop stop-color="#F1C4E2"/>
<stop offset="1" stop-color="#AF809F"/>
</linearGradient>
</defs>
</svg>
