<svg width="24" height="24" viewBox="0 0 24 24" fill="none" xmlns="http://www.w3.org/2000/svg">
<path d="M7.32377 10.2813L11.2292 20.7644C11.5455 21.634 11.087 22.4404 10.1541 22.4404C9.5532 22.4404 9.18955 22.1084 8.95243 21.4442L7.98784 18.6614H3.3393L2.37479 21.4442C2.15338 22.1084 1.77394 22.4404 1.17309 22.4404C0.256025 22.4404 -0.218374 21.634 0.0978385 20.7644L3.98751 10.2813C4.27215 9.5065 4.85721 9.07959 5.64774 9.07959C6.46993 9.07959 7.03921 9.5065 7.32377 10.2813ZM3.98751 16.7166H7.32377L5.65568 11.8512L3.98751 16.7166Z" fill="white"/>
<path d="M7.32377 10.2813L11.2292 20.7644C11.5455 21.634 11.087 22.4404 10.1541 22.4404C9.5532 22.4404 9.18955 22.1084 8.95243 21.4442L7.98784 18.6614H3.3393L2.37479 21.4442C2.15338 22.1084 1.77394 22.4404 1.17309 22.4404C0.256025 22.4404 -0.218374 21.634 0.0978385 20.7644L3.98751 10.2813C4.27215 9.5065 4.85721 9.07959 5.64774 9.07959C6.46993 9.07959 7.03921 9.5065 7.32377 10.2813ZM3.98751 16.7166H7.32377L5.65568 11.8512L3.98751 16.7166Z" fill="url(#paint0_linear_242_1969)"/>
<path fill-rule="evenodd" clip-rule="evenodd" d="M12.4512 4.90145C11.8029 4.90145 11.3286 5.34412 11.3286 5.94497C11.3286 6.56161 11.8029 7.02014 12.4512 7.02014H13.6529C14.0798 8.56971 14.8862 10.0402 15.993 11.2735C14.9179 11.9851 13.6687 12.5068 12.2299 12.8547C11.6133 12.997 11.2496 13.582 11.3761 14.2145C11.5499 14.8469 12.1825 15.1316 12.8623 14.9418C14.5858 14.5623 16.1986 13.835 17.6375 12.7756C19.0131 13.8192 20.6259 14.5465 22.2228 14.926C22.9976 15.1157 23.6458 14.8786 23.8198 14.2145C23.9937 13.5346 23.6775 12.997 22.9976 12.8547C21.5587 12.5226 20.3254 12.0009 19.2186 11.2735C20.3412 10.0718 21.1318 8.61715 21.5587 7.02014H22.7762C23.4245 7.02014 23.8989 6.56161 23.8989 5.94497C23.8989 5.34412 23.4245 4.90145 22.7762 4.90145H12.4512ZM15.8824 7.02014C16.246 8.07952 16.8627 9.07568 17.6375 9.92952C18.3964 9.0599 18.9814 8.06374 19.3451 7.02014H15.8824Z" fill="white"/>
<path fill-rule="evenodd" clip-rule="evenodd" d="M12.4512 4.90145C11.8029 4.90145 11.3286 5.34412 11.3286 5.94497C11.3286 6.56161 11.8029 7.02014 12.4512 7.02014H13.6529C14.0798 8.56971 14.8862 10.0402 15.993 11.2735C14.9179 11.9851 13.6687 12.5068 12.2299 12.8547C11.6133 12.997 11.2496 13.582 11.3761 14.2145C11.5499 14.8469 12.1825 15.1316 12.8623 14.9418C14.5858 14.5623 16.1986 13.835 17.6375 12.7756C19.0131 13.8192 20.6259 14.5465 22.2228 14.926C22.9976 15.1157 23.6458 14.8786 23.8198 14.2145C23.9937 13.5346 23.6775 12.997 22.9976 12.8547C21.5587 12.5226 20.3254 12.0009 19.2186 11.2735C20.3412 10.0718 21.1318 8.61715 21.5587 7.02014H22.7762C23.4245 7.02014 23.8989 6.56161 23.8989 5.94497C23.8989 5.34412 23.4245 4.90145 22.7762 4.90145H12.4512ZM15.8824 7.02014C16.246 8.07952 16.8627 9.07568 17.6375 9.92952C18.3964 9.0599 18.9814 8.06374 19.3451 7.02014H15.8824Z" fill="url(#paint1_linear_242_1969)"/>
<path d="M16.0563 0.711358C15.5187 0.964344 15.2815 1.61255 15.5662 2.19762L16.3251 3.79463C16.5781 4.36383 17.2264 4.58516 17.7798 4.34804C18.3648 4.04762 18.602 3.41511 18.3173 2.84591L17.5426 1.26477C17.258 0.663918 16.6255 0.395065 16.0563 0.711358Z" fill="white"/>
<path d="M16.0563 0.711358C15.5187 0.964344 15.2815 1.61255 15.5662 2.19762L16.3251 3.79463C16.5781 4.36383 17.2264 4.58516 17.7798 4.34804C18.3648 4.04762 18.602 3.41511 18.3173 2.84591L17.5426 1.26477C17.258 0.663918 16.6255 0.395065 16.0563 0.711358Z" fill="url(#paint2_linear_242_1969)"/>
<defs>
<linearGradient id="paint0_linear_242_1969" x1="5.66439" y1="9.07959" x2="5.66439" y2="22.4404" gradientUnits="userSpaceOnUse">
<stop stop-color="#F1C4E2"/>
<stop offset="1" stop-color="#AF809F"/>
</linearGradient>
<linearGradient id="paint1_linear_242_1969" x1="17.6138" y1="0.577637" x2="17.6138" y2="14.9998" gradientUnits="userSpaceOnUse">
<stop stop-color="#F1C4E2"/>
<stop offset="1" stop-color="#AF809F"/>
</linearGradient>
<linearGradient id="paint2_linear_242_1969" x1="17.6138" y1="0.577637" x2="17.6138" y2="14.9998" gradientUnits="userSpaceOnUse">
<stop stop-color="#F1C4E2"/>
<stop offset="1" stop-color="#AF809F"/>
</linearGradient>
</defs>
</svg>
