<svg width="28" height="28" viewBox="0 0 28 28" fill="none" xmlns="http://www.w3.org/2000/svg">
<path d="M13.9999 26.7876C17.6652 26.7876 20.6581 21.3687 20.6581 14.104C20.6581 6.79968 17.6784 1.3808 13.9999 1.3808C10.3214 1.3808 7.34161 6.79968 7.34161 14.104C7.34161 21.3687 10.3345 26.7876 13.9999 26.7876ZM13.9999 2.97614C16.584 2.97614 18.8914 8.11818 18.8914 14.104C18.8914 19.9843 16.584 25.1791 13.9999 25.1791C11.4157 25.1791 9.10836 19.9843 9.10836 14.104C9.10836 8.11818 11.4157 2.97614 13.9999 2.97614ZM13.1428 1.56538V26.5371H14.87V1.56538H13.1428ZM13.9999 19.035C9.93895 19.035 6.33957 20.103 4.49372 21.8038L5.82537 22.8981C7.56573 21.5137 10.4004 20.7622 13.9999 20.7622C17.5993 20.7622 20.4339 21.5137 22.1743 22.8981L23.506 21.8038C21.6601 20.103 18.0607 19.035 13.9999 19.035ZM26.1693 13.2074H1.83042V14.9346H26.1693V13.2074ZM13.9999 9.18612C18.0607 9.18612 21.6601 8.11818 23.506 6.41733L22.1743 5.323C20.4339 6.69421 17.5993 7.45893 13.9999 7.45893C10.4004 7.45893 7.56573 6.69421 5.82537 5.323L4.49372 6.41733C6.33957 8.11818 9.93895 9.18612 13.9999 9.18612ZM13.9999 27.526C21.4228 27.526 27.4482 21.5006 27.4482 14.0776C27.4482 6.65465 21.4228 0.629272 13.9999 0.629272C6.57689 0.629272 0.551514 6.65465 0.551514 14.0776C0.551514 21.5006 6.57689 27.526 13.9999 27.526ZM13.9999 25.7328C7.56573 25.7328 2.34463 20.5117 2.34463 14.0776C2.34463 7.64349 7.56573 2.42238 13.9999 2.42238C20.4339 2.42238 25.6551 7.64349 25.6551 14.0776C25.6551 20.5117 20.4339 25.7328 13.9999 25.7328Z" fill="#563A4A"/>
<path d="M13.9999 26.7876C17.6652 26.7876 20.6581 21.3687 20.6581 14.104C20.6581 6.79968 17.6784 1.3808 13.9999 1.3808C10.3214 1.3808 7.34161 6.79968 7.34161 14.104C7.34161 21.3687 10.3345 26.7876 13.9999 26.7876ZM13.9999 2.97614C16.584 2.97614 18.8914 8.11818 18.8914 14.104C18.8914 19.9843 16.584 25.1791 13.9999 25.1791C11.4157 25.1791 9.10836 19.9843 9.10836 14.104C9.10836 8.11818 11.4157 2.97614 13.9999 2.97614ZM13.1428 1.56538V26.5371H14.87V1.56538H13.1428ZM13.9999 19.035C9.93895 19.035 6.33957 20.103 4.49372 21.8038L5.82537 22.8981C7.56573 21.5137 10.4004 20.7622 13.9999 20.7622C17.5993 20.7622 20.4339 21.5137 22.1743 22.8981L23.506 21.8038C21.6601 20.103 18.0607 19.035 13.9999 19.035ZM26.1693 13.2074H1.83042V14.9346H26.1693V13.2074ZM13.9999 9.18612C18.0607 9.18612 21.6601 8.11818 23.506 6.41733L22.1743 5.323C20.4339 6.69421 17.5993 7.45893 13.9999 7.45893C10.4004 7.45893 7.56573 6.69421 5.82537 5.323L4.49372 6.41733C6.33957 8.11818 9.93895 9.18612 13.9999 9.18612ZM13.9999 27.526C21.4228 27.526 27.4482 21.5006 27.4482 14.0776C27.4482 6.65465 21.4228 0.629272 13.9999 0.629272C6.57689 0.629272 0.551514 6.65465 0.551514 14.0776C0.551514 21.5006 6.57689 27.526 13.9999 27.526ZM13.9999 25.7328C7.56573 25.7328 2.34463 20.5117 2.34463 14.0776C2.34463 7.64349 7.56573 2.42238 13.9999 2.42238C20.4339 2.42238 25.6551 7.64349 25.6551 14.0776C25.6551 20.5117 20.4339 25.7328 13.9999 25.7328Z" fill="url(#paint0_linear_57_977)"/>
<path d="M13.9999 26.7876C17.6652 26.7876 20.6581 21.3687 20.6581 14.104C20.6581 6.79968 17.6784 1.3808 13.9999 1.3808C10.3214 1.3808 7.34161 6.79968 7.34161 14.104C7.34161 21.3687 10.3345 26.7876 13.9999 26.7876ZM13.9999 2.97614C16.584 2.97614 18.8914 8.11818 18.8914 14.104C18.8914 19.9843 16.584 25.1791 13.9999 25.1791C11.4157 25.1791 9.10836 19.9843 9.10836 14.104C9.10836 8.11818 11.4157 2.97614 13.9999 2.97614ZM13.1428 1.56538V26.5371H14.87V1.56538H13.1428ZM13.9999 19.035C9.93895 19.035 6.33957 20.103 4.49372 21.8038L5.82537 22.8981C7.56573 21.5137 10.4004 20.7622 13.9999 20.7622C17.5993 20.7622 20.4339 21.5137 22.1743 22.8981L23.506 21.8038C21.6601 20.103 18.0607 19.035 13.9999 19.035ZM26.1693 13.2074H1.83042V14.9346H26.1693V13.2074ZM13.9999 9.18612C18.0607 9.18612 21.6601 8.11818 23.506 6.41733L22.1743 5.323C20.4339 6.69421 17.5993 7.45893 13.9999 7.45893C10.4004 7.45893 7.56573 6.69421 5.82537 5.323L4.49372 6.41733C6.33957 8.11818 9.93895 9.18612 13.9999 9.18612ZM13.9999 27.526C21.4228 27.526 27.4482 21.5006 27.4482 14.0776C27.4482 6.65465 21.4228 0.629272 13.9999 0.629272C6.57689 0.629272 0.551514 6.65465 0.551514 14.0776C0.551514 21.5006 6.57689 27.526 13.9999 27.526ZM13.9999 25.7328C7.56573 25.7328 2.34463 20.5117 2.34463 14.0776C2.34463 7.64349 7.56573 2.42238 13.9999 2.42238C20.4339 2.42238 25.6551 7.64349 25.6551 14.0776C25.6551 20.5117 20.4339 25.7328 13.9999 25.7328Z" fill="url(#paint1_linear_57_977)"/>
<defs>
<linearGradient id="paint0_linear_57_977" x1="14.7338" y1="1.90526" x2="22.6409" y2="27.6257" gradientUnits="userSpaceOnUse">
<stop stop-color="#BFADB9"/>
<stop offset="0.604224" stop-color="white"/>
<stop offset="1" stop-color="#BFADB9"/>
</linearGradient>
<linearGradient id="paint1_linear_57_977" x1="13.9999" y1="0.629272" x2="13.9999" y2="27.526" gradientUnits="userSpaceOnUse">
<stop stop-color="#F1C4E2"/>
<stop offset="1" stop-color="#AF809F"/>
</linearGradient>
</defs>
</svg>
