<svg width="183" height="130" viewBox="0 0 183 130" fill="none" xmlns="http://www.w3.org/2000/svg">
<g opacity="0.05">
<path d="M46.7588 125.184L160.92 98.8277C174.777 95.6285 180.071 87.2472 176.933 73.6537L158.316 -6.98477C155.177 -20.5785 146.73 -25.8569 132.872 -22.6576L18.7117 3.69848C4.92004 6.88253 -0.424378 15.345 2.71398 28.9387L21.3308 109.577C24.4691 123.171 32.9671 128.368 46.7588 125.184ZM44.438 114.529C37.8391 116.053 33.4023 113.393 31.8179 106.53L13.4753 27.0798C11.8909 20.217 14.6976 15.8157 21.2965 14.2922L135.193 -12.0029C141.726 -13.5112 146.244 -10.8009 147.829 -3.9381L166.171 75.5125C167.756 82.3751 164.868 86.7259 158.335 88.2341L44.438 114.529Z" fill="#FFA4E2"/>
<path d="M100.369 25.9245L136.399 17.6063C138.709 17.073 140.079 14.8799 139.546 12.5702C139.028 10.3267 136.835 8.95629 134.526 9.48951L98.4955 17.8077C96.12 18.3561 94.7494 20.5492 95.2674 22.7927C95.8006 25.1024 97.9939 26.4729 100.369 25.9245ZM106.341 51.7919L142.371 43.4737C144.681 42.9405 146.036 40.6814 145.503 38.3721C144.985 36.1284 142.807 34.824 140.498 35.3572L104.468 43.6754C102.092 44.2239 100.706 46.3509 101.224 48.5947C101.757 50.9039 103.966 52.3403 106.341 51.7919ZM112.298 77.5935L148.328 69.2753C150.638 68.7421 152.023 66.6151 151.505 64.3717C150.972 62.0621 148.764 60.6256 146.454 61.1588L110.424 69.477C108.049 70.0254 106.693 72.2846 107.227 74.5942C107.745 76.8376 109.923 78.1419 112.298 77.5935ZM43.5378 93.468L95.0752 81.5697C97.2527 81.067 97.9734 79.3714 97.5164 77.3919C96.0844 71.1891 83.0931 57.3677 63.3623 61.9229C43.6317 66.4781 38.0801 84.5804 39.5122 90.7832C39.9692 92.7628 41.3602 93.9708 43.5378 93.468ZM62.2958 57.3037C70.362 55.5112 75.1936 47.2363 73.1065 38.1961C71.1565 29.7496 63.1407 24.2323 55.0898 26.091C47.1054 27.9344 42.2533 36.4224 44.2034 44.869C46.2905 53.9092 54.3114 59.147 62.2958 57.3037Z" fill="#FFA4E2"/>
</g>
</svg>
