<svg width="130" height="130" viewBox="0 0 130 130" fill="none" xmlns="http://www.w3.org/2000/svg">
<circle cx="51.485" cy="51.7091" r="61.1049" transform="rotate(-13 51.485 51.7091)" fill="#392633" fill-opacity="0.25" stroke="#3E2636" stroke-width="8"/>
<path d="M89.5142 73.8743C89.2679 74.2488 89.0269 74.6296 88.7718 74.9985C88.634 75.2043 88.4733 75.3926 88.3231 75.5936C88.2792 75.6492 88.245 75.7138 88.1925 75.7977C89.557 76.6472 90.9692 77.3761 92.3543 78.2171C92.2839 78.256 92.2442 78.2803 92.2055 78.293C92.1417 78.3115 92.0763 78.3229 92.0081 78.3386C78.9633 81.3502 65.9186 84.3618 52.8738 87.3734C48.8319 88.3066 44.7952 89.2461 40.7549 90.1864C39.154 90.5561 37.5519 90.9373 35.9542 91.3212C35.5701 91.4099 35.1891 91.5281 34.8075 91.6276C34.75 91.6408 34.689 91.6549 34.6316 91.6682C34.5634 91.6839 34.512 91.658 34.4919 91.587C34.4811 91.5404 34.4675 91.4981 34.4568 91.4514C34.2742 90.6278 34.0943 89.7997 33.9045 88.9776C33.8258 88.6366 33.8564 88.3271 33.9928 88.0007C34.3981 87.0375 34.6327 86.0229 34.7837 84.9899C35.04 83.218 35.0015 81.446 34.8522 79.6694C34.7355 78.3125 34.5374 76.9631 34.3258 75.6205C34.3227 75.5418 34.3269 75.4615 34.3131 75.3853C34.2929 75.2652 34.2584 75.1484 34.239 75.0318C34.1495 74.5458 34.0843 74.0505 33.9732 73.5695C33.6094 71.9936 33.2923 70.407 32.8539 68.8521C32.7012 68.3051 32.5655 67.7504 32.4227 67.1973C32.4153 67.165 32.4042 67.1335 32.3932 67.102C32.2578 66.6304 32.1197 66.1632 31.9951 65.6891C31.9542 65.5284 31.9277 65.3644 31.8509 65.212C31.8087 65.1272 31.8062 65.0181 31.791 64.9195C31.7705 64.8146 31.7708 64.7011 31.7261 64.6056C31.6581 64.4587 31.5918 64.319 31.62 64.1461C31.628 64.0989 31.6067 64.0395 31.5843 63.9918C31.5101 63.8501 31.5261 63.7065 31.5724 63.5635C31.6561 63.2871 31.7557 63.0145 31.8118 62.7331C31.8521 62.531 31.9451 62.3772 32.0818 62.2322C32.2739 62.0328 32.4192 61.8102 32.4904 61.5291C32.5638 61.2248 32.6676 60.9211 32.8404 60.6543C32.9442 60.498 33.0666 60.3563 33.1651 60.1937C33.3236 59.9303 33.4768 59.6605 33.622 59.3887C33.6858 59.2719 33.7283 59.1449 33.7753 59.0206C33.9274 58.615 34.1157 58.235 34.4928 57.9853C34.5516 57.9453 34.5886 57.8763 34.6317 57.8172C34.6684 57.7633 34.6955 57.7004 34.7358 57.6457C34.9338 57.3731 35.1334 57.1077 35.3313 56.8352C35.4835 56.6261 35.6538 56.4469 35.9084 56.3541C36.0658 56.2989 36.2226 56.2248 36.3513 56.1271C36.6114 55.9271 36.8489 55.6946 37.109 55.4947C37.4008 55.2685 37.7004 55.0594 38.0036 54.8495C38.1438 54.7529 38.2095 54.7755 38.2899 54.9271C38.3046 54.9577 38.3192 54.9884 38.3302 55.0199C38.3963 55.2239 38.4623 55.428 38.5247 55.6329C38.615 55.9258 38.7133 56.2207 38.7965 56.5154C38.8512 56.7031 38.8843 56.8959 38.931 57.0817C38.9484 57.1571 38.9918 57.2303 39.02 57.3031C39.0589 57.4719 39.0979 57.6406 39.1368 57.8093C39.252 58.3082 39.368 58.8108 39.4832 59.3098C39.5006 59.3851 39.5432 59.4547 39.5713 59.5276C39.6592 59.9081 39.7462 60.285 39.834 60.6655C40.0064 61.4122 40.1796 62.1624 40.352 62.9091C40.3694 62.9844 40.4083 63.0548 40.4409 63.1305C40.5586 63.6402 40.6763 64.15 40.794 64.6597C40.8395 64.8571 40.8843 65.051 40.9299 65.2484C40.9605 65.3812 40.9904 65.5104 41.021 65.6433C41.06 65.812 41.0998 65.9843 41.1387 66.153C41.2896 66.8063 41.4404 67.4596 41.5912 68.1129C41.5962 68.1836 41.5904 68.2568 41.6034 68.3294C41.6445 68.5241 41.6929 68.7171 41.7368 68.9073C41.7758 69.0761 41.8147 69.2448 41.8545 69.4171L41.9189 69.8597C41.9921 70.3079 42.0805 70.7563 42.1358 71.2086C42.2137 71.8409 42.28 72.4722 42.3212 73.1092C42.4288 74.7215 42.3569 76.3261 42.1322 77.9244C41.9667 79.1234 41.713 80.3011 41.3757 81.4603C41.066 82.5262 40.7057 83.5698 40.1795 84.5495C39.806 85.2407 39.3979 85.9134 38.8893 86.511C38.3114 87.1851 37.6836 87.8065 36.9392 88.2997C36.8343 88.3693 36.7423 88.4624 36.6531 88.551C36.6167 88.5897 36.5951 88.6438 36.5601 88.7048C36.6178 88.7255 36.6479 88.7413 36.6791 88.7454C36.8575 88.7647 37.0254 88.7222 37.1891 88.6617C37.4716 88.5587 37.7532 88.4521 38.0418 88.359C38.4427 88.2286 38.8555 88.1333 39.2479 87.9822C40.092 87.6588 40.9328 87.321 41.7667 86.9697C42.9788 86.4554 44.1479 85.8528 45.2996 85.2239C45.8331 84.9306 46.3745 84.6393 46.8845 84.3098C47.7606 83.7483 48.6202 83.1642 49.4806 82.5837C50.3056 82.0303 51.1254 81.4705 51.9468 80.9178C52.1467 80.7847 52.3571 80.6643 52.5631 80.5411C52.5882 80.5353 52.6169 80.5287 52.6396 80.5121C53.1639 80.2285 53.6875 79.9413 54.2162 79.6604C54.4219 79.5524 54.6345 79.458 54.8455 79.3563C54.9645 79.2986 55.081 79.2301 55.1992 79.1688C55.2768 79.1282 55.3464 79.1348 55.4232 79.1889C55.5651 79.2961 55.5957 79.2814 55.7197 79.1469C55.8017 79.0599 55.8856 78.9649 55.9903 78.9105C56.1085 78.8492 56.2366 78.7327 56.3816 78.8202C56.531 78.9105 56.6677 78.913 56.8173 78.8406C56.8579 78.8199 56.907 78.8199 56.9545 78.8127C57.1194 78.7898 57.2911 78.7804 57.4474 78.7367C57.5822 78.698 57.6929 78.7027 57.8133 78.7657C57.8699 78.798 57.9417 78.8306 58 78.8209C58.172 78.7963 58.3399 78.7538 58.5105 78.7068C58.7745 78.6383 59.0413 78.5654 59.3036 78.4897C59.4311 78.4527 59.5408 78.4689 59.6327 78.5725C59.7194 78.6697 59.8302 78.6744 59.9478 78.6434C60.0052 78.6302 60.0629 78.6017 60.1187 78.5813C60.2231 78.5421 60.2968 78.5666 60.3568 78.6624C60.4498 78.8035 60.4542 78.8063 60.6152 78.7502C60.7232 78.7102 60.8168 78.7226 60.8969 78.7911C60.977 78.8595 61.059 78.8709 61.1576 78.8557C61.2194 78.8452 61.2879 78.8634 61.3492 78.8832C61.5342 78.9313 61.7173 78.9873 61.9031 79.0389C61.9227 79.042 61.9451 79.0406 61.963 79.0364C62.087 79.0003 62.2011 79.0193 62.3079 79.0892C62.3433 79.1112 62.4038 79.1275 62.4388 79.1157C62.5639 79.0679 62.6755 79.0761 62.7851 79.1416C63.0391 79.0791 63.2808 79.2086 63.5334 79.173C63.5809 79.1658 63.6295 79.147 63.6731 79.1559C63.8609 79.1995 64.0318 79.1373 64.2094 79.1039C64.2812 79.0873 64.3637 79.0683 64.4267 79.0953C64.567 79.1461 64.6846 79.1152 64.8169 79.0657C64.9212 79.0265 65.048 78.9859 65.1449 79.0127C65.3147 79.0604 65.4575 79.0237 65.6141 78.9649C65.7049 78.9325 65.8134 78.9113 65.9043 78.9281C66.0432 78.9565 66.1677 78.9391 66.2997 78.9049C66.3894 78.8842 66.4828 78.8626 66.5755 78.8714C66.8299 78.8921 67.0709 78.7571 67.3261 78.8305C67.3465 78.8371 67.3755 78.8153 67.4042 78.8087C67.4616 78.7954 67.5207 78.7893 67.5826 78.7788C67.7215 78.7581 67.8612 78.741 68.0009 78.7238C68.1442 78.7059 68.2928 78.6943 68.4369 78.6799C68.4888 78.6755 68.5427 78.6631 68.5913 78.6443C68.6694 78.6224 68.7443 78.5863 68.8213 78.576C69.1035 78.5374 69.3838 78.5067 69.6665 78.4376C70.0338 78.3415 70.4151 78.3064 70.7906 78.2462C70.9547 78.2196 71.1195 78.1967 71.2827 78.1666C71.3473 78.1517 71.4119 78.1367 71.4757 78.1182C71.6546 78.058 71.8258 77.9807 72.0072 77.9313C72.1348 77.8942 72.2707 77.8931 72.4032 77.8776C72.4623 77.8716 72.5283 77.879 72.5805 77.8594C72.7837 77.7898 72.98 77.7067 73.1833 77.6371C73.4873 77.5291 73.7921 77.4247 74.0934 77.3211C74.4369 77.204 74.7784 77.0949 75.1211 76.9742C75.4889 76.8477 75.8506 76.7112 76.2184 76.5847C76.5475 76.4709 76.88 76.3715 77.2091 76.2577C77.7666 76.0685 78.3225 75.8721 78.8791 75.6793C79.1903 75.5697 79.4987 75.4644 79.8091 75.3512C80.1617 75.2244 80.5143 75.0976 80.8669 74.9708C81.2726 74.828 81.6746 74.6861 82.0794 74.5397C82.4248 74.4146 82.7694 74.2859 83.1184 74.1599C83.2615 74.108 83.4098 74.0624 83.5572 74.0132C83.7389 73.9486 83.9181 73.8732 84.1034 73.8077C84.3165 73.7321 84.5349 73.6627 84.7525 73.5898C85.0187 73.4981 85.2797 73.4001 85.5467 73.3119C85.8128 73.2202 86.0807 73.1357 86.3485 73.0512C86.7116 72.9371 87.0783 72.8222 87.4423 72.7117C87.7002 72.6333 87.9553 72.5593 88.214 72.4844C88.3883 72.4366 88.5633 72.3924 88.7384 72.3482C89.207 72.2325 89.6747 72.1131 90.145 72.0046C90.3029 71.9681 90.3521 72.0173 90.301 72.1727C90.2099 72.466 90.1152 72.7601 89.9496 73.0252C89.9164 73.0782 89.9142 73.1506 89.8952 73.2154C89.8841 73.2331 89.8759 73.2464 89.8648 73.264C89.7281 73.4582 89.5666 73.6429 89.5123 73.8823L89.5142 73.8743Z" fill="#2E1B28"/>
<path d="M39.0289 57.3086C39.0007 57.2357 38.9609 57.1617 38.9399 57.0872C38.8888 56.8986 38.8593 56.705 38.8054 56.5208C38.7223 56.2262 38.6239 55.9313 38.5336 55.6383C38.4712 55.4335 38.4052 55.2294 38.3392 55.0253C38.3317 54.993 38.3171 54.9624 38.2988 54.9326C38.2193 54.7846 38.1527 54.7583 38.0125 54.855C37.7093 55.0649 37.4061 55.2748 37.1179 55.5001C36.8578 55.7001 36.6239 55.9318 36.3602 56.1326C36.228 56.2311 36.0711 56.3052 35.9173 56.3596C35.6627 56.4524 35.4924 56.6316 35.3403 56.8406C35.1423 57.1132 34.9427 57.3786 34.7447 57.6511C34.7044 57.7058 34.6774 57.7688 34.6406 57.8226C34.5976 57.8817 34.5606 57.9508 34.5018 57.9908C34.1246 58.2405 33.9363 58.6204 33.7842 59.0261C33.7373 59.1504 33.6947 59.2774 33.631 59.3942C33.4857 59.6659 33.3361 59.9349 33.174 60.1992C33.0782 60.3574 32.9523 60.4999 32.8494 60.6598C32.6729 60.9274 32.5727 61.2303 32.4993 61.5346C32.4317 61.8149 32.2829 62.0383 32.0907 62.2377C31.9504 62.3835 31.861 62.5365 31.8207 62.7386C31.7611 63.0208 31.665 63.2925 31.5814 63.569C31.5358 63.7156 31.519 63.8556 31.5933 63.9972C31.6192 64.0442 31.6405 64.1035 31.6289 64.1516C31.5999 64.3209 31.6662 64.4606 31.735 64.6111C31.7797 64.7066 31.783 64.8193 31.7999 64.925C31.8187 65.0228 31.8176 65.1327 31.8599 65.2174C31.9366 65.3699 31.9596 65.5347 32.004 65.6946C32.125 66.1695 32.2667 66.6359 32.4021 67.1075C32.4095 67.1398 32.4206 67.1713 32.4316 67.2028C32.5744 67.7559 32.7057 68.3078 32.8628 68.8576C33.302 70.416 33.6148 71.9999 33.9822 73.5749C34.0932 74.0559 34.162 74.5505 34.2479 75.0373C34.2681 75.1574 34.3026 75.2742 34.322 75.3907C34.3322 75.4678 34.3317 75.5473 34.3347 75.626C34.2924 75.4429 34.2502 75.2599 34.2187 75.0743C33.9402 73.4258 33.5639 71.7961 33.1562 70.1775C32.817 68.8228 32.4427 67.48 32.0684 66.1372C31.7403 64.9615 31.3906 63.7907 31.0345 62.6252C30.639 61.3213 30.2263 60.0252 29.82 58.7238C29.5327 57.8071 29.2499 56.8931 28.959 55.9772C28.6362 54.9553 28.3052 53.9314 27.9788 52.9103C27.7039 52.0474 27.4327 51.1837 27.1579 50.3208C26.8264 49.2782 26.4949 48.2355 26.1643 47.1965C25.9353 46.4667 25.7064 45.7369 25.481 45.0063C25.2133 44.1417 24.9492 43.2764 24.6844 42.4074C24.541 41.9338 24.3968 41.4567 24.2634 40.9771C23.9173 39.7563 23.5756 38.5383 23.2403 37.3151C22.7638 35.5951 22.3475 33.8575 21.9823 32.1118C21.7814 31.16 21.5985 30.204 21.438 29.2467C21.1346 27.4414 20.8967 25.6247 20.8101 23.792C20.7949 23.4969 20.7833 23.2008 20.7761 22.9076C20.7728 22.8441 20.7545 22.7651 20.8338 22.7317C20.9158 22.6939 21.0061 22.6919 21.0801 22.7504C21.1312 22.7916 21.1803 22.8407 21.2259 22.8907C22.6503 24.3767 24.0756 25.8663 25.4973 27.3567C26.7419 28.6536 27.9874 29.9541 29.2284 31.2518C29.4275 31.4591 29.6112 31.6814 29.8111 31.8924C29.8865 31.9733 29.9829 32.0304 30.1 32.1282C30.1254 32.0089 30.1455 31.9324 30.1541 31.8548C30.2653 30.8461 30.4433 29.8484 30.6658 28.8631C31.0552 27.1436 31.5665 25.4603 32.3386 23.8755C32.9772 22.5635 33.7334 21.3189 34.6495 20.1773C34.7583 20.0425 34.8812 19.9688 35.0463 19.9307C36.4463 19.6075 37.8462 19.2842 39.2462 18.961C41.3964 18.4646 43.5502 17.9674 45.7004 17.471C45.7829 17.4519 45.8691 17.432 45.9516 17.413C45.9577 17.4229 45.9682 17.4356 45.9743 17.4455C45.9072 17.548 45.8365 17.6513 45.7686 17.7501C45.7136 17.7742 45.649 17.7891 45.6046 17.8258C45.3679 18.0128 45.1261 18.1934 44.9052 18.3994C44.1986 19.073 43.6337 19.8688 43.0575 20.6484C42.8449 20.9395 42.6376 21.2369 42.4302 21.5343C42.1008 22.0073 41.7574 22.4685 41.4509 22.9589C40.8454 23.923 40.2099 24.8713 39.6839 25.885C39.608 26.0311 39.5161 26.1733 39.4322 26.3175C39.3872 26.3846 39.3289 26.4434 39.2963 26.5152C39.0724 26.9866 38.8369 27.4568 38.6343 27.9384C38.4065 28.475 38.2044 29.0245 38.0015 29.5704C37.6802 30.4386 37.4166 31.3275 37.1966 32.2252C37.0221 32.9272 36.8645 33.6366 36.7417 34.3493C36.583 35.2669 36.4448 36.1911 36.3325 37.1131C36.1887 38.2919 36.1378 39.4796 36.1395 40.6664C36.1387 41.2035 36.1532 41.7408 36.1783 42.2757C36.2254 43.2819 36.3091 44.2835 36.4484 45.2797C36.5202 45.8038 36.5777 46.3312 36.6603 46.8528C36.7372 47.3493 36.8247 47.8433 36.9195 48.3356C37.0247 48.8898 37.13 49.444 37.2596 49.9888C37.5521 51.2068 37.788 52.4416 38.138 53.6464C38.3568 54.3974 38.4731 55.1797 38.7071 55.931C38.8463 56.3866 38.9253 56.8599 39.0322 57.323L39.0289 57.3086Z" fill="#2E1B28"/>
<path d="M39.433 26.306C39.517 26.1618 39.6089 26.0196 39.6848 25.8735C40.2108 24.8598 40.8463 23.9115 41.4518 22.9475C41.7591 22.4606 42.1017 21.9958 42.4311 21.5228C42.6385 21.2254 42.8422 20.9288 43.0584 20.6369C43.6338 19.8537 44.1995 19.0615 44.9061 18.3879C45.1225 18.1791 45.3688 18.0013 45.6054 17.8143C45.6499 17.7776 45.7145 17.7627 45.7695 17.7386C45.7427 17.7864 45.7239 17.8361 45.6883 17.8784C45.2181 18.4293 44.8575 19.0457 44.5588 19.7007C44.0481 20.813 43.5774 21.935 43.2326 23.111C42.8166 24.5191 42.5503 25.9531 42.4496 27.4168C42.3437 28.9726 42.3853 30.5283 42.5091 32.0801C42.607 33.2902 42.7272 34.4988 42.8582 35.7049C42.9351 36.398 43.0414 37.088 43.155 37.7764C43.2912 38.5957 43.4354 39.4169 43.5968 40.2304C43.7423 40.9756 43.8943 41.7156 44.0865 42.4501C44.3111 43.3246 44.5724 44.1944 44.8329 45.0606C45.0453 45.7678 45.2713 46.468 45.5016 47.171C45.6997 47.7832 45.9121 48.3921 46.1101 49.0042C46.3336 49.6937 46.5534 50.384 46.7697 51.0751C46.97 51.7133 47.1675 52.3558 47.3641 52.9948C47.4393 53.2383 47.5144 53.4818 47.5787 53.7279C47.7495 54.369 47.913 55.0119 48.0801 55.6538C48.1787 56.0319 48.2873 56.4038 48.3644 56.7868C48.5644 57.7842 48.7724 58.7835 48.9186 59.7933C49.1819 61.6381 49.295 63.4873 49.2372 65.3496C49.186 67.0439 48.9904 68.7187 48.6476 70.3783C48.2178 72.4474 47.5721 74.4491 46.7718 76.4034C46.7119 76.5533 46.6476 76.7005 46.5913 76.8496C46.5697 76.9037 46.5722 76.9636 46.5623 77.0189C46.5192 77.078 46.4753 77.1335 46.4287 77.1934C46.3765 77.2622 46.3119 77.3262 46.2765 77.4025C45.9414 78.0961 45.6195 78.7981 45.2755 79.4862C45.0455 79.9477 44.8075 80.4072 44.5422 80.8465C44.0695 81.6324 43.5756 82.4081 43.019 83.1416C42.5703 83.7367 42.0935 84.3081 41.5973 84.8612C41.1605 85.3439 40.6588 85.7585 40.1624 86.1793C40.137 86.2003 40.0967 86.2058 40.0266 86.2296C40.0376 86.0645 40.032 85.9259 40.0613 85.7905C40.1046 85.5688 40.1828 85.3504 40.2225 85.1295C40.2802 84.8061 40.4177 84.5173 40.5552 84.2284C40.6722 83.9821 40.8 83.7333 40.8922 83.4776C41.0731 82.967 41.2282 82.4434 41.401 81.9309C41.6693 81.1279 41.8568 80.302 42.0174 79.4747C42.1637 78.6998 42.2655 77.9126 42.3797 77.13C42.5362 76.039 42.5499 74.9356 42.5305 73.836C42.5194 73.2147 42.4699 72.5909 42.4248 71.9699C42.4016 71.6236 42.356 71.2788 42.306 70.9311C42.2441 70.4993 42.1722 70.0735 42.1507 69.6361C42.1404 69.4116 42.0595 69.1921 42.0377 68.9665C42.0122 68.7417 41.9948 68.5189 41.9335 68.3024C41.9269 68.2737 41.9481 68.2347 41.9443 68.2016C41.9321 68.0834 41.9163 67.966 41.9006 67.8487C41.8926 67.7976 41.8837 67.7429 41.8721 67.6927C41.8078 67.4467 41.7362 67.2023 41.7909 66.9477C41.6826 66.7572 41.6577 66.5512 41.6456 66.3347C41.6381 66.2041 41.5931 66.0746 41.5668 65.9445C41.5486 65.8655 41.5304 65.7866 41.5094 65.712C41.437 65.4641 41.4284 65.1976 41.3202 64.9579C41.3108 64.9336 41.3193 64.9052 41.3135 64.8801C41.3061 64.8477 41.3014 64.811 41.284 64.7848C41.1835 64.6605 41.1699 64.52 41.1611 64.367C41.1547 64.274 41.1395 64.1754 41.0981 64.0942C41.0111 63.9139 41.0111 63.7173 40.9895 63.5257C40.9787 63.4298 40.9447 63.3318 40.9025 63.247C40.8489 63.146 40.8194 63.0507 40.8392 62.9403C40.8663 62.779 40.8152 62.6396 40.7373 62.4987C40.6862 62.4085 40.6426 62.3013 40.6381 62.2003C40.6301 62.0509 40.5832 61.9294 40.4959 61.8134C40.4373 61.74 40.3887 61.6604 40.3987 61.5561C40.4199 61.3697 40.3622 61.2015 40.265 61.0425C40.1617 60.8735 40.1015 60.6946 40.0962 60.4916C40.0882 60.1948 39.986 59.9159 39.8774 59.6422C39.8354 59.5423 39.7827 59.4448 39.7703 59.3418C39.7407 59.0991 39.6625 58.8752 39.5692 58.651C39.457 58.3781 39.3916 58.0946 39.3567 57.7963C39.3258 57.5313 39.2465 57.2698 39.1761 57.0138C39.0805 56.6653 38.9634 56.3218 38.8642 55.9742C38.7358 55.5161 38.6217 55.0547 38.4968 54.5958C38.3667 54.1305 38.2088 53.6755 38.1038 53.2044C37.7797 51.7517 37.3839 50.3156 37.1317 48.8463C37.0775 48.5298 36.9795 48.2198 36.9253 47.9033C36.8377 47.4093 36.7717 46.9104 36.6985 46.4131C36.6443 46.0475 36.5794 45.6843 36.5404 45.319C36.4749 44.7405 36.4238 44.1587 36.3726 43.5769C36.2745 42.4804 36.2435 41.3798 36.2544 40.2808C36.2667 38.9584 36.363 37.6393 36.5252 36.3276C36.68 35.082 36.9016 33.8474 37.1945 32.6266C37.3598 31.9343 37.558 31.2533 37.7598 30.5715C38.1548 29.2364 38.6705 27.949 39.2864 26.7028C39.3505 26.5708 39.4021 26.4341 39.4582 26.3002L39.433 26.306Z" fill="#462D3E"/>
<path d="M54.1551 71.1257C54.3663 71.0089 54.5731 70.8893 54.7904 70.7824C55.7905 70.283 56.8376 69.9052 57.8949 69.5552C58.9414 69.2078 59.9978 68.9034 61.0753 68.6735C61.8252 68.5155 62.5724 68.3619 63.3263 68.237C64.2262 68.0898 65.1388 68.0303 66.0525 68.0084C67.4481 67.9774 68.845 68.067 70.2376 68.1047C70.8611 68.1195 71.4843 68.1004 72.1103 68.0769C72.8749 68.0478 73.6387 68.0152 74.403 67.9521C74.9633 67.906 75.5233 67.8258 76.0766 67.717C77.1107 67.5123 78.1398 67.286 79.1648 67.0418C80.4841 66.7297 81.7118 66.2005 82.8441 65.4551C83.4383 65.0646 83.9414 64.5741 84.3417 63.9826C84.4234 63.8617 84.5132 63.7426 84.5905 63.6189C84.6567 63.5129 84.7387 63.4751 84.8616 63.4996C85.1162 63.5543 85.3744 63.6081 85.6318 63.6583C87.0754 63.9338 88.5163 64.2136 89.9619 64.4811C90.4037 64.5605 90.8524 64.6044 91.2964 64.6607C91.6353 64.7035 91.9752 64.7346 92.3168 64.773C92.4176 64.7838 92.4402 64.8163 92.4151 64.9204C92.3977 64.9925 92.3679 65.0599 92.3461 65.1292C92.3102 65.1375 92.261 65.1375 92.24 65.1612C92.0357 65.3899 91.8278 65.6194 91.634 65.8607C91.3013 66.2703 90.9888 66.7016 90.6472 67.1056C90.0911 67.7596 89.521 68.4016 88.9553 69.0465C88.7874 69.2364 88.6159 69.4273 88.4436 69.6145C88.2531 69.8211 88.0739 70.0439 87.8616 70.2215C86.9226 71.0017 85.9783 71.7755 85.0287 72.5429C84.3431 73.0944 83.5965 73.5617 82.8162 73.9649C81.6778 74.5529 80.467 74.9421 79.2316 75.2576C78.7459 75.381 78.2475 75.4659 77.7551 75.5606C77.4475 75.6203 77.1372 75.6844 76.8254 75.7261C76.2279 75.8074 75.6311 75.8922 75.0306 75.9439C74.097 76.0271 73.1606 76.1147 72.2226 76.146C70.6533 76.1945 69.0833 76.1902 67.5159 76.2307C66.6174 76.2528 65.7211 76.301 64.8237 76.3607C64.3432 76.3922 63.863 76.4577 63.3864 76.5224C62.8695 76.5925 62.3531 76.6815 61.8379 76.7589C61.7592 76.7619 61.6788 76.7578 61.6035 76.7752C61.3513 76.8296 61.1009 76.8912 60.8496 76.9492C60.6522 76.9948 60.4584 77.0396 60.2609 77.0851C59.992 77.1321 59.7178 77.1727 59.4522 77.2341C59.1865 77.2954 58.9223 77.3791 58.6599 77.4548C58.5396 77.4901 58.4172 77.5335 58.2968 77.5688C58.0354 77.6481 57.7703 77.7282 57.5071 77.8003C57.4389 77.8161 57.3674 77.8174 57.286 77.8249C57.2685 77.6512 57.181 77.5504 57.0537 77.474C56.9264 77.3975 56.8455 77.2763 56.8446 77.1252C56.8476 76.8107 56.6745 76.552 56.5651 76.2748C56.4908 76.084 56.3679 75.9119 56.3019 75.7079C56.1936 75.3699 56.0403 75.0499 56.0765 74.6824C56.0795 74.6627 56.0745 74.6412 56.0704 74.6233C56.0425 74.3386 56.0146 74.0539 55.9938 73.7675C55.9877 73.7084 56.004 73.648 56.0087 73.5864C56.0485 73.2672 56.0962 72.9499 56.1243 72.6296C56.1508 72.3512 56.1773 72.0729 56.2582 71.8009C56.3192 71.5902 56.3876 71.3627 56.2308 71.1418C56.2029 71.1028 56.2291 70.9871 56.2675 70.9405C56.3914 70.806 56.4188 70.6295 56.4922 70.4727C56.5146 70.4221 56.5085 70.3631 56.5217 70.273C56.414 70.2979 56.3387 70.3153 56.2633 70.3327C56.2058 70.346 56.1526 70.3772 56.0932 70.3984C55.655 70.5639 55.2176 70.7329 54.7794 70.8984C54.5742 70.976 54.3655 71.0544 54.1603 71.132L54.1551 71.1257Z" fill="#462D3E"/>
<path d="M54.1551 71.1256C54.3602 71.048 54.569 70.9696 54.7741 70.892C55.2123 70.7265 55.6497 70.5575 56.0879 70.392C56.1437 70.3716 56.1978 70.344 56.258 70.3263C56.3326 70.3053 56.4088 70.2915 56.5165 70.2666C56.5032 70.3566 56.5101 70.4193 56.4869 70.4663C56.4135 70.6231 56.3898 70.7987 56.2622 70.9341C56.223 70.9771 56.1968 71.0928 56.2255 71.1354C56.3815 71.3527 56.3139 71.5838 56.2529 71.7945C56.172 72.0665 56.1455 72.3448 56.1191 72.6232C56.0873 72.9443 56.0432 73.2608 56.0034 73.58C55.9943 73.6388 55.9825 73.702 55.9886 73.7611C56.0129 74.0466 56.0408 74.3313 56.0651 74.6168C56.0693 74.6348 56.0742 74.6563 56.0712 74.6759C56.0351 75.0435 56.1892 75.3671 56.2966 75.7015C56.3626 75.9055 56.4855 76.0776 56.5598 76.2684C56.6684 76.542 56.8415 76.8007 56.8394 77.1188C56.8402 77.2699 56.9211 77.3911 57.0484 77.4675C57.1757 77.544 57.2633 77.6448 57.2807 77.8185C57.3621 77.811 57.4345 77.8132 57.5019 77.7939C57.765 77.7218 58.0293 77.6381 58.2916 77.5624C58.412 77.5271 58.5343 77.4837 58.6547 77.4483C58.917 77.3727 59.1812 77.289 59.4469 77.2276C59.7125 77.1663 59.9875 77.1293 60.2557 77.0787C60.1944 77.108 60.1375 77.14 60.0737 77.1586C59.7073 77.2583 59.3348 77.348 58.9709 77.4585C58.5188 77.5969 58.0641 77.7397 57.6187 77.9068C56.7801 78.2214 55.9567 78.5854 55.167 79.0135C54.3502 79.4554 53.5542 79.9379 52.7477 80.4077C52.6844 80.4449 52.6325 80.4985 52.579 80.5449C52.3738 80.6717 52.1626 80.7885 51.9627 80.9216C51.1376 81.4751 50.3179 82.0349 49.4964 82.5875C48.6324 83.1688 47.7765 83.7521 46.9004 84.3135C46.3868 84.6438 45.8489 84.9344 45.3155 85.2277C44.1602 85.8574 42.9911 86.46 41.7825 86.9735C40.9495 87.3284 40.1078 87.6626 39.2637 87.986C38.8714 88.1371 38.4586 88.2324 38.0576 88.3627C37.7727 88.455 37.4874 88.5624 37.205 88.6655C37.0376 88.7268 36.8733 88.7685 36.695 88.7492C36.6638 88.745 36.6337 88.7293 36.5759 88.7086C36.611 88.6476 36.6317 88.5899 36.669 88.5548C36.7582 88.4661 36.8501 88.3731 36.955 88.3035C37.6986 87.8066 38.3265 87.1853 38.9052 86.5148C39.4174 85.9164 39.8262 85.2472 40.1954 84.5533C40.7216 83.5735 41.0818 82.53 41.3916 81.4641C41.7281 80.3013 41.9817 79.1235 42.1481 77.9282C42.3691 76.3307 42.4438 74.7217 42.3371 73.1129C42.2967 72.4795 42.226 71.8455 42.1516 71.2123C42.0963 70.76 42.0079 70.3116 41.9347 69.8635C41.9123 69.7174 41.8935 69.5705 41.8703 69.4208C41.8314 69.2521 41.7924 69.0834 41.7527 68.9111C41.746 68.8332 41.7502 68.7529 41.7363 68.6767C41.6968 68.4892 41.6502 68.3033 41.6071 68.1167C41.4562 67.4634 41.3054 66.8101 41.1546 66.1567C41.1731 65.9748 41.1333 65.8025 41.0369 65.647C41.0062 65.5142 40.9764 65.385 40.9457 65.2522C40.9576 65.0415 40.9128 64.8476 40.8098 64.6634C40.6921 64.1537 40.5745 63.644 40.4568 63.1343C40.2844 62.3876 40.1112 61.6374 39.9388 60.8907C39.9214 60.8154 39.8789 60.7458 39.8507 60.6729C39.7629 60.2924 39.6759 59.9155 39.588 59.535C39.4728 59.036 39.3568 58.5335 39.2416 58.0345C39.2242 57.9591 39.1817 57.8895 39.1535 57.8166C39.1145 57.6479 39.0756 57.4792 39.0366 57.3105C38.9297 56.8474 38.8507 56.3741 38.7115 55.9185C38.4811 55.1664 38.3621 54.3885 38.1425 53.6339C37.7925 52.4292 37.5601 51.1935 37.264 49.9763C37.1336 49.4279 37.0284 48.8737 36.9239 48.3231C36.8292 47.8308 36.7416 47.3368 36.6648 46.8403C36.5858 46.3179 36.5283 45.7905 36.4528 45.2672C36.3136 44.271 36.2298 43.2694 36.1828 42.2632C36.1576 41.7284 36.1432 41.191 36.144 40.6539C36.1422 39.4671 36.1932 38.2795 36.3369 37.1006C36.4484 36.175 36.5875 35.2544 36.7462 34.3368C36.869 33.6241 37.0266 32.9147 37.201 32.2128C37.4246 31.3142 37.6847 30.4261 38.006 29.5579C38.2089 29.012 38.411 28.4625 38.6387 27.9259C38.8414 27.4443 39.0777 26.9777 39.3008 26.5027C39.3333 26.4309 39.3916 26.3721 39.4366 26.305C39.3806 26.4389 39.3298 26.5792 39.2649 26.7076C38.649 27.9538 38.1341 29.2448 37.7382 30.5763C37.5365 31.2581 37.3383 31.9391 37.1729 32.6314C36.8801 33.8522 36.6584 35.0868 36.5036 36.3324C36.3414 37.6441 36.2452 38.9632 36.2329 40.2856C36.2219 41.3846 36.2565 42.4844 36.3511 43.5817C36.4022 44.1635 36.4525 44.7418 36.5188 45.3238C36.5578 45.6892 36.6227 46.0523 36.6769 46.4179C36.7501 46.9152 36.8198 47.4133 36.9037 47.9081C36.9579 48.2246 37.0559 48.5347 37.1101 48.8511C37.3623 50.3204 37.7582 51.7565 38.0822 53.2092C38.1908 53.6794 38.3452 54.1353 38.4753 54.6006C38.6001 55.0595 38.7142 55.5209 38.8427 55.979C38.9382 56.3275 39.0554 56.671 39.1545 57.0186C39.2258 57.2782 39.3042 57.5361 39.3352 57.8012C39.37 58.0994 39.4355 58.383 39.5476 58.6558C39.6374 58.8808 39.7191 59.1039 39.7487 59.3466C39.7611 59.4496 39.8175 59.5463 39.8559 59.6471C39.968 59.9199 40.0702 60.1987 40.0746 60.4964C40.0799 60.6994 40.1365 60.8791 40.2434 61.0473C40.3406 61.2063 40.4019 61.3737 40.3771 61.5609C40.3636 61.6661 40.415 61.7412 40.4743 61.8182C40.5652 61.9334 40.6121 62.0548 40.6166 62.2051C40.621 62.3061 40.6646 62.4133 40.7157 62.5036C40.7936 62.6444 40.8411 62.7846 40.8177 62.9451C40.7978 63.0555 40.8282 63.1544 40.8809 63.2519C40.9268 63.3358 40.9608 63.4338 40.9679 63.5305C40.9895 63.7221 40.9887 63.9151 41.0765 64.099C41.1144 64.181 41.1331 64.2788 41.1395 64.3718C41.1475 64.5212 41.1619 64.6653 41.2624 64.7896C41.2834 64.815 41.2845 64.8526 41.292 64.8849C41.2978 64.91 41.2865 64.9429 41.2986 64.9627C41.4069 65.2024 41.4146 65.4653 41.4878 65.7168C41.5096 65.795 41.5279 65.8739 41.5453 65.9493C41.5751 66.0786 41.6165 66.2089 41.624 66.3395C41.6398 66.5551 41.6611 66.762 41.7693 66.9525C41.7119 67.2115 41.787 67.4551 41.8506 67.6975C41.8622 67.7477 41.8746 67.8016 41.879 67.8535C41.8948 67.9709 41.9105 68.0882 41.9227 68.2064C41.9266 68.2395 41.9045 68.2749 41.9119 68.3072C41.9733 68.5237 41.9907 68.7465 42.0161 68.9713C42.0415 69.196 42.1189 69.4164 42.1291 69.6409C42.1507 70.0783 42.2225 70.5041 42.2844 70.9359C42.3336 71.28 42.3756 71.6257 42.4032 71.9747C42.4483 72.5957 42.4978 73.2195 42.5089 73.8408C42.5283 74.9404 42.5182 76.043 42.3582 77.1348C42.2439 77.9174 42.1457 78.7038 41.9958 79.4795C41.8396 80.3096 41.6514 81.1319 41.3795 81.9357C41.2075 82.4518 41.0515 82.9718 40.8707 83.4824C40.7793 83.7417 40.6507 83.9869 40.5336 84.2332C40.3969 84.5257 40.2595 84.8145 40.2009 85.1343C40.162 85.3588 40.0831 85.5736 40.0397 85.7954C40.0141 85.9298 40.016 86.0693 40.005 86.2344C40.0751 86.2107 40.1163 86.2087 40.1408 86.1841C40.6373 85.7633 41.139 85.3487 41.5758 84.866C42.0755 84.3121 42.5488 83.7415 42.9974 83.1464C43.554 82.413 44.048 81.6373 44.5206 80.8513C44.7851 80.4084 45.0239 79.9525 45.2539 79.491C45.5971 78.7993 45.9198 78.1009 46.255 77.4073C46.2903 77.331 46.3549 77.267 46.4071 77.1982C46.4502 77.1391 46.4941 77.0836 46.5407 77.0237C47.755 75.6015 49.1339 74.3682 50.6672 73.2958C51.4809 72.7261 52.3007 72.1663 53.1569 71.6661C53.4802 71.478 53.8113 71.3071 54.1399 71.1253L54.1551 71.1256Z" fill="#462D3E"/>
<path d="M52.5747 80.5423C52.6319 80.4951 52.6838 80.4415 52.7434 80.405C53.5464 79.9361 54.3424 79.4536 55.1628 79.0109C55.9525 78.5828 56.7731 78.2232 57.6144 77.9042C58.0598 77.7371 58.511 77.5951 58.9666 77.4559C59.3305 77.3454 59.703 77.2556 60.0694 77.1559C60.1341 77.141 60.1893 77.1018 60.2514 77.0761C60.4488 77.0305 60.6427 76.9858 60.8401 76.9402C60.9116 76.9388 60.9848 76.9446 61.0566 76.928C61.3159 76.8719 61.5735 76.8087 61.832 76.749C62.3464 76.6681 62.8636 76.5827 63.3805 76.5125C63.8571 76.4478 64.3373 76.3824 64.8177 76.3508C65.716 76.2947 66.6115 76.243 67.51 76.2208C69.0782 76.1839 70.6483 76.1882 72.2167 76.1361C73.1547 76.1048 74.091 76.0172 75.0246 75.934C75.6252 75.8823 76.2219 75.7975 76.8195 75.7163C77.1312 75.6745 77.4416 75.6104 77.7492 75.5508C78.2407 75.4524 78.7399 75.3712 79.2256 75.2477C80.461 74.9323 81.6727 74.5467 82.8103 73.9551C83.5942 73.551 84.3372 73.0846 85.0228 72.5331C85.9732 71.7692 86.9175 70.9954 87.8557 70.2116C88.0716 70.0332 88.2472 69.8112 88.4377 69.6046C88.61 69.4174 88.7815 69.2266 88.9493 69.0366C89.5151 68.3918 90.086 67.7533 90.6413 67.0958C90.9828 66.6918 91.2962 66.264 91.6281 65.8509C91.8219 65.6095 92.0306 65.3836 92.2341 65.1514C92.2551 65.1276 92.3042 65.1276 92.3401 65.1193C92.307 65.2707 92.2651 65.4165 92.2435 65.5689C92.0672 66.7704 91.8108 67.9525 91.5232 69.1305C91.2008 70.4527 90.7328 71.7177 90.0821 72.9114C90.0294 73.0106 89.9598 73.1023 89.8982 73.1959C89.9137 73.1318 89.9159 73.0595 89.9526 73.0056C90.1183 72.7405 90.2094 72.4473 90.3041 72.1532C90.3515 71.9985 90.306 71.9486 90.148 71.985C89.6778 72.0936 89.21 72.2129 88.7414 72.3287C88.5655 72.3693 88.3905 72.4135 88.2171 72.4648C87.9575 72.5361 87.7032 72.6137 87.4453 72.6922C87.0814 72.8027 86.7147 72.9176 86.3516 73.0316C86.0837 73.1162 85.8167 73.2043 85.5497 73.2924C85.2835 73.3841 85.0182 73.4794 84.7556 73.5702C84.5424 73.6459 84.3232 73.7117 84.1064 73.7882C83.9247 73.8528 83.7447 73.9246 83.5603 73.9937C83.4172 74.0456 83.2689 74.0912 83.1215 74.1403C82.7761 74.2655 82.4315 74.3942 82.0824 74.5201C81.6776 74.6665 81.2756 74.8085 80.87 74.9513C80.5174 75.078 80.1648 75.2048 79.8122 75.3316C79.5046 75.4404 79.1934 75.5501 78.8822 75.6597C78.3255 75.8525 77.7697 76.0489 77.2122 76.2381C76.8831 76.3519 76.5506 76.4513 76.2215 76.5651C75.8537 76.6916 75.4919 76.8281 75.1241 76.9546C74.7815 77.0753 74.4399 77.1844 74.0964 77.3015C73.7916 77.4059 73.4867 77.5103 73.1863 77.6175C72.9839 77.6907 72.7868 77.7702 72.5835 77.8398C72.5278 77.8603 72.4654 77.852 72.4063 77.8581C72.2737 77.8736 72.1387 77.8783 72.0103 77.9117C71.8289 77.9611 71.6569 78.0349 71.4788 78.0987C71.4158 78.1208 71.3512 78.1357 71.2857 78.147C71.1226 78.1771 70.9577 78.2001 70.7937 78.2266C70.4182 78.2868 70.0376 78.3255 69.6696 78.4181C69.3877 78.4907 69.1074 78.5214 68.8243 78.5565C68.7473 78.5667 68.6725 78.6029 68.5943 78.6247C68.5441 78.6363 68.4902 78.6487 68.44 78.6603C68.2967 78.6783 68.1481 78.6899 68.004 78.7043C67.8643 78.7214 67.7245 78.7386 67.5856 78.7593C67.5274 78.7689 67.4683 78.775 67.4073 78.7891C67.3821 78.7949 67.3531 78.8167 67.3291 78.8109C67.074 78.7375 66.8329 78.8726 66.5786 78.8519C66.4902 78.8458 66.3917 78.861 66.3027 78.8853C66.1708 78.9196 66.047 78.9406 65.9073 78.9085C65.8156 78.8881 65.7071 78.9094 65.6171 78.9453C65.4633 78.9997 65.3206 79.0364 65.148 78.9931C65.051 78.9663 64.9243 79.0069 64.8199 79.0462C64.6913 79.0948 64.57 79.1265 64.4298 79.0757C64.3676 79.0523 64.2851 79.0713 64.2124 79.0843C64.0349 79.1177 63.864 79.1799 63.6762 79.1363C63.6326 79.1275 63.584 79.1462 63.5365 79.1534C63.2874 79.1882 63.0422 79.0596 62.7882 79.122C62.6749 79.0574 62.5634 79.0491 62.4419 79.0961C62.4076 79.1116 62.3472 79.0953 62.311 79.0696C62.2033 78.9961 62.0901 78.9807 61.9661 79.0169C61.9482 79.021 61.9266 79.026 61.9062 79.0194C61.7203 78.9678 61.5381 78.9153 61.3522 78.8637C61.2918 78.8474 61.2233 78.8292 61.1606 78.8361C61.062 78.8513 60.98 78.84 60.8999 78.7715C60.8163 78.7039 60.7262 78.6906 60.6183 78.7307C60.4581 78.7903 60.4529 78.784 60.3598 78.6429C60.2963 78.5479 60.2226 78.5233 60.1218 78.5617C60.066 78.5822 60.011 78.6062 59.9509 78.6239C59.8341 78.6584 59.7233 78.6537 59.6358 78.5529C59.5438 78.4494 59.4342 78.4331 59.3066 78.4701C59.0443 78.5458 58.7776 78.6187 58.5136 78.6872C58.3457 78.7298 58.1742 78.7731 58.003 78.8013C57.9448 78.811 57.8721 78.7748 57.8164 78.7461C57.6951 78.6796 57.5852 78.6785 57.4505 78.7171C57.2906 78.7616 57.1224 78.7702 56.9576 78.7931C56.9101 78.8003 56.861 78.8003 56.8204 78.821C56.6707 78.8934 56.5313 78.8953 56.3846 78.8006C56.2396 78.7131 56.1115 78.8297 55.9934 78.891C55.8887 78.9454 55.8048 79.0404 55.7228 79.1274C55.5988 79.2619 55.5681 79.2765 55.4262 79.1694C55.3486 79.1117 55.2826 79.1042 55.2023 79.1492C55.0841 79.2105 54.9676 79.279 54.8486 79.3368C54.6384 79.442 54.425 79.5329 54.2193 79.6408C53.6941 79.9209 53.1706 80.2081 52.6426 80.4926C52.6192 80.5056 52.594 80.5114 52.5662 80.5216L52.5747 80.5423Z" fill="#392633"/>
<path d="M41.8662 69.4182C41.8886 69.5643 41.9074 69.7111 41.9306 69.8608C41.9082 69.7147 41.8894 69.5678 41.8662 69.4182Z" fill="#929292"/>
</svg>
