<svg width="144" height="125" viewBox="0 0 144 125" fill="none" xmlns="http://www.w3.org/2000/svg">
<g opacity="0.1">
<path d="M114.227 -29.0093L66.2004 21.2621L72.2505 -4.5855L114.227 -29.0093Z" fill="#D091BB"/>
<path d="M-12.7793 -7.2846L48.8496 24.6284L34.9836 1.78911L-12.7793 -7.2846ZM110.633 69.0919L99.8209 94.0469L132.647 97.3098L136.429 65.1916L110.633 69.0919ZM-2.29849 88.9215L11.889 117.966L41.7642 103.978L23.2719 84.0354L-2.29849 88.9215Z" fill="#D091BB"/>
<path d="M29.6671 43.9014L23.1914 58.6106L54.5573 54.6681L47.7295 21.4055L29.6671 43.9014ZM91.2072 33.3748L66.352 17.8217L71.4214 51.7835L102.259 45.0858L91.2072 33.3748ZM41.7645 103.978L58.8927 91.6578L40.591 81.8129L41.7645 103.978ZM79.5166 88.13L99.8212 94.047L93.5055 72.7617L79.5166 88.13Z" fill="#D794BF"/>
<path d="M99.8209 94.0471L79.5163 88.1301L83.0994 100.094L83.8131 105.265L99.8209 94.0471ZM41.7642 103.978L60.5904 109.237L59.6002 104.114L58.8923 91.6579L41.7642 103.978Z" fill="#9F588B"/>
<path d="M54.3601 71.1488L37.9827 69.2267L48.1252 62.313L54.3601 71.1488ZM76.9746 67.2806L79.9181 56.8747L91.8372 60.0147L76.9746 67.2806Z" fill="#5E304D"/>
<path d="M41.7644 103.978L40.5785 81.0752L23.3572 84.5331L41.7644 103.978ZM93.3272 72.0524L99.8211 94.047L110.719 69.5897L93.3272 72.0524ZM102.259 45.0858L71.4213 51.7835L77.0298 67.2711L79.9734 56.8653L91.8925 60.0053L102.259 45.0858ZM37.9827 69.2267L48.1805 62.3035L54.3601 71.1488L54.5572 54.6681L23.1913 58.6106L37.9827 69.2267Z" fill="#F9AEE1"/>
<path d="M23.1909 58.6107L40.5905 81.813L37.9823 69.2268L23.1909 58.6107ZM91.8921 60.0053L93.505 72.7618L102.259 45.0859L91.8921 60.0053ZM54.5568 54.6682L54.3597 71.1489L61.2341 89.3793L57.8169 64.4113L54.5568 54.6682ZM71.4209 51.7836L71.6304 61.9915L76.55 86.7594L77.0294 67.2712L71.4209 51.7836Z" fill="#EF87D3"/>
<path d="M77.0296 67.2709L76.5501 86.7592L79.5163 88.1298L93.5052 72.7615L91.8922 60.005L77.0296 67.2709ZM37.9824 69.2265L40.5906 81.8127L58.8923 91.6576L61.2342 89.379L54.3598 71.1486L37.9824 69.2265Z" fill="#FFC5EC"/>
<path d="M83.8131 105.265L83.0994 100.094L81.509 99.1141L60.6639 102.68L59.6002 104.114L60.5904 109.237L41.7642 103.978L48.6975 107.914L62.4936 114.375L83.6705 110.752L94.5899 100.063L99.8209 94.0468L83.8131 105.265Z" fill="#7C4570"/>
<path d="M79.5161 88.13L76.55 86.7594L61.2341 89.3792L58.8922 91.6578L59.6001 104.114L60.6637 102.68L81.5088 99.1142L83.0992 100.094L79.5161 88.13Z" fill="#161616"/>
<path d="M123.992 14.1084L124.833 -9.25466L114.227 -29.0092L67.7886 19.5678L91.207 33.3748L121.572 36.888L126.709 28.3265L123.604 26.8089L127.337 22.0159L123.455 19.9483L127.301 15.8188L123.992 14.1084ZM-16.1616 14.8629L-7.60291 36.6182L-10.2104 39.3406L-5.21007 41.9568L-8.12891 45.1877L-3.01512 48.4674L-5.43924 50.9308L2.19617 57.3076L29.6669 43.9015L47.1646 23.0956L-12.7793 -7.28447L-16.1616 14.8629Z" fill="#0D070B"/>
<path d="M121.572 36.888L91.207 33.3748L102.259 45.0858L93.5052 72.7617L110.719 69.5897L136.429 65.1917L121.572 36.888ZM29.6669 43.9014L2.19615 57.3076L-2.2985 88.9216L23.357 84.5331L40.5907 81.8129L23.1911 58.6106L29.6669 43.9014ZM71.4211 51.7834L67.7886 19.5678L72.3058 -4.59487L34.9836 1.7892L47.1646 23.0956L54.557 54.6681L56.9419 64.6178L61.2343 89.3792L76.5502 86.7593L72.4237 61.9695L71.4211 51.7834Z" fill="#9B6B8D"/>
</g>
</svg>
