<svg width="186" height="184" viewBox="0 0 186 184" fill="none" xmlns="http://www.w3.org/2000/svg">
<path d="M92.9999 13.2509L112.361 72.8382L112.639 73.6928H113.537L176.191 73.6928L125.503 110.52L124.776 111.048L125.054 111.903L144.415 171.49L93.7269 134.663L92.9999 134.135L92.2729 134.663L41.5849 171.49L60.946 111.903L61.2237 111.048L60.4967 110.52L9.80874 73.6928L72.4625 73.6928H73.3611L73.6388 72.8382L92.9999 13.2509Z" fill="url(#paint0_linear_794_1430)"/>
<path d="M92.9999 13.2509L112.361 72.8382L112.639 73.6928H113.537L176.191 73.6928L125.503 110.52L124.776 111.048L125.054 111.903L144.415 171.49L93.7269 134.663L92.9999 134.135L92.2729 134.663L41.5849 171.49L60.946 111.903L61.2237 111.048L60.4967 110.52L9.80874 73.6928L72.4625 73.6928H73.3611L73.6388 72.8382L92.9999 13.2509Z" fill="url(#paint1_linear_794_1430)"/>
<path d="M92.9999 13.2509L112.361 72.8382L112.639 73.6928H113.537L176.191 73.6928L125.503 110.52L124.776 111.048L125.054 111.903L144.415 171.49L93.7269 134.663L92.9999 134.135L92.2729 134.663L41.5849 171.49L60.946 111.903L61.2237 111.048L60.4967 110.52L9.80874 73.6928L72.4625 73.6928H73.3611L73.6388 72.8382L92.9999 13.2509Z" stroke="black" stroke-width="2.47377" style="mix-blend-mode:soft-light"/>
<path d="M95.8531 8.32124C95.4515 7.08517 94.2996 6.24829 92.9999 6.24829C91.7002 6.24829 90.5484 7.08517 90.1467 8.32124L70.2829 69.456L6.00201 69.456C4.70233 69.456 3.55046 70.2928 3.14884 71.5289C2.74721 72.765 3.18719 74.1191 4.23865 74.883L56.243 112.666L36.3791 173.801C35.9775 175.037 36.4174 176.391 37.4689 177.155C38.5204 177.919 39.9441 177.919 40.9956 177.155L92.9999 139.372L145.004 177.155C146.056 177.919 147.479 177.919 148.531 177.155C149.582 176.391 150.022 175.037 149.621 173.801L129.757 112.666L181.761 74.883C182.813 74.1191 183.253 72.765 182.851 71.5289C182.449 70.2928 181.297 69.456 179.998 69.456L115.717 69.456L95.8531 8.32124Z" stroke="white" stroke-width="6" stroke-linejoin="round"/>
<defs>
<linearGradient id="paint0_linear_794_1430" x1="92.9999" y1="9.24829" x2="92.9999" y2="192.198" gradientUnits="userSpaceOnUse">
<stop stop-color="#FFDAC7"/>
<stop offset="0.79" stop-color="#A67258"/>
</linearGradient>
<linearGradient id="paint1_linear_794_1430" x1="109.867" y1="74.3918" x2="86.2884" y2="106.632" gradientUnits="userSpaceOnUse">
<stop stop-color="white" stop-opacity="0"/>
<stop offset="0.904499" stop-color="white" stop-opacity="0.42"/>
<stop offset="1" stop-color="white" stop-opacity="0"/>
</linearGradient>
</defs>
</svg>
