<svg width="145" height="75" viewBox="0 0 145 75" fill="none" xmlns="http://www.w3.org/2000/svg">
<path d="M0.307606 1.87354L0.303713 49.9431L37.0431 49.9431L88.9756 21.4795L108.978 1.87354L0.307606 1.87354Z" fill="url(#paint0_linear_504_4959)"/>
<path d="M112.956 1.87354H143.136L143.136 27.0436H112.956C99.3788 27.0436 86.3575 32.4372 76.7569 42.0378L60.0545 58.7402C50.4538 68.3408 37.4326 73.7344 23.8552 73.7344H0.303802L0.303757 48.5644H23.8552C37.4325 48.5644 50.4538 43.1708 60.0544 33.5701L76.7568 16.8678C86.3574 7.26712 99.3787 1.87354 112.956 1.87354Z" fill="url(#paint1_linear_504_4959)"/>
<path d="M0.303759 48.5644H23.8552C37.4325 48.5644 50.4538 43.1708 60.0544 33.5701L76.7568 16.8678C86.3575 7.26711 99.3787 1.87354 112.956 1.87354H143.136L143.136 27.0436H112.956C99.3788 27.0436 86.3575 32.4372 76.7569 42.0378L60.0545 58.7402C50.4538 68.3408 37.4326 73.7344 23.8552 73.7344H0.303804" stroke="url(#paint2_linear_504_4959)" stroke-width="1.96898"/>
<defs>
<linearGradient id="paint0_linear_504_4959" x1="70.1744" y1="1.87353" x2="70.1744" y2="61.9781" gradientUnits="userSpaceOnUse">
<stop stop-color="#371C2D"/>
<stop offset="1" stop-color="#502E44"/>
</linearGradient>
<linearGradient id="paint1_linear_504_4959" x1="0.303757" y1="37.804" x2="143.136" y2="37.804" gradientUnits="userSpaceOnUse">
<stop stop-color="#3D2235"/>
<stop offset="0.10797" stop-color="#3D2235"/>
<stop offset="0.204679" stop-color="#512F44"/>
<stop offset="0.245687" stop-color="#533046"/>
<stop offset="0.293979" stop-color="#502E43"/>
<stop offset="0.364075" stop-color="#3D2235"/>
<stop offset="0.488525" stop-color="#321C2B"/>
<stop offset="0.567891" stop-color="#422638"/>
<stop offset="0.606201" stop-color="#4A2A3E"/>
<stop offset="0.634487" stop-color="#48293D"/>
<stop offset="0.728066" stop-color="#301A29"/>
<stop offset="0.817307" stop-color="#311C2A" stop-opacity="0.5"/>
<stop offset="0.926449" stop-color="#291623" stop-opacity="0"/>
</linearGradient>
<linearGradient id="paint2_linear_504_4959" x1="143.136" y1="37.804" x2="0.303757" y2="37.804" gradientUnits="userSpaceOnUse">
<stop stop-color="#331C2B" stop-opacity="0"/>
<stop offset="1" stop-color="#634357"/>
</linearGradient>
</defs>
</svg>
