<svg width="144" height="75" viewBox="0 0 144 75" fill="none" xmlns="http://www.w3.org/2000/svg">
<path d="M143.963 1.87354L143.967 49.9431L107.228 49.9431L55.2954 21.4795L35.293 1.87354L143.963 1.87354Z" fill="url(#paint0_linear_504_4951)"/>
<path d="M31.315 1.87354H1.13554L1.1355 27.0436H31.315C44.8924 27.0436 57.9136 32.4372 67.5143 42.0378L84.2166 58.7402C93.8173 68.3408 106.839 73.7344 120.416 73.7344H143.967L143.967 48.5644H120.416C106.839 48.5644 93.8173 43.1708 84.2167 33.5701L67.5143 16.8678C57.9137 7.26712 44.8924 1.87354 31.315 1.87354Z" fill="url(#paint1_linear_504_4951)"/>
<path d="M143.967 48.5644H120.416C106.839 48.5644 93.8173 43.1708 84.2167 33.5701L67.5143 16.8678C57.9137 7.26711 44.8924 1.87354 31.3151 1.87354H1.13554L1.1355 27.0436H31.315C44.8924 27.0436 57.9136 32.4372 67.5143 42.0378L84.2166 58.7402C93.8173 68.3408 106.839 73.7344 120.416 73.7344H143.967" stroke="url(#paint2_linear_504_4951)" stroke-width="1.96898"/>
<defs>
<linearGradient id="paint0_linear_504_4951" x1="74.0966" y1="1.87353" x2="74.0966" y2="61.9781" gradientUnits="userSpaceOnUse">
<stop stop-color="#371C2D"/>
<stop offset="1" stop-color="#502E44"/>
</linearGradient>
<linearGradient id="paint1_linear_504_4951" x1="143.967" y1="37.804" x2="1.1355" y2="37.804" gradientUnits="userSpaceOnUse">
<stop stop-color="#3D2235"/>
<stop offset="0.10797" stop-color="#3D2235"/>
<stop offset="0.204679" stop-color="#512F44"/>
<stop offset="0.245687" stop-color="#533046"/>
<stop offset="0.293979" stop-color="#502E43"/>
<stop offset="0.364075" stop-color="#3D2235"/>
<stop offset="0.488525" stop-color="#321C2B"/>
<stop offset="0.567891" stop-color="#422638"/>
<stop offset="0.606201" stop-color="#4A2A3E"/>
<stop offset="0.634487" stop-color="#48293D"/>
<stop offset="0.728066" stop-color="#301A29"/>
<stop offset="0.817307" stop-color="#311C2A" stop-opacity="0.5"/>
<stop offset="0.926449" stop-color="#291623" stop-opacity="0"/>
</linearGradient>
<linearGradient id="paint2_linear_504_4951" x1="1.1355" y1="37.804" x2="143.967" y2="37.804" gradientUnits="userSpaceOnUse">
<stop stop-color="#331C2B" stop-opacity="0"/>
<stop offset="1" stop-color="#634357"/>
</linearGradient>
</defs>
</svg>
