<svg width="143" height="144" viewBox="0 0 143 144" fill="none" xmlns="http://www.w3.org/2000/svg">
<path opacity="0.05" d="M-11.2405 73.4444C-19.266 31.3894 4.91198 -2.89494 47.5581 -11.0333C88.093 -18.7687 120.812 1.33195 128.064 39.3334C133.027 65.3434 123.314 84.6141 102.117 88.6591C91.2234 90.738 82.4151 87.6927 78.3346 80.0692L76.8145 80.3593C75.0482 89.4487 69.3154 95.1814 59.6883 97.0186C42.1232 100.371 27.7298 88.2384 23.6525 66.8731C19.7203 46.2679 28.2567 30.4601 44.8085 27.3014C54.0133 25.5449 62.0816 28.3813 66.926 35.4214L68.4461 35.1314L68.156 33.6113C66.8829 26.9399 69.805 22.5313 76.2231 21.3065C82.7255 20.0656 86.9814 23.1044 88.2546 29.7758L94.6846 63.4705C95.8288 69.4663 99.208 72.4974 103.937 71.5949C111.2 70.209 113.975 59.5267 111.203 45.0017C105.224 13.6715 80.8079 -1.44924 50.4911 4.33623C17.9787 10.5407 -0.1132 37.2744 6.23631 70.5468C12.6342 104.073 39.8017 120.769 75.6076 113.936C80.9278 112.921 84.394 111.822 88.1497 110.405C89.6375 109.946 90.9726 109.603 92.4082 109.329C97.7284 108.314 100.693 110.549 101.483 114.687C102.192 118.403 100.922 120.921 97.2429 123.198C93.1739 125.725 86.6637 127.843 76.1077 129.857C32.2793 138.221 -3.03772 116.428 -11.2405 73.4444ZM61.926 78.4743C69.6952 76.9916 73.1672 69.5022 71.0722 58.524C68.9933 47.6303 62.9067 41.8775 55.2219 43.344C47.5372 44.8105 44.1495 52.2838 46.2446 63.262C48.3557 74.3246 54.1568 79.9569 61.926 78.4743Z" fill="#FFA4E2"/>
</svg>
