<svg width="98" height="95" viewBox="0 0 98 95" fill="none" xmlns="http://www.w3.org/2000/svg">
<g opacity="0.05">
<path d="M44.4559 46.8176C48.8192 46.8176 50.7752 46.7008 51.1538 46.6724L51.1412 46.6693C64.5276 46.0761 74.5129 43.7415 74.5129 40.9525C74.5129 38.1636 64.5244 35.8289 51.1412 35.2326V44.3504C50.7658 44.3851 48.6803 44.5586 44.5158 44.5586C41.0454 44.5586 38.5341 44.4103 37.657 44.3472V35.2263C24.2454 35.8258 14.2348 38.1573 14.2348 40.9525C14.2348 43.7478 24.2454 46.0825 37.657 46.6724C38.5215 46.7134 40.9855 46.8176 44.4559 46.8176Z" fill="#FFA4E2"/>
<path d="M51.1538 34.2863V34.2893L51.1507 34.2862C51.1517 34.2862 51.1528 34.2863 51.1538 34.2863Z" fill="#FFA4E2"/>
<path fill-rule="evenodd" clip-rule="evenodd" d="M-9.0833 42.4606L10.4426 1.44646C10.5065 1.30833 10.609 1.19163 10.7378 1.11046C10.8665 1.02929 11.016 0.987105 11.1682 0.988998H77.5953C77.7468 0.988599 77.8952 1.03182 78.0227 1.11351C78.1503 1.19519 78.2516 1.31188 78.3146 1.44962L97.8405 42.4637C97.9148 42.6163 97.9384 42.7886 97.9077 42.9555C97.877 43.1224 97.7938 43.2751 97.6701 43.3913L44.9355 93.9207C44.7857 94.0643 44.5861 94.1445 44.3786 94.1445C44.1711 94.1445 43.9716 94.0643 43.8218 93.9207L-8.91293 43.3881C-9.03659 43.2719 -9.11984 43.1192 -9.15049 42.9523C-9.18115 42.7855 -9.1576 42.6131 -9.0833 42.4606ZM51.1538 26.1275V34.2863C66.3054 34.987 77.69 37.9903 77.69 41.5898C77.69 45.1896 66.2943 48.1931 51.1507 48.8903V75.0542H37.6539V48.8998C22.4755 48.1994 11.0609 45.1959 11.0609 41.593C11.0609 37.9901 22.4755 34.9834 37.6539 34.2862V26.1275H18.9798V13.6813H69.831V26.1275H51.1538Z" fill="#FFA4E2"/>
</g>
</svg>
