<svg width="23" height="16" viewBox="0 0 23 16" fill="none" xmlns="http://www.w3.org/2000/svg">
<path d="M1.48435 2.90234H21.211C22.0704 2.90234 22.6954 2.35544 22.6954 1.51564C22.6954 0.695337 22.0704 0.148438 21.211 0.148438H1.48435C0.60547 0.148438 0 0.695337 0 1.51564C0 2.35544 0.60547 2.90234 1.48435 2.90234ZM1.48435 9.36724H21.211C22.0704 9.36724 22.6954 8.82034 22.6954 7.98044C22.6954 7.16014 22.0704 6.61334 21.211 6.61334H1.48435C0.60547 6.61334 0 7.16014 0 7.98044C0 8.82034 0.60547 9.36724 1.48435 9.36724ZM1.48435 15.8515H21.211C22.0704 15.8515 22.6954 15.2851 22.6954 14.4648C22.6954 13.6445 22.0704 13.0976 21.211 13.0976H1.48435C0.60547 13.0976 0 13.6445 0 14.4648C0 15.2851 0.60547 15.8515 1.48435 15.8515Z" fill="white" fill-opacity="0.85"/>
<path d="M1.48435 2.90234H21.211C22.0704 2.90234 22.6954 2.35544 22.6954 1.51564C22.6954 0.695337 22.0704 0.148438 21.211 0.148438H1.48435C0.60547 0.148438 0 0.695337 0 1.51564C0 2.35544 0.60547 2.90234 1.48435 2.90234ZM1.48435 9.36724H21.211C22.0704 9.36724 22.6954 8.82034 22.6954 7.98044C22.6954 7.16014 22.0704 6.61334 21.211 6.61334H1.48435C0.60547 6.61334 0 7.16014 0 7.98044C0 8.82034 0.60547 9.36724 1.48435 9.36724ZM1.48435 15.8515H21.211C22.0704 15.8515 22.6954 15.2851 22.6954 14.4648C22.6954 13.6445 22.0704 13.0976 21.211 13.0976H1.48435C0.60547 13.0976 0 13.6445 0 14.4648C0 15.2851 0.60547 15.8515 1.48435 15.8515Z" fill="url(#paint0_linear_432_2263)"/>
<defs>
<linearGradient id="paint0_linear_432_2263" x1="11.3477" y1="0.148437" x2="11.3477" y2="15.8515" gradientUnits="userSpaceOnUse">
<stop offset="0.38" stop-color="white"/>
<stop offset="1" stop-color="#BFADB9"/>
</linearGradient>
</defs>
</svg>
