<svg width="22" height="18" viewBox="0 0 22 18" fill="none" xmlns="http://www.w3.org/2000/svg">
<path d="M0.525635 9.08161C0.525635 9.93486 1.11718 10.5196 1.9961 10.5196H12.0478L14.4512 10.3874L11.3702 13.1631L9.19806 15.3662C8.92481 15.6395 8.75542 15.9861 8.75542 16.4061C8.75542 17.1923 9.33702 17.7765 10.1666 17.7765C10.5359 17.7765 10.8962 17.6286 11.1967 17.3208L18.2454 10.1483C18.5239 9.86668 18.7022 9.49062 18.7022 9.08161C18.7022 8.66467 18.5239 8.29653 18.2454 8.00703L11.1967 0.830896C10.8962 0.519381 10.5359 0.367293 10.1666 0.367293C9.33702 0.367293 8.75542 0.959374 8.75542 1.74182C8.75542 2.16188 8.92847 2.51588 9.19806 2.77757L11.3702 4.99229L14.4433 7.77579L12.0478 7.63577H1.9961C1.11718 7.63577 0.525635 8.2205 0.525635 9.08161ZM18.6676 16.5881C18.6676 17.3784 19.2744 17.9621 20.0768 17.9621C20.8676 17.9621 21.4744 17.3784 21.4744 16.5881V1.58298C21.4744 0.784783 20.8676 0.193237 20.0768 0.193237C19.2744 0.193237 18.6676 0.784783 18.6676 1.58298V16.5881Z" fill="url(#paint0_linear_432_2286)"/>
<defs>
<linearGradient id="paint0_linear_432_2286" x1="11" y1="0.193237" x2="11" y2="17.9621" gradientUnits="userSpaceOnUse">
<stop offset="0.38" stop-color="white"/>
<stop offset="1" stop-color="#BFADB9"/>
</linearGradient>
</defs>
</svg>
