<svg width="20" height="24" viewBox="0 0 20 24" fill="none" xmlns="http://www.w3.org/2000/svg">
<path d="M2.99752 21.6872C4.01014 22.5355 5.20938 23.1318 6.49694 23.4271C6.62016 23.4674 6.70306 23.3062 6.62015 23.2256C3.8623 20.5944 5.37768 17.7467 6.49694 16.4628C7.29494 15.5462 8.43147 14.0366 8.34857 12.0122C8.34857 11.8096 8.55584 11.6472 8.71935 11.7692C10.2842 12.5788 11.354 14.3601 11.6419 15.8168C12.0956 15.3723 12.2602 14.6837 12.2602 14.0769C12.2602 13.8742 12.5067 13.7118 12.7128 13.8742C14.1948 15.2099 16.7465 19.7434 12.6299 23.305C12.5481 23.3868 12.6299 23.5492 12.7128 23.5089C13.961 23.1816 15.1349 22.6179 16.1707 21.8484C22.8806 16.6666 18.5164 7.47758 15.6756 4.44221C15.306 4.07718 14.6473 4.32015 14.6473 4.84639C14.6059 5.94032 14.2765 7.15401 13.4129 7.96352C12.7542 5.21142 10.5595 2.08508 7.43082 0.546665C7.01973 0.343999 6.52573 0.667573 6.56719 1.11321C6.64779 4.87863 4.19163 7.27607 2.05098 10.3932C0.156749 13.1856 -1.07767 18.3271 2.99752 21.6872Z" fill="url(#paint0_linear_432_2280)"/>
<defs>
<linearGradient id="paint0_linear_432_2280" x1="9.99994" y1="0.484863" x2="9.99994" y2="23.5152" gradientUnits="userSpaceOnUse">
<stop offset="0.38" stop-color="white"/>
<stop offset="1" stop-color="#BFADB9"/>
</linearGradient>
</defs>
</svg>
