<svg width="14" height="24" viewBox="0 0 14 24" fill="none" xmlns="http://www.w3.org/2000/svg">
<path d="M1.50003 20.3533C1.50487 21.213 2.10616 21.768 3.0366 21.768H11.4655C12.3984 21.768 12.9972 21.213 13.0045 20.3533C13.0093 19.49 12.408 18.9253 11.4655 18.9253H9.11624V9.30749C9.11624 8.39024 8.52461 7.80941 7.63183 7.80941H3.40824C2.47673 7.80941 1.86441 8.36311 1.86925 9.22633C1.87651 10.097 2.48641 10.6545 3.40824 10.6545H6.02372V18.9253H3.0366C2.09648 18.9253 1.49519 19.49 1.50003 20.3533ZM4.93623 2.66503C4.93623 3.86412 5.89115 4.82146 7.08781 4.82146C8.30035 4.82146 9.22839 3.86412 9.22839 2.66503C9.22839 1.45491 8.30035 0.5 7.08781 0.5C5.89115 0.5 4.93623 1.45491 4.93623 2.66503Z" fill="white" fill-opacity="0.85"/>
<path d="M1.50003 20.3533C1.50487 21.213 2.10616 21.768 3.0366 21.768H11.4655C12.3984 21.768 12.9972 21.213 13.0045 20.3533C13.0093 19.49 12.408 18.9253 11.4655 18.9253H9.11624V9.30749C9.11624 8.39024 8.52461 7.80941 7.63183 7.80941H3.40824C2.47673 7.80941 1.86441 8.36311 1.86925 9.22633C1.87651 10.097 2.48641 10.6545 3.40824 10.6545H6.02372V18.9253H3.0366C2.09648 18.9253 1.49519 19.49 1.50003 20.3533ZM4.93623 2.66503C4.93623 3.86412 5.89115 4.82146 7.08781 4.82146C8.30035 4.82146 9.22839 3.86412 9.22839 2.66503C9.22839 1.45491 8.30035 0.5 7.08781 0.5C5.89115 0.5 4.93623 1.45491 4.93623 2.66503Z" fill="url(#paint0_linear_432_2268)"/>
<defs>
<linearGradient id="paint0_linear_432_2268" x1="7.25225" y1="0.5" x2="7.25225" y2="21.768" gradientUnits="userSpaceOnUse">
<stop offset="0.38" stop-color="white"/>
<stop offset="1" stop-color="#BFADB9"/>
</linearGradient>
</defs>
</svg>
