<svg width="22" height="22" viewBox="0 0 22 22" fill="none" xmlns="http://www.w3.org/2000/svg">
<path d="M0.303223 11C0.303223 11.897 1.03875 12.6279 1.93114 12.6279H9.37612V20.0729C9.37612 20.9612 10.103 21.6968 11 21.6968C11.897 21.6968 12.6365 20.9612 12.6365 20.0729V12.6279H20.0729C20.9612 12.6279 21.6968 11.897 21.6968 11C21.6968 10.103 20.9612 9.36343 20.0729 9.36343H12.6365V1.93114C12.6365 1.03875 11.897 0.303223 11 0.303223C10.103 0.303223 9.37612 1.03875 9.37612 1.93114V9.36343H1.93114C1.03875 9.36343 0.303223 10.103 0.303223 11Z" fill="url(#paint0_linear_432_2284)"/>
<defs>
<linearGradient id="paint0_linear_432_2284" x1="11" y1="0.303223" x2="11" y2="21.6968" gradientUnits="userSpaceOnUse">
<stop offset="0.38" stop-color="white"/>
<stop offset="1" stop-color="#BFADB9"/>
</linearGradient>
</defs>
</svg>
