<svg width="22" height="24" viewBox="0 0 22 24" fill="none" xmlns="http://www.w3.org/2000/svg">
<path d="M2.44075 23.4214H18.8626C20.3897 23.4214 21.2971 22.683 21.2971 21.4563C21.2971 18.252 17.1416 13.8712 10.6454 13.8712C4.1618 13.8712 0 18.252 0 21.4563C0 22.683 0.913717 23.4214 2.44075 23.4214ZM10.6517 11.6808C13.4679 11.6808 15.7773 9.21503 15.7773 6.06705C15.7773 3.01924 13.4492 0.578491 10.6517 0.578491C7.85424 0.578491 5.53237 3.04428 5.53237 6.08583C5.53237 9.21503 7.83547 11.6808 10.6517 11.6808Z" fill="#220F1C"/>
<path d="M2.44075 23.4214H18.8626C20.3897 23.4214 21.2971 22.683 21.2971 21.4563C21.2971 18.252 17.1416 13.8712 10.6454 13.8712C4.1618 13.8712 0 18.252 0 21.4563C0 22.683 0.913717 23.4214 2.44075 23.4214ZM10.6517 11.6808C13.4679 11.6808 15.7773 9.21503 15.7773 6.06705C15.7773 3.01924 13.4492 0.578491 10.6517 0.578491C7.85424 0.578491 5.53237 3.04428 5.53237 6.08583C5.53237 9.21503 7.83547 11.6808 10.6517 11.6808Z" fill="url(#paint0_linear_432_2253)"/>
<defs>
<linearGradient id="paint0_linear_432_2253" x1="10.6486" y1="0.578491" x2="10.6486" y2="23.4214" gradientUnits="userSpaceOnUse">
<stop offset="0.38" stop-color="white"/>
<stop offset="1" stop-color="#BFADB9"/>
</linearGradient>
</defs>
</svg>
