<svg width="26" height="27" viewBox="0 0 26 27" fill="none" xmlns="http://www.w3.org/2000/svg">
<path d="M2.44075 23.4214H18.8626C20.3897 23.4214 21.2971 22.683 21.2971 21.4563C21.2971 18.252 17.1416 13.8712 10.6454 13.8712C4.1618 13.8712 0 18.252 0 21.4563C0 22.683 0.913717 23.4214 2.44075 23.4214ZM10.6517 11.6808C13.4679 11.6808 15.7773 9.21503 15.7773 6.06705C15.7773 3.01924 13.4492 0.578491 10.6517 0.578491C7.85424 0.578491 5.53237 3.04428 5.53237 6.08583C5.53237 9.21503 7.83547 11.6808 10.6517 11.6808Z" fill="#220F1C"/>
<path d="M2.44075 23.4214H18.8626C20.3897 23.4214 21.2971 22.683 21.2971 21.4563C21.2971 18.252 17.1416 13.8712 10.6454 13.8712C4.1618 13.8712 0 18.252 0 21.4563C0 22.683 0.913717 23.4214 2.44075 23.4214ZM10.6517 11.6808C13.4679 11.6808 15.7773 9.21503 15.7773 6.06705C15.7773 3.01924 13.4492 0.578491 10.6517 0.578491C7.85424 0.578491 5.53237 3.04428 5.53237 6.08583C5.53237 9.21503 7.83547 11.6808 10.6517 11.6808Z" fill="url(#paint0_linear_432_2256)"/>
<path d="M19.1941 24.1274L19.1983 24.1211L19.2023 24.1147L23.7804 16.9553C23.7809 16.9546 23.7814 16.9538 23.7818 16.9531C23.9478 16.6959 24.1937 16.2479 24.1937 15.7221C24.1937 14.5275 23.1429 13.8768 22.2646 13.8768C21.5299 13.8768 20.9632 14.3029 20.6194 14.8693L17.3248 20.1444L16.3065 18.8515C16.1206 18.606 15.8919 18.3881 15.6017 18.237C15.302 18.081 14.9998 18.0292 14.7225 18.0292C13.6578 18.0292 12.8223 18.888 12.8223 19.9406C12.8223 20.457 13.0285 20.8966 13.2949 21.2427L13.3044 21.255L13.3143 21.2671L15.7357 24.2177L15.7373 24.2196C16.1545 24.7255 16.708 25.0876 17.4548 25.0876C18.2034 25.0876 18.8126 24.7045 19.1941 24.1274Z" fill="url(#paint1_linear_432_2256)"/>
<path d="M19.1941 24.1274L19.1983 24.1211L19.2023 24.1147L23.7804 16.9553C23.7809 16.9546 23.7814 16.9538 23.7818 16.9531C23.9478 16.6959 24.1937 16.2479 24.1937 15.7221C24.1937 14.5275 23.1429 13.8768 22.2646 13.8768C21.5299 13.8768 20.9632 14.3029 20.6194 14.8693L17.3248 20.1444L16.3065 18.8515C16.1206 18.606 15.8919 18.3881 15.6017 18.237C15.302 18.081 14.9998 18.0292 14.7225 18.0292C13.6578 18.0292 12.8223 18.888 12.8223 19.9406C12.8223 20.457 13.0285 20.8966 13.2949 21.2427L13.3044 21.255L13.3143 21.2671L15.7357 24.2177L15.7373 24.2196C16.1545 24.7255 16.708 25.0876 17.4548 25.0876C18.2034 25.0876 18.8126 24.7045 19.1941 24.1274Z" fill="url(#paint2_linear_432_2256)"/>
<path d="M19.1941 24.1274L19.1983 24.1211L19.2023 24.1147L23.7804 16.9553C23.7809 16.9546 23.7814 16.9538 23.7818 16.9531C23.9478 16.6959 24.1937 16.2479 24.1937 15.7221C24.1937 14.5275 23.1429 13.8768 22.2646 13.8768C21.5299 13.8768 20.9632 14.3029 20.6194 14.8693L17.3248 20.1444L16.3065 18.8515C16.1206 18.606 15.8919 18.3881 15.6017 18.237C15.302 18.081 14.9998 18.0292 14.7225 18.0292C13.6578 18.0292 12.8223 18.888 12.8223 19.9406C12.8223 20.457 13.0285 20.8966 13.2949 21.2427L13.3044 21.255L13.3143 21.2671L15.7357 24.2177L15.7373 24.2196C16.1545 24.7255 16.708 25.0876 17.4548 25.0876C18.2034 25.0876 18.8126 24.7045 19.1941 24.1274Z" stroke="url(#paint3_linear_432_2256)" stroke-width="2"/>
<defs>
<linearGradient id="paint0_linear_432_2256" x1="10.6486" y1="0.578491" x2="10.6486" y2="23.4214" gradientUnits="userSpaceOnUse">
<stop offset="0.38" stop-color="white"/>
<stop offset="1" stop-color="#BFADB9"/>
</linearGradient>
<linearGradient id="paint1_linear_432_2256" x1="18.508" y1="14.8768" x2="18.508" y2="24.0876" gradientUnits="userSpaceOnUse">
<stop offset="0.38" stop-color="white"/>
<stop offset="1" stop-color="#BFADB9"/>
</linearGradient>
<linearGradient id="paint2_linear_432_2256" x1="18.508" y1="24.0876" x2="18.508" y2="14.8768" gradientUnits="userSpaceOnUse">
<stop stop-color="#93DBFF"/>
<stop offset="0.679984" stop-color="#5DC7FC"/>
</linearGradient>
<linearGradient id="paint3_linear_432_2256" x1="18.508" y1="14.8768" x2="18.508" y2="24.0876" gradientUnits="userSpaceOnUse">
<stop stop-color="#633C55"/>
<stop offset="1" stop-color="#56324A"/>
</linearGradient>
</defs>
</svg>
