<svg width="24" height="24" viewBox="0 0 24 24" fill="none" xmlns="http://www.w3.org/2000/svg">
<path d="M12 23.8112C12.513 23.8112 12.9304 23.4358 13.01 22.8872C14.0569 14.991 15.1643 13.8696 22.8592 13.0143C23.4155 12.9562 23.8188 12.5325 23.8188 11.9999C23.8188 11.4653 23.4176 11.0458 22.8614 10.9738C15.1749 10.0941 14.0931 9.00465 13.01 1.1009C12.924 0.554399 12.5109 0.188721 12 0.188721C11.4847 0.188721 11.0696 0.554399 10.9857 1.10303C9.94311 9.00677 8.83564 10.1282 1.14287 10.9738C0.582379 11.0437 0.181152 11.4632 0.181152 11.9999C0.181152 12.5325 0.578113 12.952 1.1386 13.0143C8.82714 14.044 9.84858 15.0051 10.9857 22.8893C11.0759 23.438 11.4912 23.8112 12 23.8112Z" fill="white" fill-opacity="0.85"/>
<path d="M12 23.8112C12.513 23.8112 12.9304 23.4358 13.01 22.8872C14.0569 14.991 15.1643 13.8696 22.8592 13.0143C23.4155 12.9562 23.8188 12.5325 23.8188 11.9999C23.8188 11.4653 23.4176 11.0458 22.8614 10.9738C15.1749 10.0941 14.0931 9.00465 13.01 1.1009C12.924 0.554399 12.5109 0.188721 12 0.188721C11.4847 0.188721 11.0696 0.554399 10.9857 1.10303C9.94311 9.00677 8.83564 10.1282 1.14287 10.9738C0.582379 11.0437 0.181152 11.4632 0.181152 11.9999C0.181152 12.5325 0.578113 12.952 1.1386 13.0143C8.82714 14.044 9.84858 15.0051 10.9857 22.8893C11.0759 23.438 11.4912 23.8112 12 23.8112Z" fill="url(#paint0_linear_432_2276)"/>
<defs>
<linearGradient id="paint0_linear_432_2276" x1="12" y1="0.188721" x2="12" y2="23.8112" gradientUnits="userSpaceOnUse">
<stop offset="0.38" stop-color="white"/>
<stop offset="1" stop-color="#BFADB9"/>
</linearGradient>
</defs>
</svg>
