<svg width="25" height="24" viewBox="0 0 25 24" fill="none" xmlns="http://www.w3.org/2000/svg">
<path fill-rule="evenodd" clip-rule="evenodd" d="M1.91484 11.4408C8.46454 8.59635 12.8248 6.7063 15.0142 5.78934C21.2458 3.18817 22.5557 2.73905 23.3979 2.72034C23.585 2.72034 23.9967 2.75776 24.2774 2.98233C24.5019 3.16946 24.5581 3.41273 24.5955 3.59987C24.6329 3.787 24.6704 4.17998 24.6329 4.4794C24.2961 8.03495 22.8364 16.6618 22.0879 20.6291C21.7698 22.3133 21.1522 22.8747 20.5534 22.9308C19.2435 23.0431 18.2517 22.07 16.9979 21.2466C15.0142 19.9554 13.9101 19.1507 11.9827 17.8782C9.75577 16.4186 11.1967 15.6139 12.4692 14.3039C12.8061 13.9671 18.5511 8.72735 18.6634 8.25951C18.6821 8.20337 18.6821 7.97881 18.5511 7.86653C18.4201 7.75425 18.2329 7.79167 18.0832 7.8291C17.8774 7.86653 14.7335 9.96243 8.61425 14.0981C7.716 14.7156 6.91133 15.0151 6.1815 14.9963C5.37683 14.9776 3.84233 14.5472 2.68209 14.1729C1.27859 13.7238 0.155782 13.4806 0.249349 12.6946C0.305489 12.2829 0.866892 11.8712 1.91484 11.4408Z" fill="#563A4A"/>
<path fill-rule="evenodd" clip-rule="evenodd" d="M1.91484 11.4408C8.46454 8.59635 12.8248 6.7063 15.0142 5.78934C21.2458 3.18817 22.5557 2.73905 23.3979 2.72034C23.585 2.72034 23.9967 2.75776 24.2774 2.98233C24.5019 3.16946 24.5581 3.41273 24.5955 3.59987C24.6329 3.787 24.6704 4.17998 24.6329 4.4794C24.2961 8.03495 22.8364 16.6618 22.0879 20.6291C21.7698 22.3133 21.1522 22.8747 20.5534 22.9308C19.2435 23.0431 18.2517 22.07 16.9979 21.2466C15.0142 19.9554 13.9101 19.1507 11.9827 17.8782C9.75577 16.4186 11.1967 15.6139 12.4692 14.3039C12.8061 13.9671 18.5511 8.72735 18.6634 8.25951C18.6821 8.20337 18.6821 7.97881 18.5511 7.86653C18.4201 7.75425 18.2329 7.79167 18.0832 7.8291C17.8774 7.86653 14.7335 9.96243 8.61425 14.0981C7.716 14.7156 6.91133 15.0151 6.1815 14.9963C5.37683 14.9776 3.84233 14.5472 2.68209 14.1729C1.27859 13.7238 0.155782 13.4806 0.249349 12.6946C0.305489 12.2829 0.866892 11.8712 1.91484 11.4408Z" fill="url(#paint0_linear_432_2260)"/>
<path fill-rule="evenodd" clip-rule="evenodd" d="M1.91484 11.4408C8.46454 8.59635 12.8248 6.7063 15.0142 5.78934C21.2458 3.18817 22.5557 2.73905 23.3979 2.72034C23.585 2.72034 23.9967 2.75776 24.2774 2.98233C24.5019 3.16946 24.5581 3.41273 24.5955 3.59987C24.6329 3.787 24.6704 4.17998 24.6329 4.4794C24.2961 8.03495 22.8364 16.6618 22.0879 20.6291C21.7698 22.3133 21.1522 22.8747 20.5534 22.9308C19.2435 23.0431 18.2517 22.07 16.9979 21.2466C15.0142 19.9554 13.9101 19.1507 11.9827 17.8782C9.75577 16.4186 11.1967 15.6139 12.4692 14.3039C12.8061 13.9671 18.5511 8.72735 18.6634 8.25951C18.6821 8.20337 18.6821 7.97881 18.5511 7.86653C18.4201 7.75425 18.2329 7.79167 18.0832 7.8291C17.8774 7.86653 14.7335 9.96243 8.61425 14.0981C7.716 14.7156 6.91133 15.0151 6.1815 14.9963C5.37683 14.9776 3.84233 14.5472 2.68209 14.1729C1.27859 13.7238 0.155782 13.4806 0.249349 12.6946C0.305489 12.2829 0.866892 11.8712 1.91484 11.4408Z" fill="url(#paint1_linear_432_2260)"/>
<defs>
<linearGradient id="paint0_linear_432_2260" x1="13.1121" y1="3.67955" x2="18.1739" y2="23.5528" gradientUnits="userSpaceOnUse">
<stop stop-color="#BFADB9"/>
<stop offset="0.604224" stop-color="white"/>
<stop offset="1" stop-color="#BFADB9"/>
</linearGradient>
<linearGradient id="paint1_linear_432_2260" x1="12.4462" y1="2.72034" x2="12.4462" y2="22.9397" gradientUnits="userSpaceOnUse">
<stop offset="0.38" stop-color="white"/>
<stop offset="1" stop-color="#BFADB9"/>
</linearGradient>
</defs>
</svg>
