<svg width="24" height="24" viewBox="0 0 24 24" fill="none" xmlns="http://www.w3.org/2000/svg">
<path d="M7.32377 10.2036L11.2292 20.6867C11.5455 21.5564 11.087 22.3628 10.1541 22.3628C9.5532 22.3628 9.18955 22.0308 8.95243 21.3666L7.98784 18.5838H3.3393L2.37479 21.3666C2.15338 22.0308 1.77394 22.3628 1.17309 22.3628C0.256025 22.3628 -0.218374 21.5564 0.0978385 20.6867L3.98751 10.2036C4.27215 9.42886 4.85721 9.00195 5.64774 9.00195C6.46993 9.00195 7.03921 9.42886 7.32377 10.2036ZM3.98751 16.639H7.32377L5.65568 11.7736L3.98751 16.639Z" fill="white"/>
<path d="M7.32377 10.2036L11.2292 20.6867C11.5455 21.5564 11.087 22.3628 10.1541 22.3628C9.5532 22.3628 9.18955 22.0308 8.95243 21.3666L7.98784 18.5838H3.3393L2.37479 21.3666C2.15338 22.0308 1.77394 22.3628 1.17309 22.3628C0.256025 22.3628 -0.218374 21.5564 0.0978385 20.6867L3.98751 10.2036C4.27215 9.42886 4.85721 9.00195 5.64774 9.00195C6.46993 9.00195 7.03921 9.42886 7.32377 10.2036ZM3.98751 16.639H7.32377L5.65568 11.7736L3.98751 16.639Z" fill="url(#paint0_linear_432_2271)"/>
<path fill-rule="evenodd" clip-rule="evenodd" d="M12.4512 4.82382C11.8029 4.82382 11.3286 5.26648 11.3286 5.86733C11.3286 6.48397 11.8029 6.9425 12.4512 6.9425H13.6529C14.0798 8.49207 14.8862 9.96255 15.993 11.1958C14.9179 11.9074 13.6687 12.4292 12.2299 12.777C11.6133 12.9194 11.2496 13.5044 11.3761 14.1369C11.5499 14.7693 12.1825 15.0539 12.8623 14.8642C14.5858 14.4846 16.1986 13.7573 17.6375 12.698C19.0131 13.7416 20.6259 14.4689 22.2228 14.8484C22.9976 15.0381 23.6458 14.8009 23.8198 14.1369C23.9937 13.4569 23.6775 12.9194 22.9976 12.777C21.5587 12.445 20.3254 11.9232 19.2186 11.1958C20.3412 9.99421 21.1318 8.53951 21.5587 6.9425H22.7762C23.4245 6.9425 23.8989 6.48397 23.8989 5.86733C23.8989 5.26648 23.4245 4.82382 22.7762 4.82382H12.4512ZM15.8824 6.9425C16.246 8.00189 16.8627 8.99805 17.6375 9.85189C18.3964 8.98226 18.9814 7.9861 19.3451 6.9425H15.8824Z" fill="white"/>
<path fill-rule="evenodd" clip-rule="evenodd" d="M12.4512 4.82382C11.8029 4.82382 11.3286 5.26648 11.3286 5.86733C11.3286 6.48397 11.8029 6.9425 12.4512 6.9425H13.6529C14.0798 8.49207 14.8862 9.96255 15.993 11.1958C14.9179 11.9074 13.6687 12.4292 12.2299 12.777C11.6133 12.9194 11.2496 13.5044 11.3761 14.1369C11.5499 14.7693 12.1825 15.0539 12.8623 14.8642C14.5858 14.4846 16.1986 13.7573 17.6375 12.698C19.0131 13.7416 20.6259 14.4689 22.2228 14.8484C22.9976 15.0381 23.6458 14.8009 23.8198 14.1369C23.9937 13.4569 23.6775 12.9194 22.9976 12.777C21.5587 12.445 20.3254 11.9232 19.2186 11.1958C20.3412 9.99421 21.1318 8.53951 21.5587 6.9425H22.7762C23.4245 6.9425 23.8989 6.48397 23.8989 5.86733C23.8989 5.26648 23.4245 4.82382 22.7762 4.82382H12.4512ZM15.8824 6.9425C16.246 8.00189 16.8627 8.99805 17.6375 9.85189C18.3964 8.98226 18.9814 7.9861 19.3451 6.9425H15.8824Z" fill="url(#paint1_linear_432_2271)"/>
<path d="M16.0563 0.633722C15.5187 0.886708 15.2815 1.53492 15.5662 2.11998L16.3251 3.71699C16.5781 4.28619 17.2264 4.50752 17.7798 4.27041C18.3648 3.96998 18.602 3.33747 18.3173 2.76828L17.5426 1.18713C17.258 0.586281 16.6255 0.317428 16.0563 0.633722Z" fill="white"/>
<path d="M16.0563 0.633722C15.5187 0.886708 15.2815 1.53492 15.5662 2.11998L16.3251 3.71699C16.5781 4.28619 17.2264 4.50752 17.7798 4.27041C18.3648 3.96998 18.602 3.33747 18.3173 2.76828L17.5426 1.18713C17.258 0.586281 16.6255 0.317428 16.0563 0.633722Z" fill="url(#paint2_linear_432_2271)"/>
<defs>
<linearGradient id="paint0_linear_432_2271" x1="5.66439" y1="9.00195" x2="5.66439" y2="22.3628" gradientUnits="userSpaceOnUse">
<stop offset="0.38" stop-color="white"/>
<stop offset="1" stop-color="#BFADB9"/>
</linearGradient>
<linearGradient id="paint1_linear_432_2271" x1="17.6138" y1="0.5" x2="17.6138" y2="14.9221" gradientUnits="userSpaceOnUse">
<stop offset="0.38" stop-color="white"/>
<stop offset="1" stop-color="#BFADB9"/>
</linearGradient>
<linearGradient id="paint2_linear_432_2271" x1="17.6138" y1="0.5" x2="17.6138" y2="14.9221" gradientUnits="userSpaceOnUse">
<stop offset="0.38" stop-color="white"/>
<stop offset="1" stop-color="#BFADB9"/>
</linearGradient>
</defs>
</svg>
