<svg width="28" height="28" viewBox="0 0 28 28" fill="none" xmlns="http://www.w3.org/2000/svg">
<path d="M13.9999 26.71C17.6652 26.71 20.6581 21.2911 20.6581 14.0263C20.6581 6.72204 17.6784 1.30316 13.9999 1.30316C10.3214 1.30316 7.34161 6.72204 7.34161 14.0263C7.34161 21.2911 10.3345 26.71 13.9999 26.71ZM13.9999 2.8985C16.584 2.8985 18.8914 8.04055 18.8914 14.0263C18.8914 19.9067 16.584 25.1014 13.9999 25.1014C11.4157 25.1014 9.10836 19.9067 9.10836 14.0263C9.10836 8.04055 11.4157 2.8985 13.9999 2.8985ZM13.1428 1.48775V26.4595H14.87V1.48775H13.1428ZM13.9999 18.9574C9.93895 18.9574 6.33957 20.0254 4.49372 21.7262L5.82537 22.8205C7.56573 21.4361 10.4004 20.6846 13.9999 20.6846C17.5993 20.6846 20.4339 21.4361 22.1743 22.8205L23.506 21.7262C21.6601 20.0254 18.0607 18.9574 13.9999 18.9574ZM26.1693 13.1298H1.83042V14.857H26.1693V13.1298ZM13.9999 9.10848C18.0607 9.10848 21.6601 8.04055 23.506 6.33969L22.1743 5.24537C20.4339 6.61658 17.5993 7.38129 13.9999 7.38129C10.4004 7.38129 7.56573 6.61658 5.82537 5.24537L4.49372 6.33969C6.33957 8.04055 9.93895 9.10848 13.9999 9.10848ZM13.9999 27.4483C21.4228 27.4483 27.4482 21.4229 27.4482 14C27.4482 6.57702 21.4228 0.551636 13.9999 0.551636C6.57689 0.551636 0.551514 6.57702 0.551514 14C0.551514 21.4229 6.57689 27.4483 13.9999 27.4483ZM13.9999 25.6552C7.56573 25.6552 2.34463 20.4341 2.34463 14C2.34463 7.56585 7.56573 2.34475 13.9999 2.34475C20.4339 2.34475 25.6551 7.56585 25.6551 14C25.6551 20.4341 20.4339 25.6552 13.9999 25.6552Z" fill="#563A4A"/>
<path d="M13.9999 26.71C17.6652 26.71 20.6581 21.2911 20.6581 14.0263C20.6581 6.72204 17.6784 1.30316 13.9999 1.30316C10.3214 1.30316 7.34161 6.72204 7.34161 14.0263C7.34161 21.2911 10.3345 26.71 13.9999 26.71ZM13.9999 2.8985C16.584 2.8985 18.8914 8.04055 18.8914 14.0263C18.8914 19.9067 16.584 25.1014 13.9999 25.1014C11.4157 25.1014 9.10836 19.9067 9.10836 14.0263C9.10836 8.04055 11.4157 2.8985 13.9999 2.8985ZM13.1428 1.48775V26.4595H14.87V1.48775H13.1428ZM13.9999 18.9574C9.93895 18.9574 6.33957 20.0254 4.49372 21.7262L5.82537 22.8205C7.56573 21.4361 10.4004 20.6846 13.9999 20.6846C17.5993 20.6846 20.4339 21.4361 22.1743 22.8205L23.506 21.7262C21.6601 20.0254 18.0607 18.9574 13.9999 18.9574ZM26.1693 13.1298H1.83042V14.857H26.1693V13.1298ZM13.9999 9.10848C18.0607 9.10848 21.6601 8.04055 23.506 6.33969L22.1743 5.24537C20.4339 6.61658 17.5993 7.38129 13.9999 7.38129C10.4004 7.38129 7.56573 6.61658 5.82537 5.24537L4.49372 6.33969C6.33957 8.04055 9.93895 9.10848 13.9999 9.10848ZM13.9999 27.4483C21.4228 27.4483 27.4482 21.4229 27.4482 14C27.4482 6.57702 21.4228 0.551636 13.9999 0.551636C6.57689 0.551636 0.551514 6.57702 0.551514 14C0.551514 21.4229 6.57689 27.4483 13.9999 27.4483ZM13.9999 25.6552C7.56573 25.6552 2.34463 20.4341 2.34463 14C2.34463 7.56585 7.56573 2.34475 13.9999 2.34475C20.4339 2.34475 25.6551 7.56585 25.6551 14C25.6551 20.4341 20.4339 25.6552 13.9999 25.6552Z" fill="url(#paint0_linear_432_2265)"/>
<path d="M13.9999 26.71C17.6652 26.71 20.6581 21.2911 20.6581 14.0263C20.6581 6.72204 17.6784 1.30316 13.9999 1.30316C10.3214 1.30316 7.34161 6.72204 7.34161 14.0263C7.34161 21.2911 10.3345 26.71 13.9999 26.71ZM13.9999 2.8985C16.584 2.8985 18.8914 8.04055 18.8914 14.0263C18.8914 19.9067 16.584 25.1014 13.9999 25.1014C11.4157 25.1014 9.10836 19.9067 9.10836 14.0263C9.10836 8.04055 11.4157 2.8985 13.9999 2.8985ZM13.1428 1.48775V26.4595H14.87V1.48775H13.1428ZM13.9999 18.9574C9.93895 18.9574 6.33957 20.0254 4.49372 21.7262L5.82537 22.8205C7.56573 21.4361 10.4004 20.6846 13.9999 20.6846C17.5993 20.6846 20.4339 21.4361 22.1743 22.8205L23.506 21.7262C21.6601 20.0254 18.0607 18.9574 13.9999 18.9574ZM26.1693 13.1298H1.83042V14.857H26.1693V13.1298ZM13.9999 9.10848C18.0607 9.10848 21.6601 8.04055 23.506 6.33969L22.1743 5.24537C20.4339 6.61658 17.5993 7.38129 13.9999 7.38129C10.4004 7.38129 7.56573 6.61658 5.82537 5.24537L4.49372 6.33969C6.33957 8.04055 9.93895 9.10848 13.9999 9.10848ZM13.9999 27.4483C21.4228 27.4483 27.4482 21.4229 27.4482 14C27.4482 6.57702 21.4228 0.551636 13.9999 0.551636C6.57689 0.551636 0.551514 6.57702 0.551514 14C0.551514 21.4229 6.57689 27.4483 13.9999 27.4483ZM13.9999 25.6552C7.56573 25.6552 2.34463 20.4341 2.34463 14C2.34463 7.56585 7.56573 2.34475 13.9999 2.34475C20.4339 2.34475 25.6551 7.56585 25.6551 14C25.6551 20.4341 20.4339 25.6552 13.9999 25.6552Z" fill="url(#paint1_linear_432_2265)"/>
<defs>
<linearGradient id="paint0_linear_432_2265" x1="14.7338" y1="1.82762" x2="22.6409" y2="27.5481" gradientUnits="userSpaceOnUse">
<stop stop-color="#BFADB9"/>
<stop offset="0.604224" stop-color="white"/>
<stop offset="1" stop-color="#BFADB9"/>
</linearGradient>
<linearGradient id="paint1_linear_432_2265" x1="13.9999" y1="0.551636" x2="13.9999" y2="27.4483" gradientUnits="userSpaceOnUse">
<stop offset="0.38" stop-color="white"/>
<stop offset="1" stop-color="#BFADB9"/>
</linearGradient>
</defs>
</svg>
