<svg width="188" height="63" viewBox="0 0 188 63" fill="none" xmlns="http://www.w3.org/2000/svg">
<g clip-path="url(#clip0_57_865)">
<path d="M173.07 0.376058H15.8239C15.2507 0.376058 14.6844 0.376058 14.1127 0.379184C13.6342 0.38231 13.1595 0.391391 12.6763 0.399035C11.6267 0.411386 10.5796 0.503724 9.54407 0.675247C8.50998 0.850503 7.50827 1.18091 6.57285 1.6553C5.63856 2.1337 4.78488 2.75533 4.04277 3.49764C3.29676 4.23786 2.67491 5.09345 2.20112 6.03153C1.72602 6.96773 1.39659 7.97096 1.22419 9.00657C1.05016 10.0409 0.956515 11.0871 0.944091 12.1358C0.929585 12.6151 0.928054 13.0959 0.92041 13.5752V49.7046C0.928054 50.19 0.929585 50.6601 0.944091 51.1456C0.956519 52.1943 1.05017 53.2405 1.22419 54.2748C1.39611 55.311 1.72556 56.3148 2.20112 57.2513C2.67469 58.1864 3.29663 59.0385 4.04277 59.7746C4.78207 60.5202 5.6363 61.1423 6.57285 61.617C7.50827 62.0927 8.50986 62.425 9.54407 62.603C10.5798 62.7731 11.6268 62.8655 12.6763 62.8794C13.1595 62.89 13.6342 62.8961 14.1127 62.8961C14.6844 62.8992 15.2507 62.8992 15.8239 62.8992H173.07C173.631 62.8992 174.202 62.8992 174.764 62.8961C175.24 62.8961 175.729 62.89 176.205 62.8794C177.253 62.8663 178.298 62.7739 179.331 62.603C180.369 62.4238 181.374 62.0915 182.314 61.617C183.25 61.142 184.103 60.52 184.842 59.7746C185.586 59.0356 186.209 58.1841 186.689 57.2513C187.161 56.3141 187.487 55.3104 187.656 54.2748C187.831 53.2404 187.928 52.1944 187.946 51.1456C187.953 50.6601 187.953 50.19 187.953 49.7046C187.965 49.1368 187.965 48.572 187.965 47.9949V15.2818C187.965 14.7094 187.965 14.1415 187.953 13.5752C187.953 13.0959 187.953 12.6151 187.946 12.1358C187.928 11.0869 187.831 10.0409 187.656 9.0065C187.486 7.9715 187.16 6.96835 186.689 6.03146C185.724 4.1512 184.194 2.62068 182.314 1.65516C181.374 1.18193 180.369 0.851609 179.331 0.675106C178.298 0.502828 177.253 0.410458 176.205 0.398816C175.729 0.391188 175.24 0.382029 174.764 0.378981C174.202 0.375854 173.631 0.375854 173.07 0.375854V0.376058Z" fill="#A6A6A6"/>
<path d="M14.1203 61.5315C13.6441 61.5315 13.1794 61.5254 12.7068 61.5148C11.728 61.5021 10.7515 61.4168 9.78523 61.2599C8.88426 61.1047 8.01146 60.8161 7.19562 60.4035C6.38726 59.9943 5.64997 59.4578 5.012 58.8144C4.36479 58.1787 3.82596 57.4413 3.41686 56.6316C3.00325 55.8166 2.71701 54.943 2.56811 54.0413C2.40731 53.0723 2.32031 52.0926 2.30786 51.1105C2.29795 50.7808 2.28497 49.6832 2.28497 49.6832V13.5752C2.28497 13.5752 2.29879 12.4945 2.30793 12.177C2.31985 11.1965 2.40635 10.2182 2.56667 9.25082C2.71585 8.34661 3.00231 7.4705 3.41614 6.65283C3.82374 5.84364 4.35958 5.10574 5.00289 4.46772C5.64547 3.82364 6.38512 3.28435 7.19485 2.86952C8.00882 2.45825 8.87997 2.17164 9.77912 2.0193C10.7485 1.86075 11.7285 1.77503 12.7107 1.76286L14.1211 1.74377H174.756L176.184 1.76363C177.157 1.77519 178.128 1.86015 179.088 2.01777C179.997 2.17202 180.877 2.46063 181.7 2.8741C183.322 3.71011 184.642 5.03275 185.475 6.65664C185.882 7.46867 186.164 8.33763 186.312 9.23403C186.474 10.2094 186.565 11.1953 186.583 12.1839C186.588 12.6266 186.588 13.102 186.588 13.5752C186.6 14.1614 186.6 14.7193 186.6 15.2818V47.995C186.6 48.5628 186.6 49.1169 186.588 49.6756C186.588 50.1839 186.588 50.6495 186.582 51.1288C186.563 52.0997 186.474 53.068 186.315 54.0259C186.169 54.9342 185.884 55.8146 185.471 56.6363C185.059 57.4372 184.523 58.1682 183.883 58.8022C183.245 59.449 182.506 59.9887 181.696 60.4005C180.875 60.8163 179.996 61.106 179.088 61.2599C178.122 61.4177 177.146 61.5029 176.167 61.5148C175.709 61.5254 175.23 61.5315 174.764 61.5315L173.07 61.5347L14.1203 61.5315Z" fill="black"/>
<path d="M39.6361 32.1076C39.6529 30.8029 39.9995 29.5237 40.6435 28.389C41.2875 27.2543 42.2081 26.3009 43.3196 25.6176C42.6135 24.6091 41.682 23.7792 40.599 23.1938C39.5161 22.6083 38.3116 22.2834 37.0811 22.245C34.4563 21.9694 31.9117 23.8156 30.5742 23.8156C29.2107 23.8156 27.1514 22.2723 24.9338 22.3179C23.4994 22.3643 22.1015 22.7814 20.8762 23.5286C19.6509 24.2759 18.6401 25.3278 17.9423 26.5818C14.9193 31.8156 17.1742 39.5076 20.0699 43.7383C21.5187 45.8099 23.212 48.124 25.4276 48.0419C27.5957 47.952 28.4054 46.6594 31.0225 46.6594C33.6152 46.6594 34.3749 48.0419 36.6355 47.9897C38.9619 47.952 40.4277 45.9089 41.8257 43.8177C42.8667 42.3415 43.6677 40.7101 44.1991 38.9838C42.8475 38.4122 41.6941 37.4553 40.8826 36.2325C40.0712 35.0097 39.6377 33.5751 39.6361 32.1076V32.1076Z" fill="white"/>
<path d="M35.3663 19.4626C36.6348 17.9398 37.2598 15.9826 37.1084 14.0065C35.1705 14.21 33.3803 15.1362 32.0947 16.6006C31.4661 17.3159 30.9847 18.1482 30.678 19.0497C30.3712 19.9513 30.2452 20.9044 30.307 21.8547C31.2763 21.8647 32.2353 21.6546 33.1117 21.2402C33.988 20.8259 34.7589 20.2181 35.3663 19.4626Z" fill="white"/>
<path d="M67.0422 42.7973H59.6435L57.8667 48.0437H54.7329L61.7409 28.6334H64.9967L72.0046 48.0437H68.8174L67.0422 42.7973ZM60.4098 40.3764H66.2744L63.3834 31.8619H63.3025L60.4098 40.3764Z" fill="white"/>
<path d="M87.1394 40.9689C87.1394 45.3665 84.7856 48.192 81.2335 48.192C80.3337 48.2391 79.4389 48.0318 78.6514 47.5939C77.8639 47.156 77.2157 46.5052 76.7809 45.7161H76.7137V52.7255H73.8089V33.8923H76.6206V36.246H76.6741C77.1288 35.4606 77.788 34.8132 78.5815 34.3727C79.375 33.9321 80.273 33.7149 81.1801 33.7442C84.7718 33.7442 87.1394 36.5834 87.1394 40.9689ZM84.1536 40.9689C84.1536 38.1037 82.673 36.2201 80.4138 36.2201C78.1944 36.2201 76.7015 38.1434 76.7015 40.9689C76.7015 43.8203 78.1944 45.7298 80.4138 45.7298C82.673 45.7298 84.1536 43.8599 84.1536 40.9689Z" fill="white"/>
<path d="M102.715 40.9688C102.715 45.3665 100.361 48.192 96.8094 48.192C95.9096 48.239 95.0147 48.0318 94.2273 47.5939C93.4398 47.156 92.7915 46.5052 92.3567 45.7161H92.2895V52.7255H89.3847V33.8922H92.1964V36.246H92.2498C92.7046 35.4606 93.3638 34.8132 94.1573 34.3727C94.9508 33.9321 95.8488 33.7149 96.7559 33.7442C100.348 33.7442 102.715 36.5834 102.715 40.9688ZM99.7295 40.9688C99.7295 38.1037 98.2488 36.2201 95.9897 36.2201C93.7702 36.2201 92.2774 38.1434 92.2774 40.9688C92.2774 43.8202 93.7702 45.7298 95.9897 45.7298C98.2488 45.7298 99.7295 43.8599 99.7295 40.9688H99.7295Z" fill="white"/>
<path d="M113.01 42.6356C113.225 44.5604 115.095 45.8243 117.65 45.8243C120.098 45.8243 121.86 44.5604 121.86 42.8248C121.86 41.3182 120.797 40.4161 118.282 39.7978L115.766 39.1918C112.202 38.3309 110.547 36.664 110.547 33.9592C110.547 30.6102 113.466 28.3098 117.61 28.3098C121.712 28.3098 124.523 30.6102 124.618 33.9592H121.686C121.51 32.0221 119.909 30.8529 117.569 30.8529C115.229 30.8529 113.628 32.0359 113.628 33.7577C113.628 35.13 114.65 35.9375 117.152 36.5556L119.291 37.0807C123.273 38.0225 124.928 39.6223 124.928 42.4614C124.928 46.0928 122.035 48.3672 117.435 48.3672C113.13 48.3672 110.224 46.1463 110.036 42.6354L113.01 42.6356Z" fill="white"/>
<path d="M131.197 30.5431V33.8921H133.888V36.1925H131.197V43.9941C131.197 45.2061 131.736 45.7709 132.919 45.7709C133.238 45.7653 133.557 45.7429 133.874 45.7037V47.9903C133.343 48.0897 132.802 48.1347 132.261 48.1246C129.396 48.1246 128.278 47.0485 128.278 44.3039V36.1925H126.221V33.8921H128.278V30.5431H131.197Z" fill="white"/>
<path d="M135.447 40.9687C135.447 36.5161 138.069 33.7181 142.159 33.7181C146.262 33.7181 148.872 36.5161 148.872 40.9687C148.872 45.4336 146.275 48.2194 142.159 48.2194C138.043 48.2194 135.447 45.4336 135.447 40.9687ZM145.912 40.9687C145.912 37.9143 144.512 36.1116 142.159 36.1116C139.805 36.1116 138.407 37.9281 138.407 40.9687C138.407 44.0354 139.805 45.8244 142.159 45.8244C144.512 45.8244 145.912 44.0354 145.912 40.9687H145.912Z" fill="white"/>
<path d="M151.267 33.8921H154.037V36.3008H154.104C154.292 35.5485 154.733 34.8837 155.352 34.4181C155.972 33.9525 156.734 33.7145 157.508 33.744C157.843 33.7429 158.177 33.7792 158.504 33.8524V36.5695C158.081 36.4404 157.64 36.3811 157.198 36.394C156.776 36.3768 156.356 36.4512 155.965 36.6121C155.575 36.7729 155.224 37.0163 154.936 37.3256C154.648 37.6349 154.431 38.0028 154.299 38.404C154.167 38.8052 154.124 39.2302 154.172 39.6498V48.0438H151.267L151.267 33.8921Z" fill="white"/>
<path d="M171.897 43.8873C171.506 46.4563 169.004 48.2194 165.803 48.2194C161.686 48.2194 159.131 45.4611 159.131 41.0359C159.131 36.597 161.7 33.7181 165.681 33.7181C169.596 33.7181 172.058 36.4077 172.058 40.6986V41.6938H162.063V41.8693C162.017 42.3902 162.082 42.9148 162.255 43.4085C162.427 43.9022 162.702 44.3536 163.062 44.7327C163.422 45.1118 163.859 45.41 164.343 45.6074C164.827 45.8049 165.348 45.897 165.87 45.8778C166.557 45.9421 167.246 45.7831 167.834 45.4245C168.423 45.0659 168.881 44.5267 169.138 43.8873L171.897 43.8873ZM162.077 39.6636H169.152C169.178 39.1953 169.107 38.7267 168.944 38.2872C168.78 37.8476 168.527 37.4466 168.201 37.1094C167.875 36.7721 167.483 36.5059 167.05 36.3273C166.616 36.1488 166.15 36.0618 165.681 36.0719C165.208 36.0691 164.739 36.16 164.301 36.3393C163.864 36.5187 163.466 36.7829 163.131 37.1169C162.796 37.4508 162.53 37.8478 162.349 38.2849C162.168 38.722 162.076 39.1906 162.077 39.6637V39.6636Z" fill="white"/>
<path d="M60.0457 14.0233C60.6547 13.9796 61.2658 14.0716 61.835 14.2926C62.4041 14.5137 62.9171 14.8583 63.3369 15.3017C63.7567 15.745 64.0729 16.276 64.2627 16.8563C64.4524 17.4366 64.511 18.0518 64.4343 18.6576C64.4343 21.6372 62.8239 23.3499 60.0457 23.3499H56.6769V14.0233H60.0457ZM58.1255 22.0309H59.8839C60.3191 22.0569 60.7546 21.9856 61.1587 21.8221C61.5628 21.6586 61.9254 21.407 62.22 21.0857C62.5147 20.7643 62.7339 20.3814 62.8619 19.9646C62.9898 19.5479 63.0233 19.1079 62.9597 18.6766C63.0186 18.247 62.9818 17.8097 62.8519 17.396C62.722 16.9823 62.5022 16.6025 62.2082 16.2837C61.9143 15.9649 61.5534 15.7151 61.1516 15.5522C60.7498 15.3893 60.3169 15.3173 59.8839 15.3413H58.1255V22.0309Z" fill="white"/>
<path d="M66.0706 19.8275C66.0263 19.3649 66.0792 18.8983 66.2259 18.4574C66.3726 18.0165 66.6098 17.6111 66.9223 17.2672C67.2349 16.9234 67.6158 16.6487 68.0407 16.4607C68.4656 16.2727 68.9252 16.1755 69.3898 16.1755C69.8545 16.1755 70.314 16.2727 70.7389 16.4607C71.1639 16.6487 71.5448 16.9234 71.8573 17.2672C72.1698 17.6111 72.4071 18.0165 72.5537 18.4574C72.7004 18.8983 72.7533 19.3649 72.7091 19.8275C72.7542 20.2905 72.7019 20.7578 72.5556 21.1994C72.4093 21.641 72.1722 22.0472 71.8596 22.3917C71.547 22.7362 71.1658 23.0115 70.7404 23.1999C70.3151 23.3883 69.855 23.4857 69.3898 23.4857C68.9246 23.4857 68.4646 23.3883 68.0392 23.1999C67.6139 23.0115 67.2326 22.7362 66.92 22.3917C66.6074 22.0472 66.3703 21.641 66.2241 21.1994C66.0778 20.7578 66.0255 20.2905 66.0706 19.8275V19.8275ZM71.2803 19.8275C71.2803 18.3018 70.5949 17.4096 69.3921 17.4096C68.1847 17.4096 67.5055 18.3018 67.5055 19.8275C67.5055 21.3654 68.1847 22.2507 69.3921 22.2507C70.595 22.2507 71.2803 21.3593 71.2803 19.8275H71.2803Z" fill="white"/>
<path d="M81.5335 23.3497H80.0925L78.6378 18.1659H78.5279L77.0793 23.3497H75.6521L73.712 16.3113H75.1209L76.3818 21.682H76.4856L77.9326 16.3113H79.2652L80.7123 21.682H80.8222L82.0769 16.3113H83.466L81.5335 23.3497Z" fill="white"/>
<path d="M85.0977 16.3114H86.4349V17.4295H86.5387C86.7148 17.0279 87.0118 16.6913 87.3883 16.4665C87.7648 16.2417 88.202 16.14 88.6391 16.1755C88.9815 16.1498 89.3254 16.2014 89.6452 16.3266C89.965 16.4518 90.2526 16.6473 90.4865 16.8987C90.7205 17.1502 90.8949 17.451 90.9968 17.779C91.0987 18.1069 91.1255 18.4536 91.0753 18.7934V23.3497H89.6862V19.1422C89.6862 18.0111 89.1947 17.4486 88.1674 17.4486C87.9349 17.4377 87.7028 17.4773 87.487 17.5646C87.2712 17.6519 87.0768 17.7847 86.9172 17.9542C86.7576 18.1236 86.6364 18.3255 86.5622 18.5461C86.4879 18.7667 86.4621 19.0008 86.4868 19.2322V23.3498H85.0977L85.0977 16.3114Z" fill="white"/>
<path d="M93.2886 13.5637H94.6777V23.3497H93.2886V13.5637Z" fill="white"/>
<path d="M96.6087 19.8275C96.5645 19.3649 96.6174 18.8982 96.7641 18.4573C96.9108 18.0164 97.1481 17.611 97.4606 17.2671C97.7732 16.9233 98.1542 16.6485 98.5791 16.4605C99.0041 16.2725 99.4636 16.1754 99.9283 16.1754C100.393 16.1754 100.853 16.2725 101.278 16.4605C101.702 16.6485 102.083 16.9233 102.396 17.2671C102.709 17.611 102.946 18.0164 103.092 18.4573C103.239 18.8982 103.292 19.3649 103.248 19.8275C103.293 20.2905 103.241 20.7579 103.094 21.1995C102.948 21.6411 102.711 22.0472 102.398 22.3917C102.086 22.7362 101.704 23.0115 101.279 23.1999C100.854 23.3883 100.394 23.4856 99.9283 23.4856C99.4631 23.4856 99.003 23.3883 98.5776 23.1999C98.1523 23.0115 97.771 22.7362 97.4584 22.3917C97.1458 22.0472 96.9087 21.6411 96.7623 21.1995C96.616 20.7579 96.5636 20.2905 96.6087 19.8275V19.8275ZM101.818 19.8275C101.818 18.3018 101.133 17.4096 99.9302 17.4096C98.7228 17.4096 98.0436 18.3018 98.0436 19.8275C98.0436 21.3654 98.7229 22.2507 99.9302 22.2507C101.133 22.2507 101.818 21.3593 101.818 19.8275H101.818Z" fill="white"/>
<path d="M104.71 21.3593C104.71 20.0924 105.654 19.362 107.328 19.2582L109.235 19.1483V18.5408C109.235 17.7974 108.743 17.3776 107.794 17.3776C107.018 17.3776 106.481 17.6623 106.327 18.1599H104.982C105.124 16.951 106.261 16.1755 107.858 16.1755C109.622 16.1755 110.618 17.054 110.618 18.5408V23.3498H109.28V22.3607H109.17C108.947 22.7155 108.634 23.0047 108.263 23.1989C107.891 23.393 107.475 23.4851 107.056 23.4658C106.761 23.4965 106.462 23.465 106.18 23.3732C105.897 23.2815 105.637 23.1316 105.416 22.9331C105.195 22.7346 105.018 22.492 104.896 22.221C104.775 21.9499 104.711 21.6564 104.71 21.3593V21.3593ZM109.235 20.7579V20.1695L107.516 20.2794C106.547 20.3442 106.107 20.674 106.107 21.2944C106.107 21.9279 106.656 22.2966 107.412 22.2966C107.633 22.319 107.857 22.2966 108.07 22.2308C108.282 22.165 108.479 22.0571 108.65 21.9136C108.82 21.77 108.959 21.5937 109.059 21.3952C109.16 21.1967 109.22 20.9799 109.235 20.7579V20.7579Z" fill="white"/>
<path d="M112.443 19.8275C112.443 17.6035 113.587 16.1946 115.365 16.1946C115.805 16.1743 116.241 16.2797 116.623 16.4983C117.006 16.717 117.318 17.0399 117.523 17.4294H117.627V13.5637H119.016V23.3497H117.685V22.2377H117.575C117.354 22.6246 117.031 22.9435 116.641 23.16C116.252 23.3764 115.81 23.4822 115.365 23.4657C113.574 23.4658 112.443 22.0569 112.443 19.8275ZM113.878 19.8275C113.878 21.3204 114.582 22.2187 115.759 22.2187C116.929 22.2187 117.653 21.3074 117.653 19.8336C117.653 18.3667 116.922 17.4424 115.759 17.4424C114.589 17.4424 113.878 18.3468 113.878 19.8275H113.878Z" fill="white"/>
<path d="M124.763 19.8275C124.719 19.3649 124.772 18.8983 124.918 18.4574C125.065 18.0165 125.302 17.6111 125.615 17.2672C125.927 16.9234 126.308 16.6487 126.733 16.4607C127.158 16.2727 127.618 16.1755 128.082 16.1755C128.547 16.1755 129.007 16.2727 129.431 16.4607C129.856 16.6487 130.237 16.9234 130.55 17.2672C130.862 17.6111 131.1 18.0165 131.246 18.4574C131.393 18.8983 131.446 19.3649 131.402 19.8275C131.447 20.2905 131.394 20.7578 131.248 21.1994C131.102 21.641 130.865 22.0472 130.552 22.3917C130.24 22.7362 129.858 23.0115 129.433 23.1999C129.008 23.3883 128.548 23.4857 128.082 23.4857C127.617 23.4857 127.157 23.3883 126.732 23.1999C126.306 23.0115 125.925 22.7362 125.613 22.3917C125.3 22.0472 125.063 21.641 124.917 21.1994C124.77 20.7578 124.718 20.2905 124.763 19.8275V19.8275ZM129.973 19.8275C129.973 18.3018 129.287 17.4096 128.085 17.4096C126.877 17.4096 126.198 18.3018 126.198 19.8275C126.198 21.3654 126.877 22.2507 128.085 22.2507C129.288 22.2507 129.973 21.3593 129.973 19.8275Z" fill="white"/>
<path d="M133.265 16.3114H134.603V17.4295H134.706C134.883 17.0279 135.179 16.6913 135.556 16.4665C135.932 16.2417 136.37 16.14 136.807 16.1755C137.149 16.1498 137.493 16.2014 137.813 16.3266C138.133 16.4518 138.42 16.6473 138.654 16.8987C138.888 17.1502 139.063 17.451 139.165 17.779C139.266 18.1069 139.293 18.4536 139.243 18.7934V23.3497H137.854V19.1422C137.854 18.0111 137.362 17.4486 136.335 17.4486C136.103 17.4377 135.87 17.4773 135.655 17.5646C135.439 17.6519 135.245 17.7847 135.085 17.9542C134.925 18.1236 134.804 18.3255 134.73 18.5461C134.656 18.7667 134.63 19.0008 134.655 19.2322V23.3498H133.265V16.3114Z" fill="white"/>
<path d="M147.092 14.559V16.3434H148.617V17.5134H147.092V21.1326C147.092 21.8699 147.396 22.1927 148.087 22.1927C148.264 22.1921 148.441 22.1814 148.617 22.1606V23.3177C148.367 23.3623 148.115 23.3861 147.861 23.3887C146.316 23.3887 145.701 22.8452 145.701 21.4882V17.5133H144.584V16.3433H145.701V14.559H147.092Z" fill="white"/>
<path d="M150.514 13.5637H151.891V17.4424H152.001C152.186 17.0371 152.491 16.6985 152.875 16.4729C153.259 16.2473 153.703 16.1456 154.147 16.1816C154.488 16.163 154.828 16.2199 155.145 16.3482C155.461 16.4764 155.745 16.6728 155.976 16.9235C156.208 17.1741 156.381 17.4727 156.484 17.798C156.587 18.1234 156.617 18.4674 156.571 18.8055V23.3498H155.181V19.1482C155.181 18.024 154.657 17.4546 153.676 17.4546C153.437 17.435 153.197 17.4679 152.972 17.5508C152.747 17.6337 152.543 17.7647 152.375 17.9347C152.206 18.1047 152.076 18.3095 151.995 18.5348C151.913 18.7601 151.882 19.0004 151.903 19.239V23.3497H150.514L150.514 13.5637Z" fill="white"/>
<path d="M164.671 21.4494C164.482 22.0927 164.073 22.6491 163.515 23.0213C162.958 23.3936 162.287 23.5579 161.621 23.4857C161.157 23.4979 160.696 23.4091 160.27 23.2254C159.844 23.0417 159.463 22.7675 159.154 22.4218C158.845 22.0762 158.614 21.6673 158.479 21.2237C158.343 20.7801 158.306 20.3123 158.369 19.8527C158.308 19.3918 158.346 18.923 158.481 18.478C158.616 18.0331 158.845 17.6223 159.153 17.2737C159.461 16.925 159.84 16.6465 160.264 16.457C160.689 16.2676 161.15 16.1716 161.615 16.1755C163.573 16.1755 164.754 17.5135 164.754 19.7237V20.2084H159.784V20.2863C159.763 20.5445 159.795 20.8045 159.88 21.0495C159.964 21.2946 160.099 21.5192 160.276 21.709C160.452 21.8989 160.666 22.0498 160.905 22.152C161.143 22.2542 161.4 22.3055 161.659 22.3026C161.991 22.3425 162.328 22.2827 162.626 22.1307C162.924 21.9788 163.17 21.7416 163.333 21.4493L164.671 21.4494ZM159.784 19.1811H163.339C163.357 18.9449 163.325 18.7076 163.245 18.4845C163.166 18.2614 163.04 18.0575 162.877 17.8858C162.714 17.7141 162.516 17.5784 162.298 17.4874C162.079 17.3965 161.844 17.3523 161.607 17.3578C161.367 17.3547 161.128 17.3999 160.906 17.4904C160.683 17.581 160.481 17.7152 160.311 17.8851C160.141 18.0551 160.007 18.2573 159.917 18.4798C159.826 18.7024 159.781 18.9409 159.784 19.1811H159.784Z" fill="white"/>
</g>
<defs>
<clipPath id="clip0_57_865">
<rect width="187.044" height="62.5231" fill="white" transform="translate(0.92041 0.375977)"/>
</clipPath>
</defs>
</svg>
