<svg width="33" height="113" viewBox="0 0 33 113" fill="none" xmlns="http://www.w3.org/2000/svg">
    <g opacity="0.35">
        <path
            d="M32.8521 5.76062C32.8521 8.70614 30.4643 11.094 27.5188 11.094C24.5733 11.094 22.1855 8.70614 22.1855 5.76062C22.1855 2.8151 24.5733 0.427287 27.5188 0.427287C30.4643 0.427287 32.8521 2.8151 32.8521 5.76062ZM-2.77422 4.76062H27.5188V6.76062H-2.77422V4.76062Z"
            fill="#7B5C41" style="mix-blend-mode:plus-lighter" />
    </g>
    <g opacity="0.35">
        <path
            d="M32.8521 106.888C32.8521 103.943 30.4643 101.555 27.5188 101.555C24.5732 101.555 22.1854 103.943 22.1854 106.888C22.1854 109.834 24.5732 112.222 27.5188 112.222C30.4643 112.222 32.8521 109.834 32.8521 106.888ZM-2.77425 107.888H27.5188V105.888H-2.77425V107.888Z"
            fill="#7B5C41" style="mix-blend-mode:plus-lighter" />
    </g>
    <g opacity="0.35">
        <path
            d="M32.8521 32.6815C32.8521 35.627 30.4643 38.0149 27.5188 38.0149C24.5732 38.0149 22.1854 35.627 22.1854 32.6815C22.1854 29.736 24.5732 27.3482 27.5188 27.3482C30.4643 27.3482 32.8521 29.736 32.8521 32.6815ZM-2.77425 31.6815H27.5188V33.6815H-2.77425V31.6815Z"
            fill="#7B5C41" style="mix-blend-mode:plus-lighter" />
    </g>
    <g opacity="0.35">
        <path
            d="M32.8521 79.9673C32.8521 77.0218 30.4643 74.634 27.5188 74.634C24.5732 74.634 22.1854 77.0218 22.1854 79.9673C22.1854 82.9128 24.5732 85.3006 27.5188 85.3006C30.4643 85.3006 32.8521 82.9128 32.8521 79.9673ZM-2.77425 80.9673H27.5188V78.9673H-2.77425V80.9673Z"
            fill="#7B5C41" style="mix-blend-mode:plus-lighter" />
    </g>
</svg>