<svg width="144" height="39" viewBox="0 0 144 39" fill="none" xmlns="http://www.w3.org/2000/svg">
    <g opacity="0.35">
        <path
            d="M143.539 5.80103C143.539 2.85551 141.151 0.467692 138.206 0.467692C135.26 0.467692 132.872 2.85551 132.872 5.80102C132.872 8.74654 135.26 11.1344 138.206 11.1344C141.151 11.1344 143.539 8.74654 143.539 5.80103ZM0.744141 6.80101L138.206 6.80103L138.206 4.80103L0.744141 4.80101L0.744141 6.80101Z"
            fill="#7B5C41" style="mix-blend-mode:plus-lighter" />
    </g>
    <g opacity="0.35">
        <path
            d="M143.539 32.7219C143.539 35.6674 141.151 38.0553 138.206 38.0553C135.26 38.0553 132.872 35.6674 132.872 32.7219C132.872 29.7764 135.26 27.3886 138.206 27.3886C141.151 27.3886 143.539 29.7764 143.539 32.7219ZM0.744141 31.7219H138.206V33.7219H0.744141V31.7219Z"
            fill="#7B5C41" style="mix-blend-mode:plus-lighter" />
    </g>
</svg>