<svg width="188" height="64" viewBox="0 0 188 64" fill="none" xmlns="http://www.w3.org/2000/svg">
<g clip-path="url(#clip0_218_5043)">
<path d="M172.389 0.663412H15.1465C14.5733 0.663412 14.0071 0.663412 13.4354 0.666552C12.9569 0.669692 12.4822 0.678814 11.999 0.686492C10.9495 0.698898 9.90239 0.791647 8.86687 0.963934C7.8328 1.13997 6.83112 1.47185 5.89571 1.94835C4.96145 2.42888 4.10779 3.05328 3.36569 3.7989C2.61971 4.54242 1.99787 5.40183 1.52409 6.34408C1.049 7.28446 0.719574 8.29216 0.547185 9.33238C0.373158 10.3713 0.279512 11.4222 0.267088 12.4756C0.252583 12.957 0.251051 13.44 0.243408 13.9214V50.2118C0.251051 50.6993 0.252583 51.1716 0.267088 51.6592C0.279516 52.7126 0.373162 53.7635 0.547185 54.8023C0.719098 55.8431 1.04854 56.8514 1.52409 57.7921C1.99765 58.7313 2.61958 59.5873 3.36569 60.3267C4.10497 61.0756 4.95919 61.7004 5.89571 62.1773C6.83111 62.655 7.83268 62.9889 8.86687 63.1677C9.90257 63.3386 10.9496 63.4314 11.999 63.4452C12.4822 63.4559 12.9569 63.462 13.4354 63.462C14.007 63.4652 14.5734 63.4652 15.1465 63.4652H172.389C172.95 63.4652 173.521 63.4652 174.083 63.462C174.559 63.462 175.048 63.4559 175.524 63.4452C176.572 63.4321 177.617 63.3393 178.65 63.1677C179.688 62.9876 180.693 62.6539 181.633 62.1773C182.568 61.7001 183.422 61.0753 184.16 60.3267C184.905 59.5844 185.528 58.7291 186.007 57.7921C186.479 56.8507 186.806 55.8425 186.975 54.8023C187.149 53.7633 187.246 52.7127 187.265 51.6592C187.271 51.1716 187.271 50.6993 187.271 50.2118C187.283 49.6414 187.283 49.0742 187.283 48.4945V15.6356C187.283 15.0606 187.283 14.4902 187.271 13.9214C187.271 13.44 187.271 12.957 187.265 12.4755C187.246 11.422 187.149 10.3714 186.975 9.33232C186.805 8.2927 186.479 7.28508 186.007 6.34402C185.042 4.45538 183.513 2.91804 181.633 1.94821C180.693 1.47288 179.688 1.14108 178.65 0.963793C177.617 0.790747 176.572 0.697965 175.524 0.686272C175.048 0.67861 174.559 0.66941 174.083 0.666348C173.521 0.663208 172.95 0.663208 172.389 0.663208V0.663412Z" fill="#A6A6A6"/>
<path d="M13.4434 62.0913C12.9672 62.0913 12.5025 62.0852 12.03 62.0745C11.0512 62.0617 10.0746 61.9761 9.10842 61.8184C8.20747 61.6626 7.33469 61.3726 6.51887 60.9582C5.71053 60.5472 4.97326 60.0083 4.3353 59.3621C3.68811 58.7235 3.14929 57.9829 2.7402 57.1695C2.3266 56.3509 2.04037 55.4734 1.89147 54.5676C1.73067 53.5944 1.64367 52.6103 1.63122 51.6238C1.62131 51.2927 1.60834 50.1902 1.60834 50.1902V13.9213C1.60834 13.9213 1.62215 12.8358 1.6313 12.5168C1.64322 11.5319 1.72971 10.5493 1.89003 9.57761C2.0392 8.66937 2.32566 7.78936 2.73948 6.96804C3.14707 6.15525 3.68289 5.41406 4.32619 4.77319C4.96876 4.12624 5.70839 3.58455 6.5181 3.16787C7.33205 2.75477 8.20318 2.46688 9.10231 2.31386C10.0717 2.15461 11.0516 2.0685 12.0338 2.05628L13.4442 2.03711H174.076L175.503 2.05705C176.476 2.06867 177.447 2.154 178.408 2.31232C179.316 2.46726 180.196 2.75716 181.019 3.17247C182.642 4.0122 183.962 5.34074 184.794 6.97187C185.201 7.78752 185.483 8.66035 185.631 9.56074C185.793 10.5405 185.884 11.5308 185.902 12.5237C185.907 12.9684 185.907 13.446 185.907 13.9213C185.919 14.5101 185.919 15.0705 185.919 15.6355V48.4944C185.919 49.0648 185.919 49.6214 185.907 50.1825C185.907 50.6931 185.907 51.1608 185.901 51.6422C185.883 52.6175 185.793 53.5901 185.634 54.5523C185.488 55.4646 185.203 56.3489 184.79 57.1742C184.378 57.9788 183.842 58.713 183.202 59.3498C182.564 59.9995 181.825 60.5416 181.015 60.9552C180.194 61.3728 179.315 61.6638 178.408 61.8184C177.442 61.9769 176.465 62.0625 175.486 62.0745C175.028 62.0852 174.549 62.0913 174.083 62.0913L172.389 62.0944L13.4434 62.0913Z" fill="black"/>
<path fill-rule="evenodd" clip-rule="evenodd" d="M14.4787 14.9438C14.0639 15.3718 13.8243 16.0259 13.8243 16.882V47.2455C13.8243 48.1016 14.0639 48.7557 14.493 49.1666L14.6039 49.259L32.3697 32.2469V31.8668L14.5896 14.8513L14.4787 14.9438Z" fill="url(#paint0_linear_218_5043)"/>
<path fill-rule="evenodd" clip-rule="evenodd" d="M38.2804 37.9348L32.3548 32.2607V31.8635L38.2804 26.1893L38.4091 26.2647L45.4182 30.0794C47.4244 31.1615 47.4244 32.949 45.4182 34.0448L38.4091 37.8595L38.2804 37.9348Z" fill="url(#paint1_linear_218_5043)"/>
<path fill-rule="evenodd" clip-rule="evenodd" d="M38.4097 37.8595L32.3555 32.0621L14.4788 49.1804C15.1332 49.8516 16.2311 49.9269 17.4577 49.2728L38.4097 37.8595Z" fill="url(#paint2_linear_218_5043)"/>
<path fill-rule="evenodd" clip-rule="evenodd" d="M38.4097 26.2645L17.4577 14.8683C16.2311 14.1972 15.1297 14.2896 14.4788 14.9608L32.3555 32.0619L38.4097 26.2645Z" fill="url(#paint3_linear_218_5043)"/>
<path opacity="0.2" fill-rule="evenodd" clip-rule="evenodd" d="M38.2805 37.7361L17.4713 49.0569C16.3091 49.6973 15.272 49.6527 14.6033 49.0706L14.4925 49.1768L14.6033 49.2692C15.272 49.8479 16.3091 49.8959 17.4713 49.2555L38.4235 37.8594L38.2805 37.7361Z" fill="black"/>
<path opacity="0.12" fill-rule="evenodd" clip-rule="evenodd" d="M45.4189 33.8462L38.2632 37.7363L38.3919 37.8595L45.401 34.0448C46.4058 33.4969 46.8993 32.7778 46.8993 32.0621C46.8385 32.7196 46.3272 33.3428 45.4189 33.8462Z" fill="black"/>
<path opacity="0.25" fill-rule="evenodd" clip-rule="evenodd" d="M17.4575 15.067L45.4187 30.2779C46.327 30.7675 46.8384 31.4079 46.917 32.0619C46.917 31.3462 46.4235 30.6271 45.4187 30.0792L17.4575 14.8683C15.4514 13.7691 13.8243 14.6869 13.8243 16.8819V17.0805C13.8243 14.882 15.4514 13.9814 17.4575 15.067Z" fill="white"/>
<path d="M107.044 24.1165C105.597 24.1165 104.378 23.6318 103.413 22.6777C102.457 21.7504 101.923 20.4719 101.947 19.1668C101.947 17.7739 102.441 16.5946 103.413 15.6597C104.374 14.7056 105.593 14.2209 107.04 14.2209C108.471 14.2209 109.69 14.7056 110.67 15.6597C111.643 16.6252 112.137 17.8044 112.137 19.1668C112.121 20.5635 111.627 21.7428 110.67 22.6739C109.71 23.6356 108.491 24.1165 107.044 24.1165ZM63.9988 24.1165C62.584 24.1165 61.3565 23.6394 60.3522 22.6968C59.3559 21.758 58.8498 20.5712 58.8498 19.1706C58.8498 17.77 59.3559 16.5832 60.3522 15.6444C61.3366 14.7018 62.564 14.2248 63.9988 14.2248C64.7002 14.2248 65.3816 14.3583 66.0352 14.6293C66.6769 14.8926 67.1989 15.2513 67.5855 15.6902L67.6812 15.8009L66.6011 16.816L66.4896 16.6901C65.8798 15.9955 65.0628 15.6559 63.9828 15.6559C63.0184 15.6559 62.1775 15.984 61.484 16.6328C60.7866 17.2854 60.4319 18.1402 60.4319 19.1744C60.4319 20.2086 60.7866 21.0635 61.484 21.716C62.1775 22.3648 63.0184 22.693 63.9828 22.693C65.011 22.693 65.8758 22.3648 66.5493 21.716C66.9479 21.3344 67.195 20.8001 67.2826 20.1247H63.8194V18.6974H68.7691L68.7891 18.8271C68.8249 19.0676 68.8608 19.3156 68.8608 19.5446C68.8608 20.8612 68.4463 21.9259 67.6254 22.7121C66.6928 23.6432 65.4733 24.1165 63.9988 24.1165ZM121.231 23.9142H119.705L115.03 16.7511L115.07 18.041V23.9104H113.544V14.427H115.285L115.333 14.4995L119.729 21.2466L119.689 19.9606V14.427H121.231V23.9142ZM95.5742 23.9142H94.0279V15.8543H91.3458V14.427H98.2523V15.8543H95.5702V23.9142H95.5742ZM90.0865 23.9142H88.5441V14.427H90.0865V23.9142ZM81.4185 23.9142H79.8761V15.8543H77.194V14.427H84.1005V15.8543H81.4185V23.9142ZM76.2177 23.8989H70.3035V14.427H76.2177V15.8543H71.8498V18.457H75.7912V19.869H71.8498V22.4717H76.2177V23.8989ZM104.545 21.697C105.235 22.3572 106.071 22.6892 107.044 22.6892C108.044 22.6892 108.861 22.3648 109.543 21.697C110.22 21.0482 110.563 20.1972 110.563 19.1706C110.563 18.144 110.22 17.2892 109.547 16.6443C108.857 15.984 108.016 15.652 107.048 15.652C106.048 15.652 105.231 15.9764 104.553 16.6443C103.876 17.293 103.533 18.144 103.533 19.1706C103.533 20.1972 103.872 21.052 104.545 21.697Z" fill="white"/>
<path fill-rule="evenodd" clip-rule="evenodd" d="M95.3229 36.4441C92.1474 36.4441 89.5734 38.7512 89.5734 41.9336C89.5734 45.087 92.1642 47.4231 95.3229 47.4231C98.4984 47.4231 101.072 45.0999 101.072 41.9336C101.072 38.7512 98.4984 36.4441 95.3229 36.4441ZM95.3229 45.2479C93.5856 45.2479 92.0903 43.8707 92.0903 41.9207C92.0903 39.9418 93.589 38.5936 95.3229 38.5936C97.0602 38.5936 98.5556 39.9418 98.5556 41.9207C98.5589 43.8836 97.0602 45.2479 95.3229 45.2479ZM82.7788 36.4441C79.6032 36.4441 77.0292 38.7512 77.0292 41.9336C77.0292 45.087 79.62 47.4231 82.7788 47.4231C85.9543 47.4231 88.5283 45.0999 88.5283 41.9336C88.5283 38.7512 85.9509 36.4441 82.7788 36.4441ZM82.7788 45.2479C81.0415 45.2479 79.5461 43.8707 79.5461 41.9207C79.5461 39.9418 81.0448 38.5936 82.7788 38.5936C84.5161 38.5936 86.0114 39.9418 86.0114 41.9207C86.0114 43.8836 84.5161 45.2479 82.7788 45.2479ZM67.8521 38.1205V40.4438H73.6756C73.4975 41.747 73.0472 42.7091 72.3583 43.3687C71.5048 44.186 70.1876 45.0742 67.8656 45.0742C64.2868 45.0742 61.4876 42.3069 61.4876 38.8799C61.4876 35.453 64.2868 32.6857 67.8656 32.6857C69.7978 32.6857 71.2057 33.4161 72.2508 34.3493L73.9713 32.7018C72.5196 31.3696 70.5874 30.3496 67.879 30.3496C62.9695 30.3496 58.8498 34.1788 58.8498 38.8671C58.8498 43.5682 62.9662 47.3845 67.879 47.3845C70.5303 47.3845 72.5196 46.5543 74.0923 44.9905C75.6952 43.4556 76.2026 41.29 76.2026 39.5428C76.2026 38.999 76.1589 38.5099 76.0682 38.0948H67.8488C67.8521 38.0916 67.8521 38.1205 67.8521 38.1205ZM128.906 39.9289C128.426 38.6965 126.974 36.4312 123.997 36.4312C121.046 36.4312 118.593 38.6547 118.593 41.9207C118.593 45.0034 121.019 47.4103 124.282 47.4103C126.903 47.4103 128.429 45.8754 129.057 44.9744L127.112 43.7259C126.467 44.643 125.569 45.2447 124.296 45.2447C123.009 45.2447 122.108 44.6848 121.51 43.5811L129.175 40.5403C129.175 40.5435 128.906 39.9289 128.906 39.9289ZM121.09 41.7631C121.03 39.6425 122.811 38.5646 124.084 38.5646C125.089 38.5646 125.926 39.0376 126.211 39.7262L121.09 41.7631ZM114.863 47.082H117.38V30.9546H114.863V47.082ZM110.73 37.6636H110.639C110.071 37.0168 108.993 36.4312 107.615 36.4312C104.755 36.4312 102.121 38.8413 102.121 41.9368C102.121 45.0195 104.742 47.4006 107.615 47.4006C108.976 47.4006 110.071 46.8118 110.639 46.1521H110.73V46.9405C110.73 49.0352 109.561 50.1647 107.676 50.1647C106.133 50.1647 105.175 49.1028 104.786 48.2147L102.598 49.0899C103.226 50.5379 104.903 52.3302 107.672 52.3302C110.623 52.3302 113.123 50.6667 113.123 46.609V36.7594H110.744V37.6636C110.747 37.6636 110.73 37.6636 110.73 37.6636ZM107.84 45.2479C106.103 45.2479 104.651 43.8578 104.651 41.9368C104.651 39.9997 106.103 38.5968 107.84 38.5968C109.561 38.5968 110.895 40.0158 110.895 41.9368C110.912 43.8578 109.564 45.2479 107.84 45.2479ZM140.691 30.9546H134.673V47.082H137.189V40.9747H140.694C143.48 40.9747 146.219 39.0408 146.219 35.9711C146.219 32.9013 143.49 30.9546 140.691 30.9546ZM140.765 38.7223H137.186V33.1877H140.765C142.65 33.1877 143.715 34.6775 143.715 35.955C143.715 37.2196 142.637 38.7223 140.765 38.7223ZM156.306 36.4151C154.478 36.4151 152.593 37.1906 151.814 38.8799L154.045 39.768C154.525 38.8799 155.406 38.5775 156.337 38.5775C157.64 38.5775 158.958 39.324 158.988 40.6561V40.8267C158.538 40.5821 157.55 40.2089 156.367 40.2089C153.958 40.2089 151.515 41.4702 151.515 43.8353C151.515 46.0009 153.49 47.391 155.691 47.391C157.382 47.391 158.313 46.6605 158.894 45.8142H158.985V47.0627H161.411V40.8846C161.411 38.0079 159.179 36.4151 156.306 36.4151ZM155.991 45.2479C155.167 45.2479 154.015 44.8618 154.015 43.8707C154.015 42.6222 155.453 42.1492 156.679 42.1492C157.788 42.1492 158.313 42.3777 158.971 42.693C158.79 44.141 157.513 45.235 155.991 45.2479ZM170.262 36.7594L167.372 43.7549H167.281L164.287 36.7594H161.579L166.072 46.5382L163.511 51.9731H166.132L173.044 36.7594H170.262ZM147.606 47.082H150.123V30.9546H147.606V47.082Z" fill="white"/>
</g>
<defs>
<linearGradient id="paint0_linear_218_5043" x1="30.7761" y1="16.5544" x2="2.48819" y2="24.4256" gradientUnits="userSpaceOnUse">
<stop stop-color="#00A0FF"/>
<stop offset="0.00657" stop-color="#00A1FF"/>
<stop offset="0.2601" stop-color="#00BEFF"/>
<stop offset="0.5122" stop-color="#00D2FF"/>
<stop offset="0.7604" stop-color="#00DFFF"/>
<stop offset="1" stop-color="#00E3FF"/>
</linearGradient>
<linearGradient id="paint1_linear_218_5043" x1="48.0344" y1="32.0621" x2="13.3361" y2="32.0621" gradientUnits="userSpaceOnUse">
<stop stop-color="#FFE000"/>
<stop offset="0.4087" stop-color="#FFBD00"/>
<stop offset="0.7754" stop-color="#FFA500"/>
<stop offset="1" stop-color="#FF9C00"/>
</linearGradient>
<linearGradient id="paint2_linear_218_5043" x1="35.1177" y1="35.2168" x2="13.7053" y2="72.8523" gradientUnits="userSpaceOnUse">
<stop stop-color="#FF3A44"/>
<stop offset="1" stop-color="#C31162"/>
</linearGradient>
<linearGradient id="paint3_linear_218_5043" x1="9.97728" y1="4.84427" x2="19.5299" y2="21.6523" gradientUnits="userSpaceOnUse">
<stop stop-color="#32A071"/>
<stop offset="0.0685" stop-color="#2DA771"/>
<stop offset="0.4762" stop-color="#15CF74"/>
<stop offset="0.8009" stop-color="#06E775"/>
<stop offset="1" stop-color="#00F076"/>
</linearGradient>
<clipPath id="clip0_218_5043">
<rect width="187.04" height="62.8018" fill="white" transform="translate(0.243408 0.66333)"/>
</clipPath>
</defs>
</svg>
