<svg width="20" height="30" viewBox="0 0 20 30" fill="none" xmlns="http://www.w3.org/2000/svg">
    <path
        d="M6.41057 28.1594L6.42127 28.1488L17.1853 17.2819L17.1853 17.2819L17.1933 17.2737C17.7234 16.7261 18.0271 16.066 18.0271 15.2933H18.0272L18.0271 15.2832C18.0195 14.537 17.7442 13.839 17.1748 13.2942L6.41477 2.43365C5.93278 1.93477 5.30079 1.65222 4.57532 1.65222C3.08532 1.65222 1.97266 2.86858 1.97266 4.31169C1.97266 5.01946 2.2569 5.691 2.72782 6.19152C2.73409 6.19818 2.74045 6.20476 2.7469 6.21124L11.7649 15.2838L2.74616 24.3762C2.73994 24.3825 2.73381 24.3888 2.72776 24.3952C2.26215 24.8902 1.97266 25.5517 1.97266 26.2776C1.97266 27.7265 3.09345 28.9253 4.57532 28.9253C5.31107 28.9253 5.92883 28.6313 6.41057 28.1594Z"
        fill="url(#paint0_linear_57_994)" stroke="url(#paint1_linear_57_994)" stroke-width="2"
        stroke-linejoin="round" />
    <defs>
        <linearGradient id="paint0_linear_57_994" x1="10.3834" y1="3.85119" x2="21.5837" y2="24.1115"
            gradientUnits="userSpaceOnUse">
            <stop stop-color="#BFADB9" />
            <stop offset="0.604224" stop-color="white" />
            <stop offset="1" stop-color="#BFADB9" />
        </linearGradient>
        <linearGradient id="paint1_linear_57_994" x1="9.85914" y1="2.65222" x2="14.3845" y2="27.0916"
            gradientUnits="userSpaceOnUse">
            <stop stop-color="#3D2334" />
            <stop offset="1" stop-color="#382130" />
        </linearGradient>
    </defs>
</svg>