<svg width="31" height="21" viewBox="0 0 31 21" fill="none" xmlns="http://www.w3.org/2000/svg">
<path d="M1.7145 20.1262C2.05873 20.1262 2.3469 19.9943 2.59053 19.7557L10.895 11.3717C11.1819 11.0754 11.3211 10.7529 11.3211 10.3805C11.3173 9.99719 11.18 9.65862 10.895 9.38931L2.58179 0.998354C2.35074 0.757708 2.06065 0.627808 1.7145 0.627808C1.01835 0.627808 0.478027 1.19299 0.478027 1.9081C0.478027 2.2476 0.615294 2.57917 0.851034 2.82973L8.88312 10.9105V9.83362L0.851034 17.9313C0.617212 18.1799 0.478027 18.5044 0.478027 18.855C0.478027 19.5681 1.01835 20.1262 1.7145 20.1262Z" fill="#FFD5CD"/>
<path d="M1.7145 20.1262C2.05873 20.1262 2.3469 19.9943 2.59053 19.7557L10.895 11.3717C11.1819 11.0754 11.3211 10.7529 11.3211 10.3805C11.3173 9.99719 11.18 9.65862 10.895 9.38931L2.58179 0.998354C2.35074 0.757708 2.06065 0.627808 1.7145 0.627808C1.01835 0.627808 0.478027 1.19299 0.478027 1.9081C0.478027 2.2476 0.615294 2.57917 0.851034 2.82973L8.88312 10.9105V9.83362L0.851034 17.9313C0.617212 18.1799 0.478027 18.5044 0.478027 18.855C0.478027 19.5681 1.01835 20.1262 1.7145 20.1262Z" fill="url(#paint0_linear_57_1019)"/>
<path d="M1.7145 20.1262C2.05873 20.1262 2.3469 19.9943 2.59053 19.7557L10.895 11.3717C11.1819 11.0754 11.3211 10.7529 11.3211 10.3805C11.3173 9.99719 11.18 9.65862 10.895 9.38931L2.58179 0.998354C2.35074 0.757708 2.06065 0.627808 1.7145 0.627808C1.01835 0.627808 0.478027 1.19299 0.478027 1.9081C0.478027 2.2476 0.615294 2.57917 0.851034 2.82973L8.88312 10.9105V9.83362L0.851034 17.9313C0.617212 18.1799 0.478027 18.5044 0.478027 18.855C0.478027 19.5681 1.01835 20.1262 1.7145 20.1262Z" fill="url(#paint1_linear_57_1019)"/>
<path d="M1.7145 20.1262C2.05873 20.1262 2.3469 19.9943 2.59053 19.7557L10.895 11.3717C11.1819 11.0754 11.3211 10.7529 11.3211 10.3805C11.3173 9.99719 11.18 9.65862 10.895 9.38931L2.58179 0.998354C2.35074 0.757708 2.06065 0.627808 1.7145 0.627808C1.01835 0.627808 0.478027 1.19299 0.478027 1.9081C0.478027 2.2476 0.615294 2.57917 0.851034 2.82973L8.88312 10.9105V9.83362L0.851034 17.9313C0.617212 18.1799 0.478027 18.5044 0.478027 18.855C0.478027 19.5681 1.01835 20.1262 1.7145 20.1262Z" fill="url(#paint2_linear_57_1019)"/>
<path d="M11.5026 20.1262C11.8468 20.1262 12.135 19.9943 12.3786 19.7557L20.6831 11.3717C20.97 11.0754 21.1092 10.7529 21.1092 10.3805C21.1053 9.99719 20.9681 9.65862 20.6831 9.38931L12.3699 0.998354C12.1388 0.757708 11.8487 0.627808 11.5026 0.627808C10.8064 0.627808 10.2661 1.19299 10.2661 1.9081C10.2661 2.2476 10.4034 2.57917 10.6391 2.82973L18.6712 10.9105V9.83363L10.6391 17.9313C10.4053 18.1799 10.2661 18.5044 10.2661 18.855C10.2661 19.5681 10.8064 20.1262 11.5026 20.1262Z" fill="#FFD5CD"/>
<path d="M11.5026 20.1262C11.8468 20.1262 12.135 19.9943 12.3786 19.7557L20.6831 11.3717C20.97 11.0754 21.1092 10.7529 21.1092 10.3805C21.1053 9.99719 20.9681 9.65862 20.6831 9.38931L12.3699 0.998354C12.1388 0.757708 11.8487 0.627808 11.5026 0.627808C10.8064 0.627808 10.2661 1.19299 10.2661 1.9081C10.2661 2.2476 10.4034 2.57917 10.6391 2.82973L18.6712 10.9105V9.83363L10.6391 17.9313C10.4053 18.1799 10.2661 18.5044 10.2661 18.855C10.2661 19.5681 10.8064 20.1262 11.5026 20.1262Z" fill="url(#paint3_linear_57_1019)"/>
<path d="M11.5026 20.1262C11.8468 20.1262 12.135 19.9943 12.3786 19.7557L20.6831 11.3717C20.97 11.0754 21.1092 10.7529 21.1092 10.3805C21.1053 9.99719 20.9681 9.65862 20.6831 9.38931L12.3699 0.998354C12.1388 0.757708 11.8487 0.627808 11.5026 0.627808C10.8064 0.627808 10.2661 1.19299 10.2661 1.9081C10.2661 2.2476 10.4034 2.57917 10.6391 2.82973L18.6712 10.9105V9.83363L10.6391 17.9313C10.4053 18.1799 10.2661 18.5044 10.2661 18.855C10.2661 19.5681 10.8064 20.1262 11.5026 20.1262Z" fill="url(#paint4_linear_57_1019)"/>
<path d="M11.5026 20.1262C11.8468 20.1262 12.135 19.9943 12.3786 19.7557L20.6831 11.3717C20.97 11.0754 21.1092 10.7529 21.1092 10.3805C21.1053 9.99719 20.9681 9.65862 20.6831 9.38931L12.3699 0.998354C12.1388 0.757708 11.8487 0.627808 11.5026 0.627808C10.8064 0.627808 10.2661 1.19299 10.2661 1.9081C10.2661 2.2476 10.4034 2.57917 10.6391 2.82973L18.6712 10.9105V9.83363L10.6391 17.9313C10.4053 18.1799 10.2661 18.5044 10.2661 18.855C10.2661 19.5681 10.8064 20.1262 11.5026 20.1262Z" fill="url(#paint5_linear_57_1019)"/>
<path d="M21.2909 20.1262C21.6351 20.1262 21.9233 19.9943 22.1669 19.7557L30.4714 11.3717C30.7584 11.0754 30.8976 10.7529 30.8976 10.3805C30.8937 9.99719 30.7564 9.65862 30.4714 9.38931L22.1582 0.998354C21.9272 0.757708 21.6371 0.627808 21.2909 0.627808C20.5948 0.627808 20.0544 1.19299 20.0544 1.9081C20.0544 2.2476 20.1917 2.57917 20.4275 2.82973L28.4595 10.9105V9.83363L20.4275 17.9313C20.1936 18.1799 20.0544 18.5044 20.0544 18.855C20.0544 19.5681 20.5948 20.1262 21.2909 20.1262Z" fill="#FFD5CD"/>
<path d="M21.2909 20.1262C21.6351 20.1262 21.9233 19.9943 22.1669 19.7557L30.4714 11.3717C30.7584 11.0754 30.8976 10.7529 30.8976 10.3805C30.8937 9.99719 30.7564 9.65862 30.4714 9.38931L22.1582 0.998354C21.9272 0.757708 21.6371 0.627808 21.2909 0.627808C20.5948 0.627808 20.0544 1.19299 20.0544 1.9081C20.0544 2.2476 20.1917 2.57917 20.4275 2.82973L28.4595 10.9105V9.83363L20.4275 17.9313C20.1936 18.1799 20.0544 18.5044 20.0544 18.855C20.0544 19.5681 20.5948 20.1262 21.2909 20.1262Z" fill="url(#paint6_linear_57_1019)"/>
<path d="M21.2909 20.1262C21.6351 20.1262 21.9233 19.9943 22.1669 19.7557L30.4714 11.3717C30.7584 11.0754 30.8976 10.7529 30.8976 10.3805C30.8937 9.99719 30.7564 9.65862 30.4714 9.38931L22.1582 0.998354C21.9272 0.757708 21.6371 0.627808 21.2909 0.627808C20.5948 0.627808 20.0544 1.19299 20.0544 1.9081C20.0544 2.2476 20.1917 2.57917 20.4275 2.82973L28.4595 10.9105V9.83363L20.4275 17.9313C20.1936 18.1799 20.0544 18.5044 20.0544 18.855C20.0544 19.5681 20.5948 20.1262 21.2909 20.1262Z" fill="url(#paint7_linear_57_1019)"/>
<path d="M21.2909 20.1262C21.6351 20.1262 21.9233 19.9943 22.1669 19.7557L30.4714 11.3717C30.7584 11.0754 30.8976 10.7529 30.8976 10.3805C30.8937 9.99719 30.7564 9.65862 30.4714 9.38931L22.1582 0.998354C21.9272 0.757708 21.6371 0.627808 21.2909 0.627808C20.5948 0.627808 20.0544 1.19299 20.0544 1.9081C20.0544 2.2476 20.1917 2.57917 20.4275 2.82973L28.4595 10.9105V9.83363L20.4275 17.9313C20.1936 18.1799 20.0544 18.5044 20.0544 18.855C20.0544 19.5681 20.5948 20.1262 21.2909 20.1262Z" fill="url(#paint8_linear_57_1019)"/>
<defs>
<linearGradient id="paint0_linear_57_1019" x1="6.03062" y1="-1.01517" x2="6.03063" y2="20.364" gradientUnits="userSpaceOnUse">
<stop stop-color="#FFD5CD"/>
<stop offset="1" stop-color="#C18F86"/>
</linearGradient>
<linearGradient id="paint1_linear_57_1019" x1="6.19547" y1="1.55282" x2="14.8365" y2="17.1838" gradientUnits="userSpaceOnUse">
<stop stop-color="#BFADB9"/>
<stop offset="0.604224" stop-color="white"/>
<stop offset="1" stop-color="#BFADB9"/>
</linearGradient>
<linearGradient id="paint2_linear_57_1019" x1="5.89958" y1="0.627808" x2="5.89958" y2="20.1262" gradientUnits="userSpaceOnUse">
<stop stop-color="#F1C4E2"/>
<stop offset="1" stop-color="#AF809F"/>
</linearGradient>
<linearGradient id="paint3_linear_57_1019" x1="15.8187" y1="-1.01517" x2="15.8187" y2="20.364" gradientUnits="userSpaceOnUse">
<stop stop-color="#FFD5CD"/>
<stop offset="1" stop-color="#C18F86"/>
</linearGradient>
<linearGradient id="paint4_linear_57_1019" x1="15.9836" y1="1.55282" x2="24.6246" y2="17.1838" gradientUnits="userSpaceOnUse">
<stop stop-color="#BFADB9"/>
<stop offset="0.604224" stop-color="white"/>
<stop offset="1" stop-color="#BFADB9"/>
</linearGradient>
<linearGradient id="paint5_linear_57_1019" x1="15.6877" y1="0.627808" x2="15.6877" y2="20.1262" gradientUnits="userSpaceOnUse">
<stop stop-color="#F1C4E2"/>
<stop offset="1" stop-color="#AF809F"/>
</linearGradient>
<linearGradient id="paint6_linear_57_1019" x1="25.607" y1="-1.01517" x2="25.607" y2="20.364" gradientUnits="userSpaceOnUse">
<stop stop-color="#FFD5CD"/>
<stop offset="1" stop-color="#C18F86"/>
</linearGradient>
<linearGradient id="paint7_linear_57_1019" x1="25.7719" y1="1.55282" x2="34.413" y2="17.1838" gradientUnits="userSpaceOnUse">
<stop stop-color="#BFADB9"/>
<stop offset="0.604224" stop-color="white"/>
<stop offset="1" stop-color="#BFADB9"/>
</linearGradient>
<linearGradient id="paint8_linear_57_1019" x1="25.476" y1="0.627808" x2="25.476" y2="20.1262" gradientUnits="userSpaceOnUse">
<stop stop-color="#F1C4E2"/>
<stop offset="1" stop-color="#AF809F"/>
</linearGradient>
</defs>
</svg>
